<svg width="9" height="9" viewBox="0 0 9 9" fill="none" xmlns="http://www.w3.org/2000/svg">
<path d="M7.16256 5.19184C7.04602 5.29752 6.99248 5.45035 7.01903 5.60023L7.41902 7.67168C7.45277 7.84724 7.37358 8.02492 7.21655 8.12638C7.06267 8.23164 6.85795 8.24427 6.69012 8.16006L4.69733 7.1875C4.62804 7.15297 4.5511 7.13445 4.47236 7.13234H4.35043C4.30813 7.13824 4.26674 7.15087 4.22894 7.17023L2.2357 8.14743C2.13716 8.19375 2.02558 8.21017 1.91624 8.19375C1.64988 8.14659 1.47215 7.90913 1.5158 7.65862L1.91624 5.58718C1.94279 5.43604 1.88925 5.28236 1.77271 5.175L0.147975 3.70141C0.0120925 3.57805 -0.0351513 3.3928 0.0269406 3.22566C0.0872327 3.05893 0.241113 2.93726 0.426938 2.90989L2.66315 2.60633C2.83322 2.58991 2.9826 2.49307 3.05909 2.34993L4.04447 0.459526C4.06786 0.417424 4.09801 0.37869 4.13445 0.34585L4.17495 0.316378C4.1961 0.294485 4.22039 0.276381 4.24739 0.261645L4.29643 0.244804L4.37292 0.215332H4.56235C4.73153 0.231752 4.88046 0.326483 4.9583 0.467947L5.95672 2.34993C6.02871 2.4876 6.16864 2.58317 6.33017 2.60633L8.56637 2.90989C8.75535 2.93515 8.91328 3.05725 8.97582 3.22566C9.03476 3.39449 8.98392 3.57974 8.84534 3.70141L7.16256 5.19184Z" fill="white"/>
</svg>
