<svg width="37" height="38" viewBox="0 0 37 38" fill="none" xmlns="http://www.w3.org/2000/svg">
<path d="M1.44906 30.56C0.995729 30.56 0.769063 30.3467 0.769063 29.92C0.769063 29.68 0.809063 29.4267 0.889063 29.16C0.969063 28.8933 1.0224 28.64 1.04906 28.4C1.31573 27.0667 1.6624 25.5733 2.08906 23.92C2.5424 22.24 3.04906 20.5867 3.60906 18.96C4.16906 17.3067 4.75573 15.8667 5.36906 14.64C5.12906 14.6667 4.7824 14.7333 4.32906 14.84C3.87573 14.92 3.4624 15.0533 3.08906 15.24C2.71573 15.4 2.52906 15.6267 2.52906 15.92C2.52906 16.1067 2.3824 16.2667 2.08906 16.4C1.79573 16.5067 1.5424 16.56 1.32906 16.56C0.929063 16.56 0.729063 16.36 0.729063 15.96C0.729063 15.56 0.915729 15.2133 1.28906 14.92C1.68906 14.6267 2.16906 14.3733 2.72906 14.16C3.31573 13.92 3.88906 13.7333 4.44906 13.6C5.03573 13.4667 5.5024 13.3733 5.84906 13.32C6.3024 12.36 6.83573 11.2667 7.44906 10.04C8.08906 8.78667 8.8224 7.54667 9.64906 6.32C10.4757 5.06667 11.3824 3.96 12.3691 3C13.3824 2.01333 14.4891 1.32 15.6891 0.919999C16.1424 0.759999 16.6224 0.679999 17.1291 0.679999C18.1424 0.679999 18.8357 0.906665 19.2091 1.36C19.6091 1.78667 19.8091 2.26667 19.8091 2.8C19.8091 3.30666 19.6757 3.77333 19.4091 4.2C19.1424 4.6 18.8491 4.8 18.5291 4.8C18.3424 4.8 18.1824 4.73333 18.0491 4.6C17.9157 4.44 17.8891 4.29333 17.9691 4.16C18.2624 3.70667 18.4091 3.26667 18.4091 2.84C18.4091 2.54667 18.3024 2.30667 18.0891 2.12C17.9024 1.93333 17.5824 1.84 17.1291 1.84C16.7824 1.84 16.4624 1.89333 16.1691 2C15.1291 2.34667 14.1557 2.96 13.2491 3.84C12.3691 4.72 11.5557 5.72 10.8091 6.84C10.0891 7.93333 9.44906 9.04 8.88906 10.16C8.32906 11.2533 7.8624 12.2267 7.48906 13.08C8.2624 12.9467 8.9024 12.8667 9.40906 12.84C9.91573 12.7867 10.4357 12.7333 10.9691 12.68C11.5024 12.6267 12.1824 12.56 13.0091 12.48H13.1291C13.4491 12.48 13.6091 12.64 13.6091 12.96C13.6091 13.12 13.5691 13.2667 13.4891 13.4C13.4091 13.5333 13.2891 13.6133 13.1291 13.64C11.6624 13.8 10.4624 13.9333 9.52906 14.04C8.6224 14.12 7.7424 14.2267 6.88906 14.36C5.95573 16.7067 5.08906 19.0533 4.28906 21.4C3.48906 23.7467 2.84906 26.1467 2.36906 28.6C2.3424 28.84 2.3024 29.08 2.24906 29.32C2.19573 29.56 2.1424 29.8 2.08906 30.04C2.00906 30.3867 1.79573 30.56 1.44906 30.56ZM12.2322 26.16C11.3522 26.16 10.7389 25.9333 10.3922 25.48C10.0722 25 9.91219 24.4267 9.91219 23.76C9.91219 23.12 10.0189 22.4533 10.2322 21.76C10.4455 21.0667 10.6722 20.4267 10.9122 19.84C11.1789 19.2267 11.3922 18.7733 11.5522 18.48C12.0322 17.6533 12.5655 16.8533 13.1522 16.08C13.7655 15.3067 14.4189 14.6267 15.1122 14.04C15.8055 13.4267 16.5122 12.96 17.2322 12.64C17.9789 12.2933 18.7255 12.12 19.4722 12.12C20.7522 12.12 21.6589 12.4667 22.1922 13.16C22.7255 13.8267 22.9922 14.5467 22.9922 15.32C22.9922 15.5867 22.9522 15.8667 22.8722 16.16C22.7655 16.56 22.6322 16.9067 22.4722 17.2C22.3389 17.4933 22.1655 17.64 21.9522 17.64C21.7655 17.64 21.5922 17.5467 21.4322 17.36C21.2722 17.1733 21.2189 16.9867 21.2722 16.8C21.3255 16.6133 21.3922 16.4267 21.4722 16.24C21.5789 16.0533 21.6455 15.8667 21.6722 15.68C21.6989 15.5467 21.7122 15.4267 21.7122 15.32C21.7389 15.2133 21.7522 15.1067 21.7522 15C21.7522 14.28 21.5122 13.7867 21.0322 13.52C20.5789 13.2267 20.0855 13.08 19.5522 13.08C18.9389 13.08 18.2989 13.2533 17.6322 13.6C16.9922 13.9467 16.4322 14.3467 15.9522 14.8C15.3655 15.3867 14.7789 16.0667 14.1922 16.84C13.6055 17.6133 13.0989 18.4 12.6722 19.2C12.6189 19.3333 12.4722 19.6533 12.2322 20.16C12.0189 20.6667 11.8055 21.24 11.5922 21.88C11.4055 22.4933 11.3122 23.0667 11.3122 23.6C11.3122 23.9733 11.3922 24.2933 11.5522 24.56C11.7389 24.8267 12.0455 24.96 12.4722 24.96C12.9255 24.96 13.4455 24.7467 14.0322 24.32C14.6455 23.8933 15.2589 23.3733 15.8722 22.76C16.5122 22.12 17.0855 21.5067 17.5922 20.92C18.0989 20.3333 18.4722 19.88 18.7122 19.56C18.8722 19.3467 19.0189 19.12 19.1522 18.88C19.3122 18.6133 19.4722 18.3733 19.6322 18.16C19.7122 18.0533 19.8722 18 20.1122 18C20.3255 18 20.5389 18.0667 20.7522 18.2C20.9922 18.3067 21.0855 18.4667 21.0322 18.68C20.9255 18.8667 20.7255 19.28 20.4322 19.92C20.1655 20.5333 19.9122 21.2133 19.6722 21.96C19.4322 22.68 19.3122 23.32 19.3122 23.88C19.3122 24.5733 19.5255 24.9733 19.9522 25.08C20.2455 25.1333 20.5522 25.0267 20.8722 24.76C21.2189 24.4933 21.5255 24.1867 21.7922 23.84C22.0855 23.4933 22.2989 23.24 22.4322 23.08C22.9922 22.3333 23.5122 21.5733 23.9922 20.8C24.4989 20 25.0055 19.2533 25.5122 18.56C25.6722 18.3467 25.8589 18.24 26.0722 18.24C26.4455 18.24 26.6322 18.44 26.6322 18.84C26.6322 18.9733 26.4589 19.32 26.1122 19.88C25.7655 20.4133 25.3389 21.0267 24.8322 21.72C24.3522 22.4133 23.8989 23.04 23.4722 23.6C23.0455 24.16 22.5655 24.7067 22.0322 25.24C21.4989 25.7733 20.8189 26.04 19.9922 26.04C19.2189 26.04 18.6855 25.8667 18.3922 25.52C18.1255 25.1733 17.9922 24.7867 17.9922 24.36C17.9922 23.9867 18.0322 23.6 18.1122 23.2C18.1922 22.7733 18.2722 22.4133 18.3522 22.12L18.1922 22C17.9522 22.2933 17.5922 22.6667 17.1122 23.12C16.6322 23.5733 16.0989 24.04 15.5122 24.52C14.9255 24.9733 14.3389 25.36 13.7522 25.68C13.1922 26 12.6855 26.16 12.2322 26.16ZM32.2175 37.48C31.3108 37.48 30.5908 37.2533 30.0575 36.8C29.5242 36.3733 29.1375 35.8267 28.8975 35.16C28.6575 34.4933 28.5375 33.8267 28.5375 33.16C28.5375 32.44 28.6442 31.6133 28.8575 30.68C29.0708 29.7467 29.3242 28.8133 29.6175 27.88C29.9108 26.9467 30.1775 26.1333 30.4175 25.44C30.6042 24.9867 30.7642 24.56 30.8975 24.16C31.0575 23.76 31.2042 23.3867 31.3375 23.04C30.4308 23.8667 29.5108 24.6 28.5775 25.24C27.6442 25.8533 26.8442 26.16 26.1775 26.16C25.2975 26.16 24.6842 25.9333 24.3375 25.48C24.0175 25 23.8575 24.4267 23.8575 23.76C23.8575 23.12 23.9642 22.4533 24.1775 21.76C24.3908 21.0667 24.6175 20.4267 24.8575 19.84C25.1242 19.2267 25.3375 18.7733 25.4975 18.48C25.9775 17.6533 26.5108 16.8533 27.0975 16.08C27.7108 15.3067 28.3642 14.6267 29.0575 14.04C29.7508 13.4267 30.4575 12.96 31.1775 12.64C31.9242 12.2933 32.6708 12.12 33.4175 12.12C34.6975 12.12 35.6042 12.4667 36.1375 13.16C36.6708 13.8267 36.9375 14.5467 36.9375 15.32C36.9375 15.5867 36.8975 15.8667 36.8175 16.16C36.7108 16.56 36.5775 16.9067 36.4175 17.2C36.2842 17.4933 36.1108 17.64 35.8975 17.64C35.7108 17.64 35.5375 17.5467 35.3775 17.36C35.2175 17.1733 35.1642 16.9867 35.2175 16.8C35.2708 16.6133 35.3375 16.4267 35.4175 16.24C35.5242 16.0533 35.5908 15.8667 35.6175 15.68C35.6442 15.5467 35.6575 15.4267 35.6575 15.32C35.6842 15.2133 35.6975 15.1067 35.6975 15C35.6975 14.28 35.4575 13.7867 34.9775 13.52C34.5242 13.2267 34.0308 13.08 33.4975 13.08C32.8842 13.08 32.2442 13.2533 31.5775 13.6C30.9375 13.9467 30.3775 14.3467 29.8975 14.8C29.3108 15.3867 28.7242 16.0667 28.1375 16.84C27.5508 17.6133 27.0442 18.4 26.6175 19.2C26.5642 19.3333 26.4175 19.6533 26.1775 20.16C25.9642 20.6667 25.7508 21.24 25.5375 21.88C25.3508 22.4933 25.2575 23.0667 25.2575 23.6C25.2575 23.9733 25.3375 24.2933 25.4975 24.56C25.6842 24.8267 25.9908 24.96 26.4175 24.96C26.8442 24.96 27.3508 24.76 27.9375 24.36C28.5508 23.96 29.1642 23.4667 29.7775 22.88C30.4175 22.2933 31.0042 21.72 31.5375 21.16C32.0708 20.5733 32.4708 20.1067 32.7375 19.76C32.8975 19.44 33.0842 19.04 33.2975 18.56C33.5108 18.0533 33.8708 17.8 34.3775 17.8C34.9108 17.8 35.1775 18.0533 35.1775 18.56C35.1775 18.9067 35.0708 19.2667 34.8575 19.64C34.6708 19.9867 34.4708 20.3067 34.2575 20.6C33.8042 21.24 33.3242 22.1067 32.8175 23.2C32.3108 24.2933 31.8308 25.4667 31.3775 26.72C30.9242 27.9733 30.5508 29.1733 30.2575 30.32C29.9908 31.4933 29.8575 32.4533 29.8575 33.2C29.8575 33.6533 29.9242 34.12 30.0575 34.6C30.2175 35.1067 30.4842 35.52 30.8575 35.84C31.2308 36.16 31.7375 36.32 32.3775 36.32C32.5908 36.32 32.8042 36.28 33.0175 36.2C33.2308 36.1467 33.4442 36.12 33.6575 36.12C33.8442 36.12 33.9908 36.1733 34.0975 36.28C34.2042 36.4133 34.2575 36.5467 34.2575 36.68C34.2575 36.8933 34.1242 37.0533 33.8575 37.16C33.5908 37.2933 33.2975 37.3733 32.9775 37.4C32.6575 37.4533 32.4042 37.48 32.2175 37.48Z" fill="#53974A"/>
</svg>
