<svg width="30" height="30" viewBox="0 0 30 30" fill="none" xmlns="http://www.w3.org/2000/svg">
<rect width="30" height="30" fill="#53974A"/>
<path d="M15 10.8462C14.1784 10.8462 13.3753 11.0898 12.6922 11.5462C12.0092 12.0026 11.4767 12.6514 11.1623 13.4104C10.848 14.1694 10.7657 15.0046 10.926 15.8104C11.0862 16.6161 11.4819 17.3563 12.0628 17.9372C12.6437 18.5181 13.3839 18.9138 14.1896 19.074C14.9954 19.2343 15.8306 19.152 16.5896 18.8377C17.3486 18.5233 17.9974 17.9909 18.4538 17.3078C18.9102 16.6247 19.1538 15.8216 19.1538 15C19.1527 13.8987 18.7147 12.8428 17.9359 12.0641C17.1572 11.2853 16.1013 10.8473 15 10.8462ZM15 17.7692C14.4523 17.7692 13.9169 17.6068 13.4615 17.3025C13.0061 16.9982 12.6512 16.5657 12.4416 16.0597C12.232 15.5537 12.1771 14.9969 12.284 14.4598C12.3908 13.9226 12.6546 13.4291 13.0419 13.0419C13.4291 12.6546 13.9226 12.3908 14.4598 12.284C14.9969 12.1771 15.5537 12.232 16.0597 12.4416C16.5657 12.6512 16.9982 13.0061 17.3025 13.4615C17.6068 13.9169 17.7692 14.4523 17.7692 15C17.7692 15.7344 17.4775 16.4388 16.9581 16.9581C16.4388 17.4775 15.7344 17.7692 15 17.7692ZM19.1538 6H10.8462C9.5613 6.00137 8.32946 6.51239 7.42092 7.42092C6.51239 8.32946 6.00137 9.5613 6 10.8462V19.1538C6.00137 20.4387 6.51239 21.6705 7.42092 22.5791C8.32946 23.4876 9.5613 23.9986 10.8462 24H19.1538C20.4387 23.9986 21.6705 23.4876 22.5791 22.5791C23.4876 21.6705 23.9986 20.4387 24 19.1538V10.8462C23.9986 9.5613 23.4876 8.32946 22.5791 7.42092C21.6705 6.51239 20.4387 6.00137 19.1538 6ZM22.6154 19.1538C22.6154 20.0719 22.2507 20.9524 21.6015 21.6015C20.9524 22.2507 20.0719 22.6154 19.1538 22.6154H10.8462C9.9281 22.6154 9.04764 22.2507 8.39848 21.6015C7.74931 20.9524 7.38462 20.0719 7.38462 19.1538V10.8462C7.38462 9.9281 7.74931 9.04764 8.39848 8.39848C9.04764 7.74931 9.9281 7.38462 10.8462 7.38462H19.1538C20.0719 7.38462 20.9524 7.74931 21.6015 8.39848C22.2507 9.04764 22.6154 9.9281 22.6154 10.8462V19.1538ZM20.5385 10.5C20.5385 10.7054 20.4776 10.9062 20.3634 11.0769C20.2493 11.2477 20.0872 11.3808 19.8974 11.4594C19.7076 11.538 19.4988 11.5586 19.2974 11.5185C19.096 11.4784 18.9109 11.3795 18.7657 11.2343C18.6205 11.0891 18.5216 10.904 18.4815 10.7026C18.4414 10.5012 18.462 10.2924 18.5406 10.1026C18.6192 9.91284 18.7523 9.75066 18.9231 9.63655C19.0938 9.52244 19.2946 9.46154 19.5 9.46154C19.7754 9.46154 20.0396 9.57095 20.2343 9.7657C20.4291 9.96045 20.5385 10.2246 20.5385 10.5Z" fill="white"/>
</svg>
