<svg width="30" height="30" viewBox="0 0 30 30" fill="none" xmlns="http://www.w3.org/2000/svg">
<rect width="30" height="30" fill="#53974A"/>
<path d="M7 8.146C7 7.513 7.526 7 8.175 7H21.825C22.474 7 23 7.513 23 8.146V21.854C23 22.487 22.474 23 21.825 23H8.175C7.526 23 7 22.487 7 21.854V8.146ZM11.943 20.394V13.169H9.542V20.394H11.943ZM10.743 12.182C11.58 12.182 12.101 11.628 12.101 10.934C12.086 10.225 11.581 9.686 10.759 9.686C9.937 9.686 9.4 10.226 9.4 10.934C9.4 11.628 9.921 12.182 10.727 12.182H10.743ZM15.651 20.394V16.359C15.651 16.143 15.667 15.927 15.731 15.773C15.904 15.342 16.299 14.895 16.963 14.895C17.832 14.895 18.179 15.557 18.179 16.529V20.394H20.58V16.25C20.58 14.03 19.396 12.998 17.816 12.998C16.542 12.998 15.971 13.698 15.651 14.191V14.216H15.635C15.6403 14.2077 15.6456 14.1993 15.651 14.191V13.169H13.251C13.281 13.847 13.251 20.394 13.251 20.394H15.651Z" fill="white"/>
</svg>
