<svg width="30" height="30" viewBox="0 0 30 30" fill="none" xmlns="http://www.w3.org/2000/svg">
<rect width="30" height="30" fill="#53974A"/>
<path d="M13.4 17.5714L17.552 15L13.4 12.4286V17.5714ZM22.648 10.86C22.752 11.2629 22.824 11.8029 22.872 12.4886C22.928 13.1743 22.952 13.7657 22.952 14.28L23 15C23 16.8771 22.872 18.2571 22.648 19.14C22.448 19.9114 21.984 20.4086 21.264 20.6229C20.888 20.7343 20.2 20.8114 19.144 20.8629C18.104 20.9229 17.152 20.9486 16.272 20.9486L15 21C11.648 21 9.56 20.8629 8.736 20.6229C8.016 20.4086 7.552 19.9114 7.352 19.14C7.248 18.7371 7.176 18.1971 7.128 17.5114C7.072 16.8257 7.048 16.2343 7.048 15.72L7 15C7 13.1229 7.128 11.7429 7.352 10.86C7.552 10.0886 8.016 9.59143 8.736 9.37714C9.112 9.26571 9.8 9.18857 10.856 9.13714C11.896 9.07714 12.848 9.05143 13.728 9.05143L15 9C18.352 9 20.44 9.13714 21.264 9.37714C21.984 9.59143 22.448 10.0886 22.648 10.86Z" fill="white"/>
</svg>
