<svg width="93" height="41" viewBox="0 0 93 41" fill="none" xmlns="http://www.w3.org/2000/svg">
<path d="M6.4 40.64C5.65333 40.64 4.84 40.5333 3.96 40.32C3.05333 40.1333 2.28 39.8 1.64 39.32C1 38.84 0.68 38.1867 0.68 37.36V37.08C0.76 36.6 0.946666 36.1333 1.24 35.68C1.53333 35.2267 1.85333 34.8133 2.2 34.44C3.34667 33.2133 4.73333 32.2133 6.36 31.44C8.01333 30.6933 9.74667 30.1067 11.56 29.68C13.4 29.2533 15.1733 28.9467 16.88 28.76C17.9733 28.6267 19.0667 28.5333 20.16 28.48C21.2533 28.4533 22.3467 28.44 23.44 28.44H24.68C26.6 25.8267 28.2267 23.0133 29.56 20C30.8933 16.96 32 13.9467 32.88 10.96L32.4 11.08C32.0533 11.8267 31.5467 12.64 30.88 13.52C30.24 14.4 29.52 15.2933 28.72 16.2C27.9467 17.08 27.16 17.92 26.36 18.72C25.56 19.4933 24.84 20.1733 24.2 20.76C23.5067 21.3733 22.68 22.04 21.72 22.76C20.76 23.48 19.7333 24.16 18.64 24.8C17.5733 25.4133 16.4667 25.92 15.32 26.32C14.2 26.72 13.12 26.92 12.08 26.92C10.72 26.92 9.77333 26.52 9.24 25.72C8.73333 24.92 8.48 24 8.48 22.96C8.48 21.9467 8.65333 20.8667 9 19.72C9.37333 18.5733 9.84 17.4533 10.4 16.36C10.96 15.2667 11.56 14.3067 12.2 13.48C12.6267 12.9467 13.0667 12.4133 13.52 11.88C13.9733 11.3467 14.4267 10.8267 14.88 10.32C14.2133 9.86667 13.64 9.32 13.16 8.68C12.7067 8.04 12.48 7.34667 12.48 6.6C12.48 6.41333 12.5067 6.16 12.56 5.84C12.64 5.49333 12.7467 5.18666 12.88 4.92C13.04 4.62667 13.24 4.48 13.48 4.48C13.6667 4.48 13.8267 4.54667 13.96 4.68C14.12 4.78667 14.2 4.92 14.2 5.08C14.2 5.26667 14.1333 5.48 14 5.72C13.8667 5.93333 13.8 6.21333 13.8 6.56C13.8 7.17333 13.9733 7.73333 14.32 8.24C14.6933 8.72 15.1467 9.14667 15.68 9.52C17.76 7.41333 20.0667 5.6 22.6 4.08C25.16 2.53333 28.0133 1.46666 31.16 0.879998C32.0133 0.719998 32.88 0.639998 33.76 0.639998C34.6667 0.639998 35.5333 0.773332 36.36 1.04C37.2133 1.28 37.9067 1.66667 38.44 2.2C39 2.73333 39.28 3.45333 39.28 4.36C39.28 5.21333 39.04 6.01333 38.56 6.76C38.08 7.50667 37.4533 8.18667 36.68 8.8C35.9333 9.38667 35.16 9.88 34.36 10.28C33.6133 13.3733 32.56 16.52 31.2 19.72C29.84 22.8933 28.2133 25.8267 26.32 28.52C27.0133 28.5733 27.84 28.6933 28.8 28.88C29.76 29.0933 30.68 29.36 31.56 29.68C32.4667 30 33.1733 30.3733 33.68 30.8C33.84 30.9067 33.92 31.0533 33.92 31.24C33.92 31.3733 33.8667 31.4933 33.76 31.6C33.6533 31.7333 33.5067 31.8 33.32 31.8C33.24 31.8 33.16 31.7733 33.08 31.72C33.0267 31.6933 32.96 31.6667 32.88 31.64C32.5333 31.4 32.16 31.1867 31.76 31C31.36 30.84 30.9467 30.6933 30.52 30.56C29.72 30.2933 28.88 30.0933 28 29.96C27.12 29.8267 26.2533 29.7333 25.4 29.68C25.1333 30.0267 24.8667 30.36 24.6 30.68C24.3333 31 24.0533 31.32 23.76 31.64C22.1333 33.4 20.2667 34.9733 18.16 36.36C16.08 37.7467 13.8133 38.8533 11.36 39.68C10.6933 39.8933 10 40.08 9.28 40.24C8.56 40.4267 7.84 40.5467 7.12 40.6C7.01333 40.6 6.89333 40.6 6.76 40.6C6.65333 40.6267 6.53333 40.64 6.4 40.64ZM22.84 11.36C24.2 11.36 25.64 11.2667 27.16 11.08C28.68 10.8933 30.08 10.6 31.36 10.2C31.4933 9.98667 31.68 9.72 31.92 9.4C32.16 9.05333 32.4267 8.76 32.72 8.52C33.04 8.25333 33.36 8.12 33.68 8.12C33.8933 8.12 34.0667 8.18667 34.2 8.32C34.36 8.45333 34.4667 8.6 34.52 8.76C35.3467 8.30667 36.12 7.69333 36.84 6.92C37.56 6.14667 37.92 5.30667 37.92 4.4C37.92 3.73333 37.7067 3.21333 37.28 2.84C36.8533 2.46667 36.32 2.2 35.68 2.04C35.0667 1.88 34.44 1.8 33.8 1.8C32.9733 1.8 32.16 1.88 31.36 2.04C28.4 2.62666 25.72 3.64 23.32 5.08C20.92 6.49333 18.7333 8.18667 16.76 10.16C17.6933 10.5867 18.68 10.8933 19.72 11.08C20.76 11.2667 21.8 11.36 22.84 11.36ZM33.04 9.56L33.2 9.52C33.2533 9.41333 33.28 9.33333 33.28 9.28C33.28 9.22667 33.2667 9.14667 33.24 9.04C33.24 8.90667 33.2267 8.84 33.2 8.84C33.1733 8.94667 33.1467 9.06667 33.12 9.2C33.0933 9.30667 33.0667 9.42667 33.04 9.56ZM12.24 25.72C12.48 25.72 12.7067 25.7067 12.92 25.68C13.16 25.6267 13.4 25.5733 13.64 25.52C15.32 25.1467 16.9867 24.4667 18.64 23.48C20.32 22.4667 21.9067 21.28 23.4 19.92C24.92 18.56 26.2933 17.16 27.52 15.72C28.7733 14.28 29.8133 12.92 30.64 11.64C29.4133 11.9067 28.16 12.12 26.88 12.28C25.6 12.44 24.32 12.52 23.04 12.52C21.84 12.52 20.6267 12.4133 19.4 12.2C18.1733 11.96 17.0267 11.5733 15.96 11.04C15 12.0533 14.04 13.2267 13.08 14.56C12.1467 15.8933 11.36 17.28 10.72 18.72C10.1067 20.16 9.8 21.5733 9.8 22.96C9.8 23.6533 9.96 24.2933 10.28 24.88C10.6267 25.44 11.28 25.72 12.24 25.72ZM6.16 39.48C6.29333 39.48 6.44 39.48 6.6 39.48C6.76 39.48 6.90667 39.4667 7.04 39.44C7.73333 39.3867 8.41333 39.2667 9.08 39.08C9.77333 38.92 10.4267 38.7333 11.04 38.52C13.3333 37.7467 15.4667 36.6933 17.44 35.36C19.4133 34.0533 21.16 32.5867 22.68 30.96C22.8933 30.7467 23.0933 30.52 23.28 30.28C23.4667 30.04 23.6667 29.8267 23.88 29.64C23.6133 29.6133 23.3467 29.6 23.08 29.6C22.8133 29.6 22.5467 29.6 22.28 29.6C21.4 29.6 20.52 29.6267 19.64 29.68C18.7867 29.7333 17.9333 29.8133 17.08 29.92C15.5333 30.08 13.9067 30.3467 12.2 30.72C10.52 31.12 8.90667 31.6533 7.36 32.32C5.84 32.9867 4.53333 33.8533 3.44 34.92C3.12 35.24 2.81333 35.5867 2.52 35.96C2.22667 36.36 2.05333 36.7867 2 37.24C1.97333 37.2933 1.96 37.3733 1.96 37.48C1.96 38.04 2.21333 38.4533 2.72 38.72C3.22667 39.0133 3.8 39.2133 4.44 39.32C5.10667 39.4267 5.68 39.48 6.16 39.48ZM40.9213 27.88C40.4679 27.88 40.0546 27.7467 39.6813 27.48C39.3079 27.2133 39.1213 26.7467 39.1213 26.08C39.1213 25.2267 39.3346 24.32 39.7613 23.36C40.2146 22.4 40.7746 21.3467 41.4413 20.2C40.5879 21.1867 39.6279 22.2533 38.5613 23.4C37.5213 24.5467 36.4813 25.4667 35.4413 26.16C34.5346 26.7467 33.7879 27.04 33.2013 27.04C32.7213 27.04 32.3613 26.88 32.1212 26.56C31.8546 26.24 31.7212 25.8267 31.7212 25.32C31.7212 24.7333 31.8546 24.16 32.1212 23.6C32.7079 22.2133 33.3746 20.7067 34.1213 19.08C34.8679 17.4267 35.6546 15.9733 36.4813 14.72C36.5613 14.6133 36.6413 14.5333 36.7213 14.48C36.8279 14.4 36.9479 14.36 37.0813 14.36C37.2679 14.36 37.4279 14.4133 37.5612 14.52C37.7213 14.6267 37.8013 14.76 37.8013 14.92C37.8013 14.9733 37.7746 15.0533 37.7213 15.16C37.5613 15.5333 37.2679 16.1333 36.8413 16.96C36.4413 17.76 35.9746 18.68 35.4413 19.72C34.9079 20.76 34.3613 21.8267 33.8013 22.92C33.3746 23.7467 33.1613 24.4667 33.1613 25.08C33.1613 25.56 33.3346 25.8 33.6813 25.8C33.8413 25.8 34.0146 25.7467 34.2013 25.64C35.0013 25.1867 35.7079 24.6533 36.3213 24.04C36.9346 23.4267 37.5346 22.8 38.1213 22.16C38.4946 21.76 38.8546 21.36 39.2013 20.96C39.5746 20.56 39.9346 20.1467 40.2813 19.72C40.4146 19.5867 40.6679 19.2667 41.0413 18.76C41.4413 18.2533 41.8813 17.6933 42.3613 17.08C42.8413 16.44 43.2679 15.88 43.6413 15.4C44.0413 14.8933 44.2813 14.5867 44.3613 14.48C44.5746 14.2667 44.8946 14.16 45.3213 14.16C45.5346 14.16 45.7213 14.2133 45.8813 14.32C46.0679 14.4 46.1613 14.5467 46.1613 14.76C46.1613 14.9467 46.0279 15.2667 45.7613 15.72C45.5213 16.1467 45.2279 16.6267 44.8813 17.16C44.5346 17.6667 44.2013 18.1333 43.8813 18.56C43.5613 18.9867 43.3346 19.3067 43.2013 19.52C43.0946 19.7067 42.8946 20.0667 42.6013 20.6C42.3079 21.1067 41.9879 21.7067 41.6413 22.4C41.3213 23.0667 41.0413 23.72 40.8013 24.36C40.5613 25 40.4413 25.5333 40.4413 25.96C40.4413 26.44 40.6413 26.68 41.0413 26.68C41.4679 26.68 41.9613 26.4133 42.5213 25.88C43.0813 25.3467 43.6679 24.6933 44.2813 23.92C44.8946 23.12 45.4679 22.3333 46.0013 21.56C46.5346 20.76 46.9879 20.0933 47.3613 19.56C47.4679 19.4267 47.5746 19.3467 47.6813 19.32C47.7879 19.2933 47.8679 19.28 47.9213 19.28C48.1879 19.28 48.3479 19.44 48.4013 19.76C48.4013 19.84 48.3079 20.0667 48.1213 20.44C47.9346 20.8133 47.7479 21.12 47.5613 21.36C47.3213 21.7067 46.9479 22.24 46.4413 22.96C45.9613 23.6533 45.4013 24.4 44.7613 25.2C44.1479 25.9733 43.4679 26.6667 42.7213 27.28C42.2413 27.68 41.6413 27.88 40.9213 27.88ZM53.4778 10.68C53.3445 10.68 53.1978 10.6533 53.0378 10.6C52.8778 10.5467 52.7978 10.4267 52.7978 10.24C52.7978 10.1067 52.8378 9.98667 52.9178 9.88C53.1311 9.48 53.5178 9.13333 54.0778 8.84C54.6645 8.54667 55.1045 8.4 55.3978 8.4C55.5311 8.4 55.6778 8.44 55.8378 8.52C55.9978 8.57333 56.0778 8.69333 56.0778 8.88C56.0778 9.33333 55.7978 9.74667 55.2378 10.12C54.7045 10.4933 54.1178 10.68 53.4778 10.68ZM48.9978 27.04C48.0911 27.04 47.3711 26.7867 46.8378 26.28C46.3045 25.7733 46.0378 25.0667 46.0378 24.16C46.0378 23.6267 46.0911 23.1067 46.1978 22.6C46.3045 22.0667 46.4511 21.5467 46.6378 21.04C46.7445 20.7467 46.9578 20.2667 47.2778 19.6C47.6245 18.9067 48.0245 18.1867 48.4778 17.44C48.9311 16.6667 49.3711 16.0133 49.7978 15.48C50.2245 14.9467 50.5978 14.68 50.9178 14.68C51.0511 14.68 51.2245 14.7333 51.4378 14.84C51.6778 14.92 51.7978 15.0533 51.7978 15.24C51.7978 15.3467 51.7445 15.48 51.6378 15.64C51.0245 16.3333 50.3845 17.16 49.7178 18.12C49.0511 19.08 48.4911 20.08 48.0378 21.12C47.5845 22.16 47.3578 23.16 47.3578 24.12C47.3578 25.3467 47.9445 25.96 49.1178 25.96C49.9178 25.96 50.7178 25.5733 51.5178 24.8C52.3445 24.0267 53.2511 22.9867 54.2378 21.68C54.5311 21.3067 54.7845 20.9467 54.9978 20.6C55.2378 20.2267 55.4511 19.9067 55.6378 19.64C55.8245 19.4533 56.0245 19.36 56.2378 19.36C56.5578 19.36 56.7178 19.48 56.7178 19.72C56.7178 20.0133 56.5045 20.48 56.0778 21.12C55.6511 21.76 55.1711 22.4267 54.6378 23.12C53.5978 24.4 52.6911 25.3733 51.9178 26.04C51.1445 26.7067 50.1711 27.04 48.9978 27.04ZM56.3581 27.6C55.4781 27.6 54.8648 27.3067 54.5181 26.72C54.1715 26.1333 53.9981 25.5067 53.9981 24.84C53.9981 24.0667 54.1581 23.1867 54.4781 22.2C54.8248 21.2133 55.2915 20.2133 55.8781 19.2C56.4648 18.1867 57.1448 17.2533 57.9181 16.4C58.6915 15.5467 59.5315 14.8533 60.4381 14.32C61.3715 13.7867 62.3181 13.52 63.2781 13.52C63.8648 13.52 64.3315 13.6267 64.6781 13.84C65.0515 14.0533 65.3981 14.3467 65.7181 14.72C66.2781 13.8133 66.9048 12.72 67.5981 11.44C68.2915 10.1333 68.9981 8.82667 69.7181 7.52C70.4381 6.18667 71.0915 5.04 71.6781 4.08C71.9448 3.62667 72.2248 3.32 72.5181 3.16C72.8115 3 73.0915 2.92 73.3581 2.92C73.5715 2.92 73.7448 2.97333 73.8781 3.08C74.0115 3.18666 74.0781 3.41333 74.0781 3.76C74.0781 3.94667 73.9048 4.34667 73.5581 4.96C73.2381 5.54667 72.8115 6.25333 72.2781 7.08C71.7448 7.90667 71.1715 8.77333 70.5581 9.68C69.9448 10.5867 69.3581 11.4533 68.7981 12.28C68.2648 13.1067 67.8248 13.8 67.4781 14.36C67.2115 14.7867 66.8515 15.44 66.3981 16.32C65.9448 17.1733 65.4781 18.12 64.9981 19.16C64.5181 20.2 64.1181 21.2133 63.7981 22.2C63.4781 23.1867 63.3181 24 63.3181 24.64C63.3181 24.9867 63.3848 25.28 63.5181 25.52C63.6515 25.76 63.8515 25.88 64.1181 25.88C64.4115 25.88 64.7181 25.76 65.0381 25.52C65.3581 25.28 65.6515 25.0133 65.9181 24.72C66.1848 24.4267 66.3715 24.2 66.4781 24.04C66.5848 23.9067 66.8381 23.56 67.2381 23C67.6381 22.44 68.0648 21.84 68.5181 21.2C68.9981 20.5333 69.3581 20.0133 69.5981 19.64C69.7315 19.4267 69.9181 19.32 70.1581 19.32C70.5048 19.32 70.6781 19.52 70.6781 19.92C70.6781 19.9733 70.6248 20.0933 70.5181 20.28C70.4115 20.44 70.2781 20.6533 70.1181 20.92C68.8381 22.8933 67.7448 24.4 66.8381 25.44C65.9315 26.48 64.9715 27 63.9581 27C63.8781 27 63.7848 27 63.6781 27C63.5981 27 63.5181 26.9867 63.4381 26.96C62.9048 26.8533 62.5315 26.56 62.3181 26.08C62.1315 25.6 62.0381 25.1067 62.0381 24.6C62.0381 24.36 62.0515 24.1067 62.0781 23.84C62.1315 23.5467 62.2115 23.16 62.3181 22.68C61.8115 23.2933 61.2515 23.96 60.6381 24.68C60.0248 25.3733 59.4115 25.9867 58.7981 26.52C58.2115 27.0533 57.6915 27.3733 57.2381 27.48C56.9715 27.56 56.6781 27.6 56.3581 27.6ZM56.5181 26.36C56.9181 26.36 57.3848 26.16 57.9181 25.76C58.4781 25.3333 59.0381 24.8 59.5981 24.16C60.1848 23.52 60.7315 22.84 61.2381 22.12C61.7715 21.4 62.2248 20.7467 62.5981 20.16C62.9981 19.5467 63.2781 19.08 63.4381 18.76L64.9581 15.76C64.7448 15.4667 64.5048 15.2133 64.2381 15C63.9981 14.7867 63.6648 14.68 63.2381 14.68C62.4115 14.68 61.6115 14.9333 60.8381 15.44C60.0648 15.92 59.3448 16.56 58.6781 17.36C58.0381 18.1333 57.4781 18.9867 56.9981 19.92C56.5181 20.8267 56.1448 21.72 55.8781 22.6C55.6115 23.4533 55.4781 24.2 55.4781 24.84C55.4781 25.1333 55.5315 25.4667 55.6381 25.84C55.7715 26.1867 56.0648 26.36 56.5181 26.36ZM72.3834 27.4C70.9968 27.4 70.0234 27 69.4634 26.2C68.9301 25.3733 68.6634 24.4133 68.6634 23.32C68.6634 22.52 68.8634 21.5733 69.2634 20.48C69.6634 19.36 70.2101 18.2667 70.9034 17.2C71.6234 16.1333 72.4501 15.2533 73.3834 14.56C74.3168 13.84 75.3168 13.48 76.3834 13.48C77.0768 13.48 77.6234 13.68 78.0234 14.08C78.4501 14.4533 78.6634 14.9333 78.6634 15.52C78.6634 16.64 78.3034 17.72 77.5834 18.76C76.8634 19.8 75.9301 20.6533 74.7834 21.32C73.6368 21.9867 72.4101 22.32 71.1034 22.32C70.9434 22.32 70.7834 22.32 70.6234 22.32C70.4634 22.2933 70.3034 22.2667 70.1434 22.24C70.0634 22.5867 70.0234 22.9867 70.0234 23.44C70.0234 24.1333 70.1834 24.7733 70.5034 25.36C70.8501 25.9467 71.5034 26.24 72.4634 26.24C73.2634 26.24 74.0368 26.04 74.7834 25.64C75.5301 25.24 76.1568 24.7867 76.6634 24.28C77.1701 23.7733 77.5968 23.32 77.9434 22.92C78.2901 22.52 78.6501 22.0667 79.0234 21.56C79.3968 21.0267 79.8634 20.3333 80.4234 19.48C80.5301 19.2933 80.6901 19.2 80.9034 19.2C81.2768 19.2 81.4634 19.4 81.4634 19.8C81.4634 19.9333 81.4368 20.04 81.3834 20.12C80.6634 21.3467 79.8634 22.52 78.9834 23.64C78.1034 24.7333 77.1168 25.64 76.0234 26.36C74.9568 27.0533 73.7434 27.4 72.3834 27.4ZM71.3834 21.08C72.3968 21.08 73.3434 20.8133 74.2234 20.28C75.1301 19.72 75.8634 19.0267 76.4234 18.2C77.0101 17.3733 77.3034 16.5333 77.3034 15.68C77.3034 15.3867 77.2234 15.1467 77.0634 14.96C76.9301 14.7733 76.6901 14.68 76.3434 14.68C75.6501 14.68 74.9834 14.92 74.3434 15.4C73.7034 15.8533 73.1168 16.44 72.5834 17.16C72.0768 17.8533 71.6368 18.5467 71.2634 19.24C70.9168 19.9333 70.6634 20.52 70.5034 21C70.6368 21.0267 70.7701 21.0533 70.9034 21.08C71.0634 21.08 71.2234 21.08 71.3834 21.08ZM81.2456 27.4C79.939 27.4 78.939 27.1333 78.2456 26.6C77.5523 26.0667 77.2056 25.5067 77.2056 24.92C77.2056 24.4933 77.3923 24.12 77.7656 23.8C78.1123 23.4533 78.7123 23.28 79.5656 23.28C80.099 23.28 80.739 23.36 81.4856 23.52C82.0456 23.6533 82.6323 23.8267 83.2456 24.04C83.8856 24.2533 84.539 24.3467 85.2056 24.32C85.3923 24.0267 85.499 23.7867 85.5256 23.6C85.5523 23.4133 85.5656 23.1867 85.5656 22.92C85.5656 22.04 85.419 21.3067 85.1256 20.72C84.859 20.1333 84.539 19.56 84.1656 19C83.819 18.44 83.5256 17.76 83.2856 16.96C82.939 17.5467 82.499 18.32 81.9656 19.28C81.4323 20.2133 80.5523 21.4933 79.3256 23.12C79.2456 23.2533 79.0856 23.32 78.8456 23.32C78.4456 23.32 78.2456 23.1467 78.2456 22.8C78.2456 22.72 78.3123 22.6 78.4456 22.44C78.5523 22.28 78.819 21.8667 79.2456 21.2C79.7256 20.4267 80.2856 19.56 80.9256 18.6C81.5656 17.6133 82.179 16.5333 82.7656 15.36C82.7923 14.9067 82.8856 14.4667 83.0456 14.04C83.2056 13.6133 83.3923 13.2267 83.6056 12.88C83.899 12.4 84.2056 12.0533 84.5256 11.84C84.8456 11.6 85.139 11.48 85.4056 11.48C85.9123 11.48 86.1656 11.7733 86.1656 12.36C86.1656 12.76 86.0056 13.28 85.6856 13.92C85.499 14.32 85.259 14.6667 84.9656 14.96C84.6723 15.2267 84.419 15.4667 84.2056 15.68C84.259 16.3467 84.419 16.9467 84.6856 17.48C84.9523 18.0133 85.2456 18.5333 85.5656 19.04C85.9123 19.5467 86.2056 20.0933 86.4456 20.68C86.6856 21.2667 86.8056 21.9733 86.8056 22.8C86.8056 23.3333 86.7123 23.8267 86.5256 24.28C87.1123 24.3067 87.7123 24.0933 88.3256 23.64C88.9656 23.16 89.5656 22.5467 90.1256 21.8C90.7123 21.0533 91.2323 20.2933 91.6856 19.52C91.819 19.3333 91.9923 19.24 92.2056 19.24C92.339 19.24 92.4723 19.28 92.6056 19.36C92.739 19.44 92.8056 19.5733 92.8056 19.76C92.8056 19.8667 92.7656 20 92.6856 20.16C91.9123 21.5467 91.1656 22.6267 90.4456 23.4C89.7523 24.1467 89.0456 24.6667 88.3256 24.96C87.6056 25.2533 86.8056 25.4267 85.9256 25.48C85.259 26.0933 84.539 26.5733 83.7656 26.92C83.019 27.24 82.179 27.4 81.2456 27.4ZM81.0456 26.44C81.659 26.44 82.1923 26.3467 82.6456 26.16C83.099 25.9733 83.5923 25.7067 84.1256 25.36C83.5656 25.28 83.099 25.1867 82.7256 25.08C82.3523 24.9467 81.8723 24.8133 81.2856 24.68C80.539 24.52 79.9523 24.44 79.5256 24.44C78.7523 24.44 78.3656 24.6267 78.3656 25C78.3656 25.2933 78.619 25.6133 79.1256 25.96C79.6323 26.28 80.2723 26.44 81.0456 26.44Z" fill="#53974A"/>
</svg>
