<svg width="54" height="25" viewBox="0 0 54 25" fill="none" xmlns="http://www.w3.org/2000/svg">
<path d="M3.94 24.3C3.48 24.3 2.95 24.25 2.35 24.15C1.77 24.07 1.26 23.89 0.82 23.61C0.4 23.35 0.19 22.96 0.19 22.44C0.19 21.98 0.34 21.51 0.64 21.03C0.96 20.57 1.35 20.13 1.81 19.71C2.29 19.29 2.79 18.92 3.31 18.6C3.85 18.26 4.33 17.99 4.75 17.79C5.13 16.89 5.62 15.91 6.22 14.85C6.84 13.77 7.53 12.7 8.29 11.64C9.07 10.56 9.88 9.56 10.72 8.64C11.58 7.7 12.43 6.9 13.27 6.24C13.45 6.1 13.74 5.9 14.14 5.64C14.54 5.38 14.87 5.25 15.13 5.25C15.45 5.25 15.61 5.39 15.61 5.67C15.61 5.77 15.58 5.85 15.52 5.91C15.46 5.97 15.38 6.02 15.28 6.06C15.02 6.18 14.78 6.31 14.56 6.45C14.34 6.57 14.12 6.71 13.9 6.87C13.12 7.43 12.35 8.14 11.59 9C10.83 9.84 10.1 10.74 9.4 11.7C8.72 12.66 8.09 13.62 7.51 14.58C6.95 15.54 6.48 16.42 6.1 17.22C6.92 16.94 7.82 16.73 8.8 16.59C9.78 16.45 10.71 16.38 11.59 16.38C11.83 16.38 12.15 16.4 12.55 16.44C12.95 16.46 13.35 16.51 13.75 16.59C14.17 16.67 14.52 16.8 14.8 16.98C15.08 17.16 15.22 17.4 15.22 17.7C15.22 18 15.06 18.15 14.74 18.15C14.6 18.15 14.5 18.12 14.44 18.06C14.38 18 14.32 17.93 14.26 17.85C14.06 17.57 13.7 17.4 13.18 17.34C12.68 17.28 12.23 17.25 11.83 17.25C10.75 17.25 9.68 17.33 8.62 17.49C7.58 17.65 6.58 17.94 5.62 18.36C5.48 18.72 5.36 19.1 5.26 19.5C5.16 19.9 5.11 20.29 5.11 20.67C5.11 21.19 5.18 21.52 5.32 21.66C5.48 21.8 5.63 21.88 5.77 21.9C5.91 21.94 5.98 22.07 5.98 22.29C5.98 22.41 5.94 22.52 5.86 22.62C5.78 22.72 5.66 22.77 5.5 22.77C5.18 22.77 4.91 22.66 4.69 22.44C4.49 22.22 4.34 21.95 4.24 21.63C4.16 21.33 4.12 21.07 4.12 20.85C4.12 20.53 4.15 20.22 4.21 19.92C4.27 19.6 4.34 19.29 4.42 18.99C4.08 19.17 3.65 19.44 3.13 19.8C2.63 20.16 2.19 20.56 1.81 21C1.43 21.42 1.24 21.84 1.24 22.26C1.24 22.6 1.4 22.85 1.72 23.01C2.06 23.19 2.44 23.3 2.86 23.34C3.28 23.4 3.63 23.43 3.91 23.43C4.73 23.43 5.65 23.33 6.67 23.13C7.71 22.95 8.78 22.68 9.88 22.32C11 21.98 12.08 21.56 13.12 21.06C14.18 20.56 15.13 20 15.97 19.38C16.81 18.74 17.48 18.05 17.98 17.31C18.48 16.57 18.73 15.79 18.73 14.97C18.73 13.99 18.35 13.16 17.59 12.48C16.85 11.78 15.97 11.28 14.95 10.98C14.73 10.92 14.5 10.88 14.26 10.86C14.04 10.82 13.82 10.78 13.6 10.74C13.46 10.7 13.34 10.65 13.24 10.59C13.16 10.53 13.12 10.43 13.12 10.29C13.12 10.07 13.27 9.93 13.57 9.87C13.85 9.81 14.12 9.77 14.38 9.75C14.66 9.73 14.93 9.69 15.19 9.63C15.87 9.49 16.58 9.3 17.32 9.06C18.06 8.8 18.76 8.49 19.42 8.13C20.08 7.75 20.62 7.31 21.04 6.81C21.26 6.53 21.43 6.24 21.55 5.94C21.69 5.64 21.76 5.33 21.76 5.01C21.76 4.41 21.57 3.89 21.19 3.45C20.81 3.01 20.32 2.65 19.72 2.37C19.14 2.07 18.52 1.84 17.86 1.68C17.2 1.5 16.59 1.38 16.03 1.32C15.35 1.26 14.65 1.23 13.93 1.23C12.37 1.23 10.83 1.43 9.31 1.83C7.81 2.21 6.44 2.82 5.2 3.66C4.56 4.08 3.92 4.6 3.28 5.22C2.66 5.84 2.14 6.51 1.72 7.23C1.32 7.93 1.12 8.66 1.12 9.42C1.12 9.78 1.19 10.05 1.33 10.23C1.47 10.39 1.6 10.52 1.72 10.62C1.86 10.7 1.93 10.81 1.93 10.95C1.93 11.07 1.88 11.18 1.78 11.28C1.68 11.38 1.56 11.43 1.42 11.43C1.14 11.43 0.9 11.31 0.7 11.07C0.52 10.81 0.38 10.52 0.28 10.2C0.18 9.88 0.13 9.63 0.13 9.45C0.13 8.61 0.35 7.79 0.79 6.99C1.25 6.19 1.82 5.45 2.5 4.77C3.18 4.07 3.88 3.48 4.6 3C5.96 2.1 7.45 1.44 9.07 1.02C10.69 0.599999 12.35 0.389999 14.05 0.389999C14.77 0.389999 15.47 0.419999 16.15 0.48C16.85 0.539999 17.58 0.679999 18.34 0.899999C19.12 1.1 19.84 1.39 20.5 1.77C21.16 2.13 21.7 2.58 22.12 3.12C22.54 3.64 22.75 4.26 22.75 4.98C22.75 5.74 22.53 6.42 22.09 7.02C21.65 7.6 21.08 8.11 20.38 8.55C19.7 8.97 18.96 9.33 18.16 9.63C17.38 9.93 16.63 10.17 15.91 10.35C16.97 10.79 17.87 11.4 18.61 12.18C19.35 12.96 19.72 13.88 19.72 14.94C19.72 15.86 19.46 16.73 18.94 17.55C18.42 18.37 17.72 19.13 16.84 19.83C15.98 20.51 15 21.13 13.9 21.69C12.8 22.25 11.65 22.72 10.45 23.1C9.27 23.48 8.12 23.77 7 23.97C5.88 24.19 4.86 24.3 3.94 24.3ZM22.5348 21.69C21.9948 21.69 21.5648 21.55 21.2448 21.27C20.9248 20.99 20.6848 20.65 20.5248 20.25C20.3848 19.83 20.3148 19.44 20.3148 19.08C20.3148 18.6 20.4048 18.07 20.5848 17.49C20.7648 16.89 20.9248 16.48 21.0648 16.26C21.0648 16.2 21.0548 16.14 21.0348 16.08C21.0348 16 21.0348 15.93 21.0348 15.87C21.0348 15.33 21.1148 14.77 21.2748 14.19C21.4548 13.51 21.7748 12.89 22.2348 12.33C22.6948 11.75 23.2648 11.28 23.9448 10.92C24.6448 10.56 25.4048 10.38 26.2248 10.38C27.1848 10.38 27.9248 10.64 28.4448 11.16C28.9648 11.66 29.2248 12.32 29.2248 13.14C29.2248 14.28 29.0148 15.26 28.5948 16.08C28.1948 16.9 27.7648 17.69 27.3048 18.45C27.2248 18.61 27.1548 18.74 27.0948 18.84C27.0348 18.94 27.0948 18.99 27.2748 18.99C27.8548 18.99 28.4248 18.75 28.9848 18.27C29.5448 17.79 30.2548 16.88 31.1148 15.54C31.1748 15.44 31.2348 15.36 31.2948 15.3C31.3548 15.24 31.4448 15.21 31.5648 15.21H31.6248C31.8448 15.21 31.9748 15.34 32.0148 15.6C32.0148 15.66 31.9948 15.73 31.9548 15.81C31.4548 16.69 30.9448 17.45 30.4248 18.09C29.9248 18.73 29.3248 19.22 28.6248 19.56C27.9248 19.88 27.0448 20.05 25.9848 20.07C25.5648 20.47 25.0448 20.84 24.4248 21.18C23.8248 21.52 23.1948 21.69 22.5348 21.69ZM25.4148 18.93H25.7148C26.1348 18.43 26.5348 17.86 26.9148 17.22C27.3148 16.58 27.6348 15.92 27.8748 15.24C28.1148 14.54 28.2348 13.88 28.2348 13.26C28.2348 12.68 28.0848 12.19 27.7848 11.79C27.4848 11.37 26.9648 11.16 26.2248 11.16C25.7248 11.16 25.2348 11.27 24.7548 11.49C24.2948 11.69 23.8948 11.94 23.5548 12.24L23.6448 12.36C23.6848 12.34 23.7448 12.33 23.8248 12.33C23.9448 12.33 24.0548 12.38 24.1548 12.48C24.2548 12.56 24.3048 12.65 24.3048 12.75C24.3048 12.81 24.2948 12.86 24.2748 12.9C24.2548 12.94 24.2248 12.98 24.1848 13.02C23.8448 13.52 23.5148 13.99 23.1948 14.43C22.8748 14.87 22.5748 15.37 22.2948 15.93C22.2348 16.07 22.1648 16.21 22.0848 16.35C22.2448 17.09 22.6148 17.71 23.1948 18.21C23.7948 18.69 24.5348 18.93 25.4148 18.93ZM22.7148 20.85C23.1148 20.85 23.5148 20.73 23.9148 20.49C24.3148 20.23 24.6548 19.99 24.9348 19.77C23.4148 19.61 22.2948 18.94 21.5748 17.76C21.5548 17.9 21.5148 18.11 21.4548 18.39C21.3948 18.67 21.3648 18.95 21.3648 19.23C21.3648 19.63 21.4548 20 21.6348 20.34C21.8148 20.68 22.1748 20.85 22.7148 20.85ZM32.7888 21.69C32.2488 21.69 31.8188 21.55 31.4988 21.27C31.1788 20.99 30.9388 20.65 30.7788 20.25C30.6388 19.83 30.5688 19.44 30.5688 19.08C30.5688 18.6 30.6588 18.07 30.8388 17.49C31.0188 16.89 31.1788 16.48 31.3188 16.26C31.3188 16.2 31.3088 16.14 31.2888 16.08C31.2888 16 31.2888 15.93 31.2888 15.87C31.2888 15.33 31.3688 14.77 31.5288 14.19C31.7088 13.51 32.0288 12.89 32.4888 12.33C32.9488 11.75 33.5188 11.28 34.1988 10.92C34.8988 10.56 35.6588 10.38 36.4788 10.38C37.4388 10.38 38.1788 10.64 38.6988 11.16C39.2188 11.66 39.4788 12.32 39.4788 13.14C39.4788 14.28 39.2688 15.26 38.8488 16.08C38.4488 16.9 38.0188 17.69 37.5588 18.45C37.4788 18.61 37.4088 18.74 37.3488 18.84C37.2888 18.94 37.3488 18.99 37.5288 18.99C38.1088 18.99 38.6788 18.75 39.2388 18.27C39.7988 17.79 40.5088 16.88 41.3688 15.54C41.4288 15.44 41.4888 15.36 41.5488 15.3C41.6088 15.24 41.6988 15.21 41.8188 15.21H41.8788C42.0988 15.21 42.2288 15.34 42.2688 15.6C42.2688 15.66 42.2488 15.73 42.2088 15.81C41.7088 16.69 41.1988 17.45 40.6788 18.09C40.1788 18.73 39.5788 19.22 38.8788 19.56C38.1788 19.88 37.2988 20.05 36.2388 20.07C35.8188 20.47 35.2988 20.84 34.6788 21.18C34.0788 21.52 33.4488 21.69 32.7888 21.69ZM35.6688 18.93H35.9688C36.3888 18.43 36.7888 17.86 37.1688 17.22C37.5688 16.58 37.8888 15.92 38.1288 15.24C38.3688 14.54 38.4888 13.88 38.4888 13.26C38.4888 12.68 38.3388 12.19 38.0388 11.79C37.7388 11.37 37.2188 11.16 36.4788 11.16C35.9788 11.16 35.4888 11.27 35.0088 11.49C34.5488 11.69 34.1488 11.94 33.8088 12.24L33.8988 12.36C33.9388 12.34 33.9988 12.33 34.0788 12.33C34.1988 12.33 34.3088 12.38 34.4088 12.48C34.5088 12.56 34.5588 12.65 34.5588 12.75C34.5588 12.81 34.5488 12.86 34.5288 12.9C34.5088 12.94 34.4788 12.98 34.4388 13.02C34.0988 13.52 33.7688 13.99 33.4488 14.43C33.1288 14.87 32.8288 15.37 32.5488 15.93C32.4888 16.07 32.4188 16.21 32.3388 16.35C32.4988 17.09 32.8688 17.71 33.4488 18.21C34.0488 18.69 34.7888 18.93 35.6688 18.93ZM32.9688 20.85C33.3688 20.85 33.7688 20.73 34.1688 20.49C34.5688 20.23 34.9088 19.99 35.1888 19.77C33.6688 19.61 32.5488 18.94 31.8288 17.76C31.8088 17.9 31.7688 18.11 31.7088 18.39C31.6488 18.67 31.6188 18.95 31.6188 19.23C31.6188 19.63 31.7088 20 31.8888 20.34C32.0688 20.68 32.4288 20.85 32.9688 20.85ZM41.1827 21.03C40.8627 21.03 40.7027 20.89 40.7027 20.61C40.7027 20.57 40.7827 20.35 40.9427 19.95C41.1227 19.55 41.3327 19.09 41.5727 18.57C41.8127 18.05 42.0327 17.57 42.2327 17.13C42.4327 16.67 42.5627 16.38 42.6227 16.26C42.6027 16.16 42.5427 15.96 42.4427 15.66C42.3627 15.34 42.3227 15.04 42.3227 14.76C42.3227 14.54 42.3627 14.36 42.4427 14.22C42.5227 14.06 42.6627 13.98 42.8627 13.98C42.9627 13.98 43.0727 14.04 43.1927 14.16C43.3327 14.28 43.4327 14.36 43.4927 14.4C43.6527 14.1 43.7927 13.8 43.9127 13.5C44.0327 13.2 44.1627 12.9 44.3027 12.6C44.9827 11.02 45.6327 9.49 46.2527 8.01C46.8727 6.51 47.5527 4.98 48.2927 3.42C48.3927 3.24 48.5227 3.1 48.6827 3C48.8627 2.9 49.0227 2.85 49.1627 2.85C49.4627 2.85 49.6127 2.98 49.6127 3.24C49.6127 3.4 49.5027 3.76 49.2827 4.32C49.0827 4.86 48.8027 5.51 48.4427 6.27C48.1027 7.03 47.7327 7.83 47.3327 8.67C46.9327 9.49 46.5427 10.29 46.1627 11.07C45.7827 11.83 45.4527 12.49 45.1727 13.05C44.8927 13.61 44.7027 13.99 44.6027 14.19L44.7527 14.25C45.3527 13.43 46.0127 12.67 46.7327 11.97C47.4727 11.25 48.3427 10.66 49.3427 10.2C49.9627 9.92 50.5227 9.78 51.0227 9.78C51.4627 9.78 51.8127 9.88 52.0727 10.08C52.3527 10.28 52.4927 10.55 52.4927 10.89C52.4927 11.29 52.2927 11.75 51.8927 12.27C51.5727 12.67 51.1527 13.05 50.6327 13.41C50.1327 13.77 49.6227 14.08 49.1027 14.34C48.5827 14.6 48.1127 14.8 47.6927 14.94C47.2527 15.08 46.8127 15.19 46.3727 15.27C45.9527 15.35 45.5127 15.43 45.0527 15.51C44.8327 15.53 44.6227 15.63 44.4227 15.81C44.2427 15.97 44.1327 16.13 44.0927 16.29C44.2127 16.77 44.4327 17.31 44.7527 17.91C45.0727 18.51 45.4827 19.03 45.9827 19.47C46.4827 19.89 47.0627 20.1 47.7227 20.1C48.3827 20.1 48.9727 19.87 49.4927 19.41C50.0327 18.95 50.5427 18.37 51.0227 17.67C51.5227 16.95 52.0427 16.22 52.5827 15.48C52.6827 15.36 52.8127 15.3 52.9727 15.3H53.0327C53.2327 15.3 53.3327 15.45 53.3327 15.75C53.3327 15.83 53.3027 15.92 53.2427 16.02C53.0227 16.36 52.7327 16.8 52.3727 17.34C52.0127 17.88 51.5927 18.43 51.1127 18.99C50.6527 19.53 50.1327 19.99 49.5527 20.37C48.9727 20.75 48.3627 20.94 47.7227 20.94C46.9627 20.94 46.2827 20.77 45.6827 20.43C45.1027 20.09 44.6127 19.65 44.2127 19.11C43.8327 18.55 43.5527 17.98 43.3727 17.4C43.0727 17.96 42.7927 18.53 42.5327 19.11C42.2927 19.69 42.0027 20.24 41.6627 20.76C41.6227 20.82 41.5527 20.88 41.4527 20.94C41.3727 21 41.2827 21.03 41.1827 21.03ZM45.8327 14.49C46.2727 14.43 46.7827 14.32 47.3627 14.16C47.9627 13.98 48.5527 13.75 49.1327 13.47C49.7127 13.19 50.1927 12.86 50.5727 12.48C50.7727 12.28 50.9427 12.06 51.0827 11.82C51.2227 11.56 51.2927 11.33 51.2927 11.13C51.2927 10.83 51.1427 10.68 50.8427 10.68C50.5427 10.68 50.0527 10.87 49.3727 11.25C48.6527 11.67 47.9927 12.16 47.3927 12.72C46.8127 13.26 46.2927 13.85 45.8327 14.49Z" fill="#53974A"/>
</svg>
