<svg width="111" height="32" viewBox="0 0 111 32" fill="none" xmlns="http://www.w3.org/2000/svg">
<path d="M9.16 23.79C7.52 23.79 6.07 23.45 4.81 22.77C3.57 22.09 2.59 21.18 1.87 20.04C1.17 18.88 0.82 17.61 0.82 16.23C0.82 15.21 0.99 14.19 1.33 13.17C1.67 12.13 2.13 11.13 2.71 10.17C3.29 9.21 3.94 8.35 4.66 7.59C4.58 7.41 4.52 7.23 4.48 7.05C4.44 6.85 4.42 6.66 4.42 6.48V6.36C4.42 6.2 4.44 6.06 4.48 5.94C4.54 5.8 4.67 5.73 4.87 5.73C5.03 5.73 5.16 5.77 5.26 5.85C5.38 5.93 5.44 6.04 5.44 6.18C5.44 6.3 5.43 6.42 5.41 6.54C5.41 6.64 5.41 6.75 5.41 6.87C6.97 5.37 8.8 4.12 10.9 3.12C13.02 2.1 15.23 1.43 17.53 1.11C17.83 1.07 18.13 1.04 18.43 1.02C18.73 0.999999 19.03 0.989998 19.33 0.989998C20.13 0.989998 20.93 1.1 21.73 1.32C22.55 1.54 23.23 1.89 23.77 2.37C24.33 2.85 24.61 3.5 24.61 4.32C24.61 4.78 24.51 5.23 24.31 5.67C24.11 6.11 23.85 6.51 23.53 6.87C22.73 7.81 21.71 8.56 20.47 9.12C19.23 9.68 17.9 10.08 16.48 10.32C15.08 10.54 13.74 10.65 12.46 10.65C11.68 10.65 10.83 10.57 9.91 10.41C9.01 10.23 8.14 9.97 7.3 9.63C6.48 9.27 5.8 8.83 5.26 8.31C4.3 9.43 3.49 10.66 2.83 12C2.17 13.34 1.84 14.72 1.84 16.14C1.84 17.38 2.15 18.51 2.77 19.53C3.39 20.55 4.25 21.35 5.35 21.93C6.47 22.53 7.76 22.83 9.22 22.83C10.32 22.83 11.47 22.62 12.67 22.2C13.87 21.8 15.1 21.06 16.36 19.98C17.64 18.9 18.92 17.38 20.2 15.42C20.26 15.32 20.37 15.25 20.53 15.21C20.85 15.21 21.01 15.35 21.01 15.63C21.01 15.71 20.98 15.8 20.92 15.9C20.1 17.36 19.11 18.69 17.95 19.89C16.81 21.07 15.5 22.01 14.02 22.71C12.56 23.43 10.94 23.79 9.16 23.79ZM12.46 9.78C13.6 9.78 14.81 9.69 16.09 9.51C17.37 9.31 18.59 8.98 19.75 8.52C20.91 8.06 21.86 7.43 22.6 6.63C22.88 6.31 23.11 5.96 23.29 5.58C23.49 5.2 23.59 4.81 23.59 4.41C23.59 3.75 23.37 3.24 22.93 2.88C22.49 2.5 21.95 2.23 21.31 2.07C20.67 1.91 20.03 1.83 19.39 1.83C19.13 1.83 18.86 1.84 18.58 1.86C18.3 1.88 18.02 1.91 17.74 1.95C15.5 2.27 13.33 2.95 11.23 3.99C9.13 5.01 7.34 6.26 5.86 7.74C6.26 8.22 6.85 8.61 7.63 8.91C8.43 9.21 9.27 9.43 10.15 9.57C11.03 9.71 11.8 9.78 12.46 9.78ZM21.8317 21.69C21.2917 21.69 20.8617 21.55 20.5417 21.27C20.2217 20.99 19.9817 20.65 19.8217 20.25C19.6817 19.83 19.6117 19.44 19.6117 19.08C19.6117 18.6 19.7017 18.07 19.8817 17.49C20.0617 16.89 20.2217 16.48 20.3617 16.26C20.3617 16.2 20.3517 16.14 20.3317 16.08C20.3317 16 20.3317 15.93 20.3317 15.87C20.3317 15.33 20.4117 14.77 20.5717 14.19C20.7517 13.51 21.0717 12.89 21.5317 12.33C21.9917 11.75 22.5617 11.28 23.2417 10.92C23.9417 10.56 24.7017 10.38 25.5217 10.38C26.4817 10.38 27.2217 10.64 27.7417 11.16C28.2617 11.66 28.5217 12.32 28.5217 13.14C28.5217 14.28 28.3117 15.26 27.8917 16.08C27.4917 16.9 27.0617 17.69 26.6017 18.45C26.5217 18.61 26.4517 18.74 26.3917 18.84C26.3317 18.94 26.3917 18.99 26.5717 18.99C27.1517 18.99 27.7217 18.75 28.2817 18.27C28.8417 17.79 29.5517 16.88 30.4117 15.54C30.4717 15.44 30.5317 15.36 30.5917 15.3C30.6517 15.24 30.7417 15.21 30.8617 15.21H30.9217C31.1417 15.21 31.2717 15.34 31.3117 15.6C31.3117 15.66 31.2917 15.73 31.2517 15.81C30.7517 16.69 30.2417 17.45 29.7217 18.09C29.2217 18.73 28.6217 19.22 27.9217 19.56C27.2217 19.88 26.3417 20.05 25.2817 20.07C24.8617 20.47 24.3417 20.84 23.7217 21.18C23.1217 21.52 22.4917 21.69 21.8317 21.69ZM24.7117 18.93H25.0117C25.4317 18.43 25.8317 17.86 26.2117 17.22C26.6117 16.58 26.9317 15.92 27.1717 15.24C27.4117 14.54 27.5317 13.88 27.5317 13.26C27.5317 12.68 27.3817 12.19 27.0817 11.79C26.7817 11.37 26.2617 11.16 25.5217 11.16C25.0217 11.16 24.5317 11.27 24.0517 11.49C23.5917 11.69 23.1917 11.94 22.8517 12.24L22.9417 12.36C22.9817 12.34 23.0417 12.33 23.1217 12.33C23.2417 12.33 23.3517 12.38 23.4517 12.48C23.5517 12.56 23.6017 12.65 23.6017 12.75C23.6017 12.81 23.5917 12.86 23.5717 12.9C23.5517 12.94 23.5217 12.98 23.4817 13.02C23.1417 13.52 22.8117 13.99 22.4917 14.43C22.1717 14.87 21.8717 15.37 21.5917 15.93C21.5317 16.07 21.4617 16.21 21.3817 16.35C21.5417 17.09 21.9117 17.71 22.4917 18.21C23.0917 18.69 23.8317 18.93 24.7117 18.93ZM22.0117 20.85C22.4117 20.85 22.8117 20.73 23.2117 20.49C23.6117 20.23 23.9517 19.99 24.2317 19.77C22.7117 19.61 21.5917 18.94 20.8717 17.76C20.8517 17.9 20.8117 18.11 20.7517 18.39C20.6917 18.67 20.6617 18.95 20.6617 19.23C20.6617 19.63 20.7517 20 20.9317 20.34C21.1117 20.68 21.4717 20.85 22.0117 20.85ZM32.2056 21.54C32.1056 21.54 31.9956 21.51 31.8756 21.45C31.7556 21.39 31.6956 21.31 31.6956 21.21C31.6956 21.15 31.7056 21.08 31.7256 21C31.7456 20.92 31.7656 20.85 31.7856 20.79C32.0056 20.29 32.3156 19.65 32.7156 18.87C33.1156 18.09 33.5356 17.27 33.9756 16.41C34.4156 15.53 34.7856 14.72 35.0856 13.98C35.3856 13.24 35.5356 12.67 35.5356 12.27C35.5356 12.15 35.5056 12.04 35.4456 11.94C35.4056 11.82 35.3056 11.76 35.1456 11.76C34.8856 11.76 34.5756 11.89 34.2156 12.15C33.8756 12.39 33.5256 12.72 33.1656 13.14C32.9656 13.38 32.7056 13.73 32.3856 14.19C32.0656 14.63 31.7356 15.11 31.3956 15.63C31.0556 16.13 30.7356 16.6 30.4356 17.04C30.1556 17.48 29.9356 17.79 29.7756 17.97C29.6356 18.17 29.4656 18.27 29.2656 18.27C29.1256 18.27 29.0256 18.22 28.9656 18.12C28.8856 18.02 28.8856 17.9 28.9656 17.76C29.1256 17.46 29.3656 17.06 29.6856 16.56C30.0256 16.06 30.3756 15.54 30.7356 15C31.0956 14.46 31.4256 13.98 31.7256 13.56C32.0256 13.14 32.2156 12.87 32.2956 12.75C32.6356 12.31 33.0456 11.89 33.5256 11.49C34.0256 11.09 34.5956 10.89 35.2356 10.89C36.1556 10.89 36.6156 11.3 36.6156 12.12C36.6156 12.5 36.5256 12.94 36.3456 13.44C36.1656 13.94 35.9056 14.52 35.5656 15.18C36.2056 14.52 36.7556 13.98 37.2156 13.56C37.6956 13.14 38.1656 12.75 38.6256 12.39C39.0856 12.01 39.5656 11.82 40.0656 11.82C40.4856 11.82 40.8356 11.97 41.1156 12.27C41.4156 12.57 41.5656 13.01 41.5656 13.59C41.5656 13.77 41.5456 13.98 41.5056 14.22C41.4856 14.44 41.4256 14.75 41.3256 15.15C42.0056 14.41 42.7256 13.76 43.4856 13.2C44.2656 12.64 44.9856 12.18 45.6456 11.82C46.3256 11.44 46.8556 11.2 47.2356 11.1C47.4356 11.04 47.6256 10.99 47.8056 10.95C48.0056 10.91 48.1856 10.89 48.3456 10.89C48.5456 10.89 48.7056 10.94 48.8256 11.04C48.9456 11.14 49.0056 11.33 49.0056 11.61C49.0056 11.89 48.8256 12.29 48.4656 12.81C48.1056 13.31 47.6656 13.89 47.1456 14.55C46.6456 15.19 46.1656 15.84 45.7056 16.5C45.2456 17.16 44.9156 17.78 44.7156 18.36C44.6156 18.7 44.5656 18.95 44.5656 19.11C44.5656 19.65 44.8156 19.92 45.3156 19.92C45.6556 19.92 46.0656 19.76 46.5456 19.44C47.0656 19.1 47.6256 18.55 48.2256 17.79C48.8256 17.03 49.3856 16.25 49.9056 15.45C50.0256 15.27 50.1856 15.18 50.3856 15.18C50.5256 15.18 50.6156 15.22 50.6556 15.3C50.6956 15.36 50.7156 15.42 50.7156 15.48C50.7156 15.58 50.6156 15.82 50.4156 16.2C50.2356 16.58 49.9256 17.06 49.4856 17.64C48.9256 18.38 48.4156 18.97 47.9556 19.41C47.5156 19.83 47.1556 20.12 46.8756 20.28C46.6156 20.44 46.3456 20.56 46.0656 20.64C45.7856 20.7 45.5056 20.73 45.2256 20.73C44.5856 20.73 44.1256 20.6 43.8456 20.34C43.5656 20.06 43.4256 19.73 43.4256 19.35C43.4256 18.83 43.5956 18.24 43.9356 17.58C44.2956 16.92 44.7156 16.26 45.1956 15.6C45.6756 14.92 46.1256 14.31 46.5456 13.77C46.9856 13.23 47.2856 12.84 47.4456 12.6C47.5256 12.5 47.5656 12.4 47.5656 12.3C47.5656 12.14 47.4556 12.06 47.2356 12.06C47.1156 12.06 46.9756 12.09 46.8156 12.15C45.9956 12.49 45.1856 12.96 44.3856 13.56C43.5856 14.14 42.8656 14.73 42.2256 15.33C41.6056 15.93 41.1256 16.43 40.7856 16.83C40.7056 17.11 40.5956 17.49 40.4556 17.97C40.3156 18.43 40.1256 18.84 39.8856 19.2C39.6456 19.56 39.3356 19.74 38.9556 19.74C38.7756 19.74 38.6256 19.68 38.5056 19.56C38.4056 19.42 38.3556 19.28 38.3556 19.14C38.3556 18.62 38.5156 18.14 38.8356 17.7C39.1556 17.26 39.5256 16.85 39.9456 16.47C40.0456 16.13 40.1856 15.69 40.3656 15.15C40.5456 14.59 40.6356 14.12 40.6356 13.74C40.6356 13.42 40.5556 13.17 40.3956 12.99C40.2556 12.81 40.0756 12.72 39.8556 12.72C39.5956 12.72 39.3356 12.82 39.0756 13.02C38.0956 13.7 37.2256 14.54 36.4656 15.54C35.7056 16.52 35.0256 17.48 34.4256 18.42C34.1056 18.88 33.8056 19.36 33.5256 19.86C33.2656 20.36 32.9756 20.84 32.6556 21.3C32.5956 21.38 32.5356 21.44 32.4756 21.48C32.4156 21.52 32.3256 21.54 32.2056 21.54ZM44.1287 31.23C43.7487 31.23 43.4787 31.12 43.3187 30.9C43.1387 30.7 43.0487 30.44 43.0487 30.12C43.0487 29.72 43.1387 29.27 43.3187 28.77C43.4787 28.29 43.6787 27.8 43.9187 27.3C44.1387 26.8 44.3587 26.36 44.5787 25.98C44.7987 25.6 44.9587 25.32 45.0587 25.14C45.5587 24.28 46.0887 23.44 46.6487 22.62C47.2087 21.8 47.7987 20.99 48.4187 20.19C48.9988 19.45 49.5888 18.72 50.1888 18C50.7888 17.26 51.4188 16.55 52.0788 15.87C52.1388 15.51 52.1788 15.14 52.1988 14.76C52.2188 14.38 52.2288 14 52.2288 13.62C52.2288 13.4 52.2288 13.19 52.2288 12.99C52.2288 12.79 52.2188 12.6 52.1988 12.42C52.1788 12.26 52.1388 12.1 52.0788 11.94C52.0188 11.78 51.9588 11.63 51.8988 11.49C51.8988 11.45 51.8888 11.41 51.8688 11.37C51.8688 11.33 51.8688 11.3 51.8688 11.28C51.8688 11.16 51.9888 11.06 52.2288 10.98C52.4688 10.9 52.6588 10.86 52.7988 10.86C53.1188 10.86 53.3088 11.04 53.3688 11.4C53.4288 11.74 53.4588 12.02 53.4588 12.24C53.4588 12.66 53.4288 13.08 53.3688 13.5C53.3288 13.9 53.2888 14.3 53.2488 14.7C53.4688 14.48 53.7688 14.2 54.1488 13.86C54.5488 13.5 54.9688 13.14 55.4088 12.78C55.8688 12.42 56.3188 12.12 56.7588 11.88C57.2188 11.64 57.6288 11.52 57.9888 11.52C58.5688 11.52 59.0088 11.73 59.3088 12.15C59.6288 12.55 59.8388 13.01 59.9388 13.53C60.0588 14.05 60.1088 14.5 60.0888 14.88C60.2688 14.84 60.6088 14.81 61.1088 14.79C61.6288 14.75 62.0488 14.73 62.3688 14.73C62.6288 14.73 62.7888 14.77 62.8488 14.85C62.9288 14.91 62.9688 14.99 62.9688 15.09C62.9688 15.15 62.9388 15.22 62.8788 15.3C62.8188 15.38 62.7088 15.43 62.5488 15.45C62.3088 15.47 62.0088 15.51 61.6488 15.57C61.3088 15.61 60.9788 15.66 60.6588 15.72C60.3388 15.76 60.0988 15.81 59.9388 15.87C59.7788 16.55 59.4588 17.25 58.9788 17.97C58.4988 18.67 57.9088 19.33 57.2088 19.95C56.5088 20.55 55.7488 21.03 54.9288 21.39C54.1088 21.77 53.2788 21.96 52.4388 21.96C52.1988 21.96 51.9388 21.93 51.6588 21.87L51.4788 22.32C51.1788 23 50.7788 23.81 50.2788 24.75C49.7988 25.71 49.2388 26.64 48.5987 27.54C48.4187 27.78 48.1687 28.1 47.8487 28.5C47.5287 28.92 47.1687 29.33 46.7687 29.73C46.3487 30.15 45.9087 30.5 45.4487 30.78C44.9887 31.08 44.5487 31.23 44.1287 31.23ZM52.7988 17.73C53.7788 17.07 54.7788 16.53 55.7988 16.11C56.8188 15.69 57.9188 15.35 59.0988 15.09C59.1588 14.75 59.1888 14.42 59.1888 14.1C59.1888 13.9 59.1588 13.67 59.0988 13.41C59.0588 13.13 58.9588 12.88 58.7988 12.66C58.6588 12.44 58.4388 12.33 58.1388 12.33C57.8188 12.33 57.4088 12.5 56.9088 12.84C56.4288 13.16 55.9188 13.55 55.3788 14.01C54.8588 14.47 54.3788 14.91 53.9388 15.33C53.4988 15.75 53.1888 16.06 53.0088 16.26L52.7988 17.73ZM52.6787 21.12C53.4788 21.12 54.2588 20.9 55.0188 20.46C55.7988 20 56.4888 19.45 57.0888 18.81C57.7088 18.17 58.1688 17.57 58.4688 17.01C58.5488 16.85 58.6188 16.69 58.6788 16.53C58.7388 16.37 58.8088 16.22 58.8888 16.08C57.6288 16.4 56.4788 16.8 55.4388 17.28C54.4188 17.74 53.4188 18.35 52.4388 19.11C52.3588 19.43 52.2788 19.75 52.1988 20.07C52.1388 20.37 52.0588 20.68 51.9588 21C52.1388 21.08 52.3788 21.12 52.6787 21.12ZM44.3987 30.24C44.6787 30.24 45.0087 30.08 45.3887 29.76C45.7487 29.46 46.1287 29.09 46.5287 28.65C46.9087 28.21 47.2487 27.79 47.5487 27.39C47.8487 26.99 48.0587 26.7 48.1787 26.52C48.7987 25.58 49.3388 24.62 49.7988 23.64C50.2588 22.68 50.5688 21.89 50.7288 21.27C50.6688 21.17 50.6288 21.06 50.6088 20.94C50.5888 20.82 50.5788 20.7 50.5788 20.58C50.5788 20.22 50.6688 19.87 50.8488 19.53C51.0288 19.19 51.2588 18.89 51.5388 18.63C51.5788 18.49 51.6188 18.34 51.6588 18.18C51.6988 18.02 51.7288 17.86 51.7488 17.7C51.1888 18.34 50.7088 18.89 50.3088 19.35C49.9288 19.81 49.5688 20.26 49.2288 20.7C48.6088 21.5 48.0187 22.31 47.4587 23.13C46.8987 23.95 46.3687 24.8 45.8687 25.68C45.7687 25.86 45.6187 26.13 45.4187 26.49C45.2187 26.85 45.0187 27.24 44.8187 27.66C44.5987 28.1 44.4187 28.51 44.2787 28.89C44.1387 29.29 44.0687 29.61 44.0687 29.85C44.0687 30.11 44.1787 30.24 44.3987 30.24ZM63.553 21.12C62.893 21.12 62.433 20.95 62.173 20.61C61.933 20.25 61.813 19.82 61.813 19.32C61.813 18.84 61.893 18.34 62.053 17.82C62.213 17.3 62.383 16.82 62.563 16.38C62.763 15.92 62.923 15.58 63.043 15.36C63.403 14.74 63.803 14.14 64.243 13.56C64.703 12.98 65.193 12.47 65.713 12.03C66.233 11.57 66.763 11.22 67.303 10.98C67.863 10.72 68.423 10.59 68.983 10.59C69.943 10.59 70.623 10.85 71.023 11.37C71.423 11.87 71.623 12.41 71.623 12.99C71.623 13.19 71.593 13.4 71.533 13.62C71.453 13.92 71.353 14.18 71.233 14.4C71.133 14.62 71.003 14.73 70.843 14.73C70.703 14.73 70.573 14.66 70.453 14.52C70.333 14.38 70.293 14.24 70.333 14.1C70.373 13.96 70.423 13.82 70.483 13.68C70.563 13.54 70.613 13.4 70.633 13.26C70.653 13.16 70.663 13.07 70.663 12.99C70.683 12.91 70.693 12.83 70.693 12.75C70.693 12.21 70.513 11.84 70.153 11.64C69.813 11.42 69.443 11.31 69.043 11.31C68.583 11.31 68.103 11.44 67.603 11.7C67.123 11.96 66.703 12.26 66.343 12.6C65.903 13.04 65.463 13.55 65.023 14.13C64.583 14.71 64.203 15.3 63.883 15.9C63.843 16 63.733 16.24 63.553 16.62C63.393 17 63.233 17.43 63.073 17.91C62.933 18.37 62.863 18.8 62.863 19.2C62.863 19.48 62.923 19.72 63.043 19.92C63.183 20.12 63.413 20.22 63.733 20.22C64.073 20.22 64.463 20.06 64.903 19.74C65.363 19.42 65.823 19.03 66.283 18.57C66.763 18.09 67.193 17.63 67.573 17.19C67.953 16.75 68.233 16.41 68.413 16.17C68.533 16.01 68.643 15.84 68.743 15.66C68.863 15.46 68.983 15.28 69.103 15.12C69.163 15.04 69.283 15 69.463 15C69.623 15 69.783 15.05 69.943 15.15C70.123 15.23 70.193 15.35 70.153 15.51C70.073 15.65 69.923 15.96 69.703 16.44C69.503 16.9 69.313 17.41 69.133 17.97C68.953 18.51 68.863 18.99 68.863 19.41C68.863 19.93 69.023 20.23 69.343 20.31C69.563 20.35 69.793 20.27 70.033 20.07C70.293 19.87 70.523 19.64 70.723 19.38C70.943 19.12 71.103 18.93 71.203 18.81C71.623 18.25 72.013 17.68 72.373 17.1C72.753 16.5 73.133 15.94 73.513 15.42C73.633 15.26 73.773 15.18 73.933 15.18C74.213 15.18 74.353 15.33 74.353 15.63C74.353 15.73 74.223 15.99 73.963 16.41C73.703 16.81 73.383 17.27 73.003 17.79C72.643 18.31 72.303 18.78 71.983 19.2C71.663 19.62 71.303 20.03 70.903 20.43C70.503 20.83 69.993 21.03 69.373 21.03C68.793 21.03 68.393 20.9 68.173 20.64C67.973 20.38 67.873 20.09 67.873 19.77C67.873 19.49 67.903 19.2 67.963 18.9C68.023 18.58 68.083 18.31 68.143 18.09L68.023 18C67.843 18.22 67.573 18.5 67.213 18.84C66.853 19.18 66.453 19.53 66.013 19.89C65.573 20.23 65.133 20.52 64.693 20.76C64.273 21 63.893 21.12 63.553 21.12ZM75.152 21.09C75.052 21.09 74.942 21.06 74.822 21C74.702 20.94 74.642 20.86 74.642 20.76C74.642 20.6 74.672 20.46 74.732 20.34C74.952 19.86 75.232 19.27 75.572 18.57C75.932 17.87 76.282 17.15 76.622 16.41C76.982 15.65 77.282 14.94 77.522 14.28C77.782 13.62 77.912 13.09 77.912 12.69C77.912 12.57 77.882 12.46 77.822 12.36C77.782 12.24 77.682 12.18 77.522 12.18C77.282 12.18 77.042 12.28 76.802 12.48C76.582 12.68 76.382 12.91 76.202 13.17C76.022 13.41 75.872 13.61 75.752 13.77C75.352 14.31 75.012 14.81 74.732 15.27C74.452 15.71 74.162 16.15 73.862 16.59C73.582 17.01 73.232 17.48 72.812 18C72.752 18.08 72.682 18.15 72.602 18.21C72.542 18.25 72.452 18.27 72.332 18.27C72.212 18.27 72.112 18.21 72.032 18.09C71.932 17.97 71.912 17.86 71.972 17.76C72.412 17.06 72.842 16.4 73.262 15.78C73.682 15.14 74.052 14.59 74.372 14.13C74.692 13.67 74.912 13.36 75.032 13.2C75.372 12.76 75.722 12.34 76.082 11.94C76.462 11.54 76.972 11.34 77.612 11.34C78.152 11.34 78.522 11.49 78.722 11.79C78.942 12.09 79.052 12.44 79.052 12.84C79.052 13.56 78.752 14.49 78.152 15.63C78.892 14.85 79.682 14.14 80.522 13.5C81.382 12.86 82.182 12.33 82.922 11.91C83.662 11.47 84.222 11.2 84.602 11.1C84.782 11.04 84.962 10.99 85.142 10.95C85.342 10.91 85.522 10.89 85.682 10.89C85.882 10.89 86.042 10.94 86.162 11.04C86.302 11.14 86.372 11.33 86.372 11.61C86.372 11.89 86.192 12.29 85.832 12.81C85.472 13.31 85.032 13.89 84.512 14.55C84.012 15.19 83.532 15.84 83.072 16.5C82.612 17.16 82.282 17.78 82.082 18.36C82.022 18.5 81.982 18.64 81.962 18.78C81.942 18.9 81.932 19.01 81.932 19.11C81.932 19.65 82.182 19.92 82.682 19.92C83.002 19.92 83.402 19.76 83.882 19.44C84.162 19.26 84.432 19.06 84.692 18.84C84.972 18.6 85.182 18.39 85.322 18.21C85.622 17.87 85.862 17.58 86.042 17.34C86.242 17.1 86.432 16.84 86.612 16.56C86.812 16.26 87.062 15.89 87.362 15.45C87.422 15.35 87.482 15.28 87.542 15.24C87.602 15.2 87.702 15.18 87.842 15.18C88.062 15.18 88.172 15.32 88.172 15.6C88.172 15.72 88.082 15.93 87.902 16.23C87.722 16.51 87.502 16.83 87.242 17.19C87.002 17.53 86.762 17.85 86.522 18.15C86.302 18.43 86.142 18.63 86.042 18.75C85.822 19.01 85.542 19.28 85.202 19.56C84.882 19.84 84.552 20.08 84.212 20.28C83.892 20.46 83.562 20.59 83.222 20.67C82.882 20.75 82.552 20.79 82.232 20.79C81.712 20.79 81.332 20.64 81.092 20.34C80.872 20.04 80.762 19.72 80.762 19.38C80.762 18.86 80.932 18.27 81.272 17.61C81.632 16.93 82.052 16.26 82.532 15.6C83.032 14.92 83.492 14.31 83.912 13.77C84.352 13.23 84.652 12.84 84.812 12.6C84.852 12.54 84.882 12.49 84.902 12.45C84.922 12.39 84.932 12.34 84.932 12.3C84.932 12.14 84.812 12.06 84.572 12.06C84.452 12.06 84.312 12.09 84.152 12.15C83.332 12.49 82.472 12.99 81.572 13.65C80.692 14.31 79.872 15.03 79.112 15.81C78.372 16.57 77.782 17.29 77.342 17.97L76.142 19.86C76.042 20.02 75.952 20.19 75.872 20.37C75.792 20.53 75.702 20.69 75.602 20.85C75.482 21.01 75.332 21.09 75.152 21.09ZM91.9502 8.76C91.8502 8.76 91.7402 8.74 91.6202 8.7C91.5002 8.66 91.4402 8.57 91.4402 8.43C91.4402 8.33 91.4702 8.24 91.5302 8.16C91.6902 7.86 91.9802 7.6 92.4002 7.38C92.8402 7.16 93.1702 7.05 93.3902 7.05C93.4902 7.05 93.6002 7.08 93.7202 7.14C93.8402 7.18 93.9002 7.27 93.9002 7.41C93.9002 7.75 93.6902 8.06 93.2702 8.34C92.8702 8.62 92.4302 8.76 91.9502 8.76ZM88.5902 21.03C87.9102 21.03 87.3702 20.84 86.9702 20.46C86.5702 20.08 86.3702 19.55 86.3702 18.87C86.3702 18.47 86.4102 18.08 86.4902 17.7C86.5702 17.3 86.6802 16.91 86.8202 16.53C86.9002 16.31 87.0602 15.95 87.3002 15.45C87.5602 14.93 87.8602 14.39 88.2002 13.83C88.5402 13.25 88.8702 12.76 89.1902 12.36C89.5102 11.96 89.7902 11.76 90.0302 11.76C90.1302 11.76 90.2602 11.8 90.4202 11.88C90.6002 11.94 90.6902 12.04 90.6902 12.18C90.6902 12.26 90.6502 12.36 90.5702 12.48C90.1102 13 89.6302 13.62 89.1302 14.34C88.6302 15.06 88.2102 15.81 87.8702 16.59C87.5302 17.37 87.3602 18.12 87.3602 18.84C87.3602 19.76 87.8002 20.22 88.6802 20.22C89.2802 20.22 89.8802 19.93 90.4802 19.35C91.1002 18.77 91.7802 17.99 92.5202 17.01C92.7402 16.73 92.9302 16.46 93.0902 16.2C93.2702 15.92 93.4302 15.68 93.5702 15.48C93.7102 15.34 93.8602 15.27 94.0202 15.27C94.2602 15.27 94.3802 15.36 94.3802 15.54C94.3802 15.76 94.2202 16.11 93.9002 16.59C93.5802 17.07 93.2202 17.57 92.8202 18.09C92.0402 19.05 91.3602 19.78 90.7802 20.28C90.2002 20.78 89.4702 21.03 88.5902 21.03ZM95.6704 21.3C94.6304 21.3 93.9004 21 93.4804 20.4C93.0804 19.78 92.8804 19.06 92.8804 18.24C92.8804 17.64 93.0304 16.93 93.3304 16.11C93.6304 15.27 94.0404 14.45 94.5604 13.65C95.1004 12.85 95.7204 12.19 96.4204 11.67C97.1204 11.13 97.8704 10.86 98.6704 10.86C99.1904 10.86 99.6004 11.01 99.9004 11.31C100.22 11.59 100.38 11.95 100.38 12.39C100.38 13.23 100.11 14.04 99.5704 14.82C99.0304 15.6 98.3304 16.24 97.4704 16.74C96.6104 17.24 95.6904 17.49 94.7104 17.49C94.5904 17.49 94.4704 17.49 94.3504 17.49C94.2304 17.47 94.1104 17.45 93.9904 17.43C93.9304 17.69 93.9004 17.99 93.9004 18.33C93.9004 18.85 94.0204 19.33 94.2604 19.77C94.5204 20.21 95.0104 20.43 95.7304 20.43C96.3304 20.43 96.9104 20.28 97.4704 19.98C98.0304 19.68 98.5004 19.34 98.8804 18.96C99.2604 18.58 99.5804 18.24 99.8404 17.94C100.1 17.64 100.37 17.3 100.65 16.92C100.93 16.52 101.28 16 101.7 15.36C101.78 15.22 101.9 15.15 102.06 15.15C102.34 15.15 102.48 15.3 102.48 15.6C102.48 15.7 102.46 15.78 102.42 15.84C101.88 16.76 101.28 17.64 100.62 18.48C99.9604 19.3 99.2204 19.98 98.4004 20.52C97.6004 21.04 96.6904 21.3 95.6704 21.3ZM94.9204 16.56C95.6804 16.56 96.3904 16.36 97.0504 15.96C97.7304 15.54 98.2804 15.02 98.7004 14.4C99.1404 13.78 99.3604 13.15 99.3604 12.51C99.3604 12.29 99.3004 12.11 99.1804 11.97C99.0804 11.83 98.9004 11.76 98.6404 11.76C98.1204 11.76 97.6204 11.94 97.1404 12.3C96.6604 12.64 96.2204 13.08 95.8204 13.62C95.4404 14.14 95.1104 14.66 94.8304 15.18C94.5704 15.7 94.3804 16.14 94.2604 16.5C94.3604 16.52 94.4604 16.54 94.5604 16.56C94.6804 16.56 94.8004 16.56 94.9204 16.56ZM102.317 21.3C101.337 21.3 100.587 21.1 100.067 20.7C99.547 20.3 99.287 19.88 99.287 19.44C99.287 19.12 99.427 18.84 99.707 18.6C99.967 18.34 100.417 18.21 101.057 18.21C101.457 18.21 101.937 18.27 102.497 18.39C102.917 18.49 103.357 18.62 103.817 18.78C104.297 18.94 104.787 19.01 105.287 18.99C105.427 18.77 105.507 18.59 105.527 18.45C105.547 18.31 105.557 18.14 105.557 17.94C105.557 17.28 105.447 16.73 105.227 16.29C105.027 15.85 104.787 15.42 104.507 15C104.247 14.58 104.027 14.07 103.847 13.47C103.587 13.91 103.257 14.49 102.857 15.21C102.457 15.91 101.797 16.87 100.877 18.09C100.817 18.19 100.697 18.24 100.517 18.24C100.217 18.24 100.067 18.11 100.067 17.85C100.067 17.79 100.117 17.7 100.217 17.58C100.297 17.46 100.497 17.15 100.817 16.65C101.177 16.07 101.597 15.42 102.077 14.7C102.557 13.96 103.017 13.15 103.457 12.27C103.477 11.93 103.547 11.6 103.667 11.28C103.787 10.96 103.927 10.67 104.087 10.41C104.307 10.05 104.537 9.79 104.777 9.63C105.017 9.45 105.237 9.36 105.437 9.36C105.817 9.36 106.007 9.58 106.007 10.02C106.007 10.32 105.887 10.71 105.647 11.19C105.507 11.49 105.327 11.75 105.107 11.97C104.887 12.17 104.697 12.35 104.537 12.51C104.577 13.01 104.697 13.46 104.897 13.86C105.097 14.26 105.317 14.65 105.557 15.03C105.817 15.41 106.037 15.82 106.217 16.26C106.397 16.7 106.487 17.23 106.487 17.85C106.487 18.25 106.417 18.62 106.277 18.96C106.717 18.98 107.167 18.82 107.627 18.48C108.107 18.12 108.557 17.66 108.977 17.1C109.417 16.54 109.807 15.97 110.147 15.39C110.247 15.25 110.377 15.18 110.537 15.18C110.637 15.18 110.737 15.21 110.837 15.27C110.937 15.33 110.987 15.43 110.987 15.57C110.987 15.65 110.957 15.75 110.897 15.87C110.317 16.91 109.757 17.72 109.217 18.3C108.697 18.86 108.167 19.25 107.627 19.47C107.087 19.69 106.487 19.82 105.827 19.86C105.327 20.32 104.787 20.68 104.207 20.94C103.647 21.18 103.017 21.3 102.317 21.3ZM102.167 20.58C102.627 20.58 103.027 20.51 103.367 20.37C103.707 20.23 104.077 20.03 104.477 19.77C104.057 19.71 103.707 19.64 103.427 19.56C103.147 19.46 102.787 19.36 102.347 19.26C101.787 19.14 101.347 19.08 101.027 19.08C100.447 19.08 100.157 19.22 100.157 19.5C100.157 19.72 100.347 19.96 100.727 20.22C101.107 20.46 101.587 20.58 102.167 20.58Z" fill="#53974A"/>
</svg>
