<svg width="359" height="56" viewBox="0 0 359 56" fill="none" xmlns="http://www.w3.org/2000/svg">
<path d="M7.14104 41.6792C6.3494 41.6792 5.4373 41.5931 4.40472 41.421C3.40657 41.2833 2.52888 40.9736 1.77166 40.4917C1.04886 40.0442 0.68746 39.3731 0.68746 38.4782C0.68746 37.6865 0.945603 36.8777 1.46189 36.0516C2.0126 35.26 2.68377 34.5028 3.47541 33.78C4.30147 33.0572 5.16194 32.4204 6.05684 31.8697C6.98616 31.2846 7.81222 30.8199 8.53502 30.4757C9.18898 28.9269 10.0322 27.2403 11.0648 25.4161C12.1318 23.5575 13.3193 21.7161 14.6272 19.8919C15.9695 18.0332 17.3635 16.3123 18.8091 14.729C20.2891 13.1113 21.752 11.7345 23.1976 10.5987C23.5073 10.3578 24.0064 10.0136 24.6948 9.56612C25.3832 9.11867 25.9511 8.89494 26.3985 8.89494C26.9492 8.89494 27.2246 9.13588 27.2246 9.61775C27.2246 9.78984 27.173 9.92752 27.0697 10.0308C26.9665 10.134 26.8288 10.2201 26.6567 10.2889C26.2092 10.4954 25.7962 10.7192 25.4176 10.9601C25.039 11.1666 24.6604 11.4075 24.2818 11.6829C22.9394 12.6466 21.6143 13.8685 20.3064 15.3485C18.9984 16.7941 17.7421 18.343 16.5375 19.9951C15.3672 21.6472 14.283 23.2993 13.2849 24.9515C12.3211 26.6036 11.5123 28.118 10.8583 29.4948C12.2695 29.0129 13.8184 28.6515 15.5049 28.4106C17.1914 28.1697 18.7919 28.0492 20.3064 28.0492C20.7194 28.0492 21.2701 28.0836 21.9585 28.1524C22.6469 28.1869 23.3352 28.2729 24.0236 28.4106C24.7464 28.5483 25.3488 28.772 25.8306 29.0818C26.3125 29.3915 26.5534 29.8046 26.5534 30.3208C26.5534 30.8371 26.2781 31.0953 25.7274 31.0953C25.4864 31.0953 25.3143 31.0436 25.2111 30.9404C25.1078 30.8371 25.0046 30.7167 24.9013 30.579C24.5571 30.0971 23.9376 29.8046 23.0427 29.7013C22.1822 29.598 21.4078 29.5464 20.7194 29.5464C18.8608 29.5464 17.0193 29.6841 15.1951 29.9594C13.4053 30.2348 11.6844 30.7339 10.0322 31.4567C9.79132 32.0762 9.5848 32.7302 9.41271 33.4186C9.24061 34.1069 9.15456 34.7781 9.15456 35.4321C9.15456 36.327 9.27503 36.8949 9.51596 37.1358C9.79132 37.3768 10.0495 37.5144 10.2904 37.5489C10.5313 37.6177 10.6518 37.8414 10.6518 38.22C10.6518 38.4265 10.583 38.6159 10.4453 38.7879C10.3076 38.96 10.1011 39.0461 9.82573 39.0461C9.27503 39.0461 8.81037 38.8568 8.43176 38.4782C8.08757 38.0996 7.82943 37.6349 7.65733 37.0842C7.51965 36.5679 7.45082 36.1205 7.45082 35.7419C7.45082 35.1912 7.50244 34.6577 7.6057 34.1414C7.70896 33.5907 7.82943 33.0572 7.9671 32.5409C7.38198 32.8507 6.64197 33.3153 5.74707 33.9349C4.88659 34.5544 4.12937 35.2428 3.47541 36C2.82144 36.7228 2.49446 37.4456 2.49446 38.1684C2.49446 38.7535 2.76982 39.1838 3.32052 39.4591C3.90565 39.7689 4.55961 39.9582 5.28241 40.027C6.00521 40.1303 6.60755 40.1819 7.08942 40.1819C8.5006 40.1819 10.0839 40.0098 11.8393 39.6656C13.629 39.3559 15.4705 38.8912 17.3635 38.2717C19.291 37.6865 21.1496 36.9637 22.9394 36.1033C24.7636 35.2428 26.3985 34.279 27.8441 33.2121C29.2897 32.1106 30.4428 30.9232 31.3033 29.6497C32.1637 28.3762 32.594 27.0338 32.594 25.6226C32.594 23.9361 31.94 22.5077 30.6321 21.3375C29.3586 20.1328 27.8441 19.2723 26.0888 18.756C25.7102 18.6528 25.3143 18.5839 24.9013 18.5495C24.5227 18.4807 24.1441 18.4118 23.7655 18.343C23.5245 18.2742 23.318 18.1881 23.1459 18.0849C23.0083 17.9816 22.9394 17.8095 22.9394 17.5686C22.9394 17.19 23.1976 16.949 23.7138 16.8458C24.1957 16.7425 24.6604 16.6737 25.1078 16.6392C25.5897 16.6048 26.0543 16.536 26.5018 16.4327C27.672 16.1918 28.8939 15.8648 30.1674 15.4518C31.4409 15.0043 32.6456 14.4708 33.7814 13.8513C34.9173 13.1973 35.8466 12.4401 36.5694 11.5796C36.948 11.0978 37.2406 10.5987 37.4471 10.0824C37.688 9.56612 37.8085 9.03262 37.8085 8.48191C37.8085 7.44934 37.4815 6.55445 36.8275 5.79722C36.1736 5.04 35.3303 4.42046 34.2977 3.93859C33.2996 3.4223 32.2326 3.02648 31.0968 2.75113C29.9609 2.44136 28.9111 2.23485 27.9474 2.13159C26.7771 2.02833 25.5725 1.9767 24.3334 1.9767C21.6487 1.9767 18.9984 2.32089 16.3826 3.00927C13.8011 3.66324 11.4434 4.71302 9.30945 6.15863C8.20804 6.88143 7.10662 7.77632 6.00521 8.84332C4.93822 9.91031 4.04332 11.0633 3.32052 12.3024C2.63214 13.5071 2.28795 14.7634 2.28795 16.0713C2.28795 16.6909 2.40842 17.1555 2.64935 17.4653C2.89028 17.7407 3.11401 17.9644 3.32052 18.1365C3.56146 18.2742 3.68192 18.4635 3.68192 18.7044C3.68192 18.9109 3.59587 19.1002 3.42378 19.2723C3.25168 19.4444 3.04517 19.5305 2.80424 19.5305C2.32237 19.5305 1.90934 19.3239 1.56515 18.9109C1.25537 18.4635 1.01444 17.9644 0.842346 17.4137C0.67025 16.863 0.584202 16.4327 0.584202 16.123C0.584202 14.6774 0.962812 13.2662 1.72003 11.8894C2.51167 10.5126 3.49262 9.23914 4.66287 8.06889C5.83312 6.86422 7.03779 5.84885 8.27687 5.02279C10.6174 3.47393 13.1816 2.3381 15.9695 1.6153C18.7575 0.892501 21.6143 0.531099 24.5399 0.531099C25.779 0.531099 26.9837 0.582728 28.1539 0.685987C29.3586 0.789243 30.6149 1.03018 31.9228 1.40879C33.2652 1.75298 34.5042 2.25206 35.6401 2.90602C36.7759 3.52556 37.7052 4.29999 38.428 5.22931C39.1508 6.12421 39.5122 7.1912 39.5122 8.43029C39.5122 9.73821 39.1336 10.9085 38.3764 11.941C37.6192 12.9392 36.6382 13.8169 35.4336 14.5741C34.2633 15.2969 32.9898 15.9164 31.613 16.4327C30.2707 16.949 28.98 17.362 27.7409 17.6718C29.5651 18.429 31.114 19.4788 32.3875 20.8212C33.661 22.1635 34.2977 23.7468 34.2977 25.571C34.2977 27.1543 33.8503 28.6515 32.9554 30.0627C32.0605 31.4739 30.8558 32.7818 29.3414 33.9865C27.8614 35.1567 26.1748 36.2237 24.2818 37.1875C22.3887 38.1512 20.4096 38.96 18.3445 39.614C16.3137 40.268 14.3346 40.767 12.4072 41.1112C10.4797 41.4898 8.72432 41.6792 7.14104 41.6792ZM39.1419 37.1875C38.2126 37.1875 37.4726 36.9465 36.9219 36.4647C36.3712 35.9828 35.9582 35.3977 35.6828 34.7093C35.4419 33.9865 35.3214 33.3153 35.3214 32.6958C35.3214 31.8697 35.4763 30.9576 35.7861 29.9594C36.0959 28.9269 36.3712 28.2213 36.6121 27.8427C36.6121 27.7394 36.5949 27.6362 36.5605 27.5329C36.5605 27.3952 36.5605 27.2748 36.5605 27.1715C36.5605 26.2422 36.6982 25.2784 36.9735 24.2803C37.2833 23.11 37.834 22.043 38.6257 21.0793C39.4173 20.0812 40.3982 19.2723 41.5685 18.6528C42.7732 18.0332 44.0811 17.7234 45.4923 17.7234C47.1444 17.7234 48.4179 18.1709 49.3128 19.0658C50.2077 19.9263 50.6551 21.0621 50.6551 22.4733C50.6551 24.4352 50.2937 26.1217 49.5709 27.5329C48.8826 28.9441 48.1425 30.3036 47.3509 31.6116C47.2132 31.8869 47.0928 32.1106 46.9895 32.2827C46.8862 32.4548 46.9895 32.5409 47.2993 32.5409C48.2974 32.5409 49.2784 32.1278 50.2421 31.3018C51.2058 30.4757 52.4277 28.9097 53.9077 26.6036C54.011 26.4315 54.1143 26.2938 54.2175 26.1906C54.3208 26.0873 54.4757 26.0357 54.6822 26.0357H54.7854C55.164 26.0357 55.3878 26.2594 55.4566 26.7068C55.4566 26.8101 55.4222 26.9306 55.3534 27.0682C54.4929 28.5827 53.6152 29.8906 52.7203 30.992C51.8598 32.0934 50.8272 32.9367 49.6226 33.5218C48.4179 34.0725 46.9035 34.3651 45.0792 34.3995C44.3564 35.0879 43.4615 35.7246 42.3946 36.3098C41.362 36.8949 40.2778 37.1875 39.1419 37.1875ZM44.0983 32.4376H44.6146C45.3374 31.5771 46.0258 30.5962 46.6797 29.4948C47.3681 28.3934 47.9188 27.2575 48.3319 26.0873C48.7449 24.8826 48.9514 23.7468 48.9514 22.6798C48.9514 21.6816 48.6933 20.8384 48.177 20.15C47.6607 19.4272 46.7658 19.0658 45.4923 19.0658C44.6318 19.0658 43.7885 19.2551 42.9625 19.6337C42.1708 19.9779 41.4824 20.4081 40.8973 20.9244L41.0522 21.1309C41.121 21.0965 41.2243 21.0793 41.362 21.0793C41.5685 21.0793 41.7578 21.1654 41.9299 21.3375C42.102 21.4751 42.188 21.63 42.188 21.8021C42.188 21.9054 42.1708 21.9914 42.1364 22.0603C42.102 22.1291 42.0504 22.1979 41.9815 22.2668C41.3964 23.1273 40.8285 23.9361 40.2778 24.6933C39.7271 25.4505 39.2108 26.311 38.7289 27.2748C38.6257 27.5157 38.5052 27.7566 38.3675 27.9976C38.6429 29.2711 39.2796 30.3381 40.2778 31.1985C41.3104 32.0246 42.5839 32.4376 44.0983 32.4376ZM39.4517 35.7419C40.1401 35.7419 40.8285 35.5353 41.5169 35.1223C42.2052 34.6749 42.7904 34.2618 43.2722 33.8832C40.6564 33.6079 38.7289 32.4548 37.4898 30.4241C37.4554 30.665 37.3866 31.0264 37.2833 31.5083C37.1801 31.9902 37.1284 32.472 37.1284 32.9539C37.1284 33.6423 37.2833 34.279 37.5931 34.8642C37.9029 35.4493 38.5224 35.7419 39.4517 35.7419ZM56.7885 37.1875C55.8592 37.1875 55.1191 36.9465 54.5684 36.4647C54.0177 35.9828 53.6047 35.3977 53.3293 34.7093C53.0884 33.9865 52.9679 33.3153 52.9679 32.6958C52.9679 31.8697 53.1228 30.9576 53.4326 29.9594C53.7424 28.9269 54.0177 28.2213 54.2587 27.8427C54.2587 27.7394 54.2415 27.6362 54.207 27.5329C54.207 27.3952 54.207 27.2748 54.207 27.1715C54.207 26.2422 54.3447 25.2784 54.6201 24.2803C54.9298 23.11 55.4805 22.043 56.2722 21.0793C57.0638 20.0812 58.0448 19.2723 59.215 18.6528C60.4197 18.0332 61.7276 17.7234 63.1388 17.7234C64.7909 17.7234 66.0644 18.1709 66.9593 19.0658C67.8542 19.9263 68.3017 21.0621 68.3017 22.4733C68.3017 24.4352 67.9403 26.1217 67.2175 27.5329C66.5291 28.9441 65.7891 30.3036 64.9974 31.6116C64.8598 31.8869 64.7393 32.1106 64.636 32.2827C64.5328 32.4548 64.636 32.5409 64.9458 32.5409C65.944 32.5409 66.9249 32.1278 67.8886 31.3018C68.8524 30.4757 70.0742 28.9097 71.5543 26.6036C71.6575 26.4315 71.7608 26.2938 71.864 26.1906C71.9673 26.0873 72.1222 26.0357 72.3287 26.0357H72.432C72.8106 26.0357 73.0343 26.2594 73.1031 26.7068C73.1031 26.8101 73.0687 26.9306 72.9999 27.0682C72.1394 28.5827 71.2617 29.8906 70.3668 30.992C69.5063 32.0934 68.4738 32.9367 67.2691 33.5218C66.0644 34.0725 64.55 34.3651 62.7258 34.3995C62.003 35.0879 61.1081 35.7246 60.0411 36.3098C59.0085 36.8949 57.9243 37.1875 56.7885 37.1875ZM61.7448 32.4376H62.2611C62.9839 31.5771 63.6723 30.5962 64.3263 29.4948C65.0146 28.3934 65.5653 27.2575 65.9784 26.0873C66.3914 24.8826 66.5979 23.7468 66.5979 22.6798C66.5979 21.6816 66.3398 20.8384 65.8235 20.15C65.3072 19.4272 64.4123 19.0658 63.1388 19.0658C62.2783 19.0658 61.435 19.2551 60.609 19.6337C59.8173 19.9779 59.129 20.4081 58.5438 20.9244L58.6987 21.1309C58.7676 21.0965 58.8708 21.0793 59.0085 21.0793C59.215 21.0793 59.4043 21.1654 59.5764 21.3375C59.7485 21.4751 59.8346 21.63 59.8346 21.8021C59.8346 21.9054 59.8173 21.9914 59.7829 22.0603C59.7485 22.1291 59.6969 22.1979 59.628 22.2668C59.0429 23.1273 58.475 23.9361 57.9243 24.6933C57.3736 25.4505 56.8573 26.311 56.3754 27.2748C56.2722 27.5157 56.1517 27.7566 56.014 27.9976C56.2894 29.2711 56.9261 30.3381 57.9243 31.1985C58.9569 32.0246 60.2304 32.4376 61.7448 32.4376ZM57.0982 35.7419C57.7866 35.7419 58.475 35.5353 59.1634 35.1223C59.8518 34.6749 60.4369 34.2618 60.9188 33.8832C58.3029 33.6079 56.3754 32.4548 55.1363 30.4241C55.1019 30.665 55.0331 31.0264 54.9298 31.5083C54.8266 31.9902 54.7749 32.472 54.7749 32.9539C54.7749 33.6423 54.9298 34.279 55.2396 34.8642C55.5494 35.4493 56.1689 35.7419 57.0982 35.7419ZM71.234 36.0516C70.6833 36.0516 70.408 35.8107 70.408 35.3288C70.408 35.26 70.5456 34.8814 70.821 34.193C71.1308 33.5046 71.4922 32.713 71.9052 31.8181C72.3182 30.9232 72.6968 30.0971 73.041 29.3399C73.3852 28.5483 73.6089 28.0492 73.7122 27.8427C73.6778 27.6706 73.5745 27.3264 73.4024 26.8101C73.2647 26.2594 73.1959 25.7431 73.1959 25.2612C73.1959 24.8826 73.2647 24.5729 73.4024 24.3319C73.5401 24.0566 73.781 23.9189 74.1252 23.9189C74.2973 23.9189 74.4866 24.0221 74.6931 24.2287C74.9341 24.4352 75.1062 24.5729 75.2094 24.6417C75.4848 24.1254 75.7257 23.6091 75.9322 23.0928C76.1387 22.5765 76.3625 22.0603 76.6034 21.544C77.7736 18.8249 78.8923 16.1918 79.9593 13.6448C81.0263 11.0633 82.1965 8.43029 83.47 5.7456C83.6421 5.43582 83.8658 5.19489 84.1412 5.02279C84.451 4.8507 84.7263 4.76465 84.9672 4.76465C85.4835 4.76465 85.7417 4.98838 85.7417 5.43582C85.7417 5.71118 85.5524 6.33072 85.1738 7.29445C84.8296 8.22377 84.3477 9.34239 83.7282 10.6503C83.143 11.9582 82.5063 13.335 81.8179 14.7806C81.1295 16.1918 80.4583 17.5686 79.8044 18.9109C79.1504 20.2188 78.5825 21.3547 78.1006 22.3184C77.6188 23.2821 77.2918 23.9361 77.1197 24.2803L77.3778 24.3835C78.4104 22.9724 79.5462 21.6644 80.7853 20.4598C82.0588 19.2207 83.5561 18.2053 85.277 17.4137C86.344 16.9318 87.3077 16.6909 88.1682 16.6909C88.9254 16.6909 89.5278 16.863 89.9752 17.2072C90.4571 17.5514 90.698 18.016 90.698 18.6011C90.698 19.2895 90.3538 20.0812 89.6654 20.9761C89.1147 21.6644 88.3919 22.3184 87.497 22.9379C86.6366 23.5575 85.7589 24.091 84.864 24.5384C83.9691 24.9859 83.1602 25.3301 82.4374 25.571C81.6802 25.8119 80.923 26.0012 80.1658 26.1389C79.443 26.2766 78.6858 26.4143 77.8941 26.552C77.5155 26.5864 77.1541 26.7585 76.8099 27.0682C76.5001 27.3436 76.3108 27.6189 76.242 27.8943C76.4485 28.7204 76.8271 29.6497 77.3778 30.6822C77.9285 31.7148 78.6341 32.6097 79.4946 33.3669C80.3551 34.0897 81.3532 34.4511 82.4891 34.4511C83.6249 34.4511 84.6403 34.0553 85.5352 33.2637C86.4645 32.472 87.3422 31.4739 88.1682 30.2692C89.0287 29.0301 89.9236 27.7738 90.8529 26.5003C91.025 26.2938 91.2487 26.1906 91.5241 26.1906H91.6273C91.9715 26.1906 92.1436 26.4487 92.1436 26.965C92.1436 27.1027 92.092 27.2575 91.9887 27.4296C91.6101 28.0148 91.1111 28.772 90.4915 29.7013C89.872 30.6306 89.1492 31.5771 88.3231 32.5409C87.5315 33.4702 86.6366 34.2618 85.6384 34.9158C84.6403 35.5698 83.5905 35.8967 82.4891 35.8967C81.1811 35.8967 80.0109 35.6042 78.9783 35.0191C77.9802 34.4339 77.1369 33.6767 76.4485 32.7474C75.7945 31.7837 75.3127 30.8027 75.0029 29.8046C74.4866 30.7683 74.0048 31.7492 73.5573 32.7474C73.1443 33.7455 72.6452 34.6921 72.0601 35.587C71.9912 35.6902 71.8708 35.7935 71.6987 35.8967C71.561 36 71.4061 36.0516 71.234 36.0516ZM79.2365 24.7966C79.9937 24.6933 80.8714 24.504 81.8695 24.2287C82.9021 23.9189 83.9175 23.5231 84.9156 23.0412C85.9138 22.5593 86.7398 21.9914 87.3938 21.3375C87.738 20.9933 88.0305 20.6147 88.2715 20.2016C88.5124 19.7542 88.6329 19.3584 88.6329 19.0142C88.6329 18.4979 88.3747 18.2397 87.8584 18.2397C87.3422 18.2397 86.4989 18.5667 85.3286 19.2207C84.0896 19.9435 82.9537 20.7867 81.9211 21.7505C80.923 22.6798 80.0281 23.6952 79.2365 24.7966ZM94.2043 55.2575C93.0341 55.2575 92.122 54.9477 91.468 54.3282C90.7796 53.7431 90.4354 52.9858 90.4354 52.0565C90.4354 51.2305 90.7968 50.3184 91.5196 49.3202C92.2424 48.322 93.3783 47.2206 94.9271 46.016C95.4434 45.6029 96.2867 45.0178 97.4569 44.2606C98.5928 43.5378 99.8835 42.7289 101.329 41.834C102.809 40.9391 104.255 40.0615 105.666 39.201C107.111 38.3405 108.402 37.5661 109.538 36.8777C110.674 36.2237 111.483 35.7419 111.965 35.4321C112.274 34.606 112.498 33.7111 112.636 32.7474C112.773 31.7492 112.842 30.8543 112.842 30.0627C112.877 29.2366 112.877 28.6343 112.842 28.2557C112.429 29.2194 111.792 30.2692 110.932 31.405C110.106 32.5065 109.142 33.6079 108.041 34.7093C107.387 35.3632 106.63 35.8967 105.769 36.3098C104.943 36.7572 104.134 36.9809 103.343 36.9809C102.585 36.9809 101.949 36.7228 101.432 36.2065C100.95 35.6902 100.71 34.8297 100.71 33.6251C100.71 32.8334 100.796 32.0418 100.968 31.2502C101.14 30.4585 101.329 29.7701 101.536 29.185C101.777 28.5999 101.949 28.2385 102.052 28.1008C101.88 27.8599 101.794 27.6017 101.794 27.3264C101.794 26.7068 102.017 25.984 102.465 25.158C102.947 24.3319 103.446 23.5747 103.962 22.8863C104.513 22.1979 104.857 21.7333 104.995 21.4923C105.064 21.3547 105.201 21.2514 105.408 21.1826C105.649 21.0793 105.855 21.0277 106.027 21.0277C106.268 21.0277 106.475 21.0965 106.647 21.2342C106.853 21.3719 106.957 21.544 106.957 21.7505C106.957 21.8193 106.922 21.9226 106.853 22.0603C105.683 24.0566 104.633 26.0701 103.704 28.1008C102.809 30.0971 102.362 31.9385 102.362 33.6251C102.362 34.279 102.482 34.7437 102.723 35.0191C102.964 35.26 103.257 35.3805 103.601 35.3805C104.186 35.3805 104.823 35.1567 105.511 34.7093C106.199 34.2618 106.733 33.8316 107.111 33.4186C108.385 32.1106 109.504 30.6822 110.467 29.1334C111.431 27.5845 112.119 26.3799 112.533 25.5194C112.636 25.244 112.808 24.9343 113.049 24.5901C113.324 24.2115 113.668 24.0221 114.081 24.0221C114.46 24.0221 114.684 24.1942 114.753 24.5384C114.856 24.8482 114.907 25.3473 114.907 26.0357C114.907 27.6189 114.839 29.0645 114.701 30.3725C114.598 31.6804 114.46 32.7818 114.288 33.6767C115.458 32.713 116.525 31.5599 117.489 30.2176C118.487 28.8408 119.382 27.5501 120.174 26.3454C120.346 26.0701 120.569 25.9324 120.845 25.9324C121.017 25.9324 121.172 26.0012 121.309 26.1389C121.481 26.2766 121.568 26.4487 121.568 26.6552C121.568 26.7929 121.516 26.965 121.413 27.1715C120.346 28.8925 119.21 30.5446 118.005 32.1278C116.8 33.6767 115.286 35.0535 113.462 36.2581C112.498 39.0117 111.173 41.6103 109.486 44.0541C107.834 46.5322 105.993 48.6662 103.962 50.456C101.966 52.2802 99.9523 53.6054 97.9216 54.4314C96.6137 54.9821 95.3746 55.2575 94.2043 55.2575ZM94.2043 53.9668C94.6174 53.9668 95.0648 53.8979 95.5467 53.7603C96.0285 53.6226 96.5276 53.4505 97.0439 53.244C99.0746 52.3491 100.933 51.1444 102.62 49.63C104.341 48.1155 105.838 46.4806 107.111 44.7252C107.972 43.5206 108.729 42.2643 109.383 40.9564C110.037 39.6828 110.553 38.7019 110.932 38.0135C110.312 38.3577 109.469 38.8396 108.402 39.4591C107.37 40.0787 106.217 40.767 104.943 41.5243C103.704 42.2815 102.465 43.0387 101.226 43.7959C100.021 44.5532 98.937 45.2415 97.9732 45.8611C96.9751 46.515 96.2351 47.0313 95.7532 47.4099C94.6518 48.2704 93.7913 49.0793 93.1718 49.8365C92.5178 50.6281 92.1908 51.3681 92.1908 52.0565C92.1908 52.6072 92.3629 53.0547 92.7071 53.3989C93.0513 53.7775 93.5504 53.9668 94.2043 53.9668ZM122.988 37.1875C122.059 37.1875 121.319 36.9465 120.768 36.4647C120.217 35.9828 119.804 35.3977 119.529 34.7093C119.288 33.9865 119.168 33.3153 119.168 32.6958C119.168 31.8697 119.322 30.9576 119.632 29.9594C119.942 28.9269 120.217 28.2213 120.458 27.8427C120.458 27.7394 120.441 27.6362 120.407 27.5329C120.407 27.3952 120.407 27.2748 120.407 27.1715C120.407 26.2422 120.544 25.2784 120.82 24.2803C121.129 23.11 121.68 22.043 122.472 21.0793C123.263 20.0812 124.244 19.2723 125.415 18.6528C126.619 18.0332 127.927 17.7234 129.338 17.7234C130.991 17.7234 132.264 18.1709 133.159 19.0658C134.054 19.9263 134.501 21.0621 134.501 22.4733C134.501 24.4352 134.14 26.1217 133.417 27.5329C132.729 28.9441 131.989 30.3036 131.197 31.6116C131.059 31.8869 130.939 32.1106 130.836 32.2827C130.732 32.4548 130.836 32.5409 131.145 32.5409C132.144 32.5409 133.125 32.1278 134.088 31.3018C135.052 30.4757 136.274 28.9097 137.754 26.6036C137.857 26.4315 137.96 26.2938 138.064 26.1906C138.167 26.0873 138.322 26.0357 138.528 26.0357H138.632C139.01 26.0357 139.234 26.2594 139.303 26.7068C139.303 26.8101 139.268 26.9306 139.2 27.0682C138.339 28.5827 137.461 29.8906 136.566 30.992C135.706 32.0934 134.673 32.9367 133.469 33.5218C132.264 34.0725 130.75 34.3651 128.925 34.3995C128.203 35.0879 127.308 35.7246 126.241 36.3098C125.208 36.8949 124.124 37.1875 122.988 37.1875ZM127.944 32.4376H128.461C129.184 31.5771 129.872 30.5962 130.526 29.4948C131.214 28.3934 131.765 27.2575 132.178 26.0873C132.591 24.8826 132.798 23.7468 132.798 22.6798C132.798 21.6816 132.539 20.8384 132.023 20.15C131.507 19.4272 130.612 19.0658 129.338 19.0658C128.478 19.0658 127.635 19.2551 126.809 19.6337C126.017 19.9779 125.329 20.4081 124.743 20.9244L124.898 21.1309C124.967 21.0965 125.07 21.0793 125.208 21.0793C125.415 21.0793 125.604 21.1654 125.776 21.3375C125.948 21.4751 126.034 21.63 126.034 21.8021C126.034 21.9054 126.017 21.9914 125.983 22.0603C125.948 22.1291 125.897 22.1979 125.828 22.2668C125.243 23.1273 124.675 23.9361 124.124 24.6933C123.573 25.4505 123.057 26.311 122.575 27.2748C122.472 27.5157 122.351 27.7566 122.214 27.9976C122.489 29.2711 123.126 30.3381 124.124 31.1985C125.157 32.0246 126.43 32.4376 127.944 32.4376ZM123.298 35.7419C123.986 35.7419 124.675 35.5353 125.363 35.1223C126.051 34.6749 126.637 34.2618 127.118 33.8832C124.503 33.6079 122.575 32.4548 121.336 30.4241C121.302 30.665 121.233 31.0264 121.129 31.5083C121.026 31.9902 120.975 32.472 120.975 32.9539C120.975 33.6423 121.129 34.279 121.439 34.8642C121.749 35.4493 122.369 35.7419 123.298 35.7419ZM146.933 37.1358C146.348 37.1358 145.815 36.9637 145.333 36.6195C144.851 36.2754 144.61 35.673 144.61 34.8125C144.61 33.7111 144.885 32.5409 145.436 31.3018C146.021 30.0627 146.744 28.7031 147.605 27.2231C146.503 28.4966 145.264 29.8734 143.887 31.3534C142.545 32.8334 141.203 34.0209 139.86 34.9158C138.69 35.673 137.726 36.0516 136.969 36.0516C136.349 36.0516 135.885 35.8451 135.575 35.4321C135.231 35.0191 135.059 34.4856 135.059 33.8316C135.059 33.0744 135.231 32.3344 135.575 31.6116C136.332 29.8218 137.193 27.8771 138.156 25.7775C139.12 23.6435 140.136 21.7677 141.203 20.15C141.306 20.0123 141.409 19.9091 141.512 19.8402C141.65 19.737 141.805 19.6853 141.977 19.6853C142.218 19.6853 142.424 19.7542 142.597 19.8919C142.803 20.0295 142.906 20.2016 142.906 20.4081C142.906 20.477 142.872 20.5802 142.803 20.7179C142.597 21.1998 142.218 21.9742 141.667 23.0412C141.151 24.0738 140.549 25.2612 139.86 26.6036C139.172 27.9459 138.466 29.3227 137.743 30.7339C137.193 31.8009 136.917 32.7302 136.917 33.5218C136.917 34.1414 137.141 34.4511 137.589 34.4511C137.795 34.4511 138.019 34.3823 138.26 34.2446C139.292 33.6595 140.204 32.9711 140.996 32.1795C141.788 31.3878 142.562 30.579 143.319 29.7529C143.801 29.2366 144.266 28.7204 144.713 28.2041C145.195 27.6878 145.66 27.1543 146.107 26.6036C146.279 26.4315 146.606 26.0185 147.088 25.3645C147.605 24.7105 148.172 23.9877 148.792 23.1961C149.412 22.37 149.962 21.6472 150.444 21.0277C150.96 20.3737 151.27 19.9779 151.373 19.8402C151.649 19.5649 152.062 19.4272 152.613 19.4272C152.888 19.4272 153.129 19.496 153.335 19.6337C153.576 19.737 153.697 19.9263 153.697 20.2016C153.697 20.4426 153.525 20.8556 153.18 21.4407C152.871 21.9914 152.492 22.611 152.045 23.2993C151.597 23.9533 151.167 24.5556 150.754 25.1063C150.341 25.6571 150.048 26.0701 149.876 26.3454C149.739 26.5864 149.48 27.051 149.102 27.7394C148.723 28.3934 148.31 29.1678 147.863 30.0627C147.45 30.9232 147.088 31.7664 146.778 32.5925C146.469 33.4186 146.314 34.1069 146.314 34.6577C146.314 35.2772 146.572 35.587 147.088 35.587C147.639 35.587 148.276 35.2428 148.998 34.5544C149.721 33.866 150.479 33.0227 151.27 32.0246C152.062 30.992 152.802 29.9767 153.49 28.9785C154.179 27.9459 154.764 27.0854 155.246 26.3971C155.383 26.225 155.521 26.1217 155.659 26.0873C155.796 26.0529 155.9 26.0357 155.968 26.0357C156.313 26.0357 156.519 26.2422 156.588 26.6552C156.588 26.7585 156.467 27.051 156.227 27.5329C155.986 28.0148 155.745 28.4106 155.504 28.7204C155.194 29.1678 154.712 29.8562 154.058 30.7855C153.439 31.6804 152.716 32.6441 151.89 33.6767C151.098 34.6749 150.22 35.5698 149.257 36.3614C148.637 36.8777 147.863 37.1358 146.933 37.1358ZM161.024 36.7228C160.37 36.7228 159.802 36.5163 159.32 36.1033C158.872 35.6902 158.649 35.0363 158.649 34.1414C158.649 33.4186 158.786 32.6786 159.062 31.9213C159.337 31.1297 159.595 30.5102 159.836 30.0627C160.387 28.9613 160.972 27.9459 161.591 27.0166C162.211 26.0529 162.676 25.3645 162.985 24.9515C162.366 24.9859 161.626 24.831 160.765 24.4868C159.939 24.1426 159.354 23.6952 159.01 23.1445C158.563 23.7984 157.926 24.8654 157.1 26.3454C156.274 27.791 155.224 29.3227 153.95 30.9404C153.744 31.2157 153.503 31.3534 153.228 31.3534C152.711 31.3534 152.453 31.1297 152.453 30.6822C152.453 30.5102 152.505 30.3553 152.608 30.2176C153.124 29.4948 153.761 28.5655 154.518 27.4296C155.31 26.2594 156.067 25.0547 156.79 23.8156C157.547 22.5421 158.15 21.4063 158.597 20.4081C158.735 20.0984 158.872 19.7714 159.01 19.4272C159.182 19.083 159.337 18.756 159.475 18.4463C159.612 18.2053 159.802 17.9988 160.043 17.8267C160.284 17.6202 160.559 17.5169 160.869 17.5169C161.144 17.5169 161.419 17.6374 161.695 17.8783C161.97 18.0848 162.108 18.3258 162.108 18.6011C162.108 18.9109 161.987 19.3067 161.746 19.7886C161.54 20.236 161.316 20.7007 161.075 21.1826C160.834 21.6644 160.714 22.0947 160.714 22.4733C160.714 22.7831 160.972 22.9896 161.488 23.0928C162.004 23.1961 162.383 23.2477 162.624 23.2477C163.553 23.2477 164.328 23.0584 164.947 22.6798C165.567 22.3012 165.997 22.1119 166.238 22.1119C166.445 22.1119 166.617 22.1979 166.754 22.37C166.926 22.5077 167.012 22.6626 167.012 22.8347C167.012 23.0756 166.909 23.2821 166.703 23.4542C166.221 23.9017 165.653 24.5384 164.999 25.3645C164.345 26.1906 163.691 27.0854 163.037 28.0492C162.383 29.0129 161.815 29.9594 161.333 30.8888C161.196 31.233 160.989 31.7148 160.714 32.3344C160.473 32.9539 160.352 33.539 160.352 34.0897C160.352 35.0191 160.679 35.4837 161.333 35.4837C161.609 35.4837 161.918 35.3805 162.263 35.1739C162.641 34.9674 163.003 34.7265 163.347 34.4511C164.173 33.6939 164.896 32.9539 165.515 32.2311C166.169 31.4739 166.823 30.6306 167.477 29.7013C168.131 28.772 168.888 27.6534 169.749 26.3454C169.886 26.1045 170.127 25.984 170.472 25.984C170.919 25.984 171.143 26.1906 171.143 26.6036C171.143 26.8101 171.04 27.1027 170.833 27.4813C170.351 28.3417 169.714 29.2883 168.923 30.3208C168.166 31.3534 167.374 32.3344 166.548 33.2637C165.756 34.1586 165.051 34.847 164.431 35.3288C163.33 36.2581 162.194 36.7228 161.024 36.7228ZM188.908 41.3178C186.808 41.3178 185.087 40.8875 183.745 40.027C182.437 39.1666 181.473 37.9963 180.854 36.5163C180.234 35.0707 179.924 33.453 179.924 31.6632C179.924 28.9097 180.596 26.0529 181.938 23.0928C182.936 20.9588 184.261 18.997 185.913 17.2072C187.566 15.3829 189.424 13.9373 191.489 12.8704C193.554 11.7689 195.723 11.2182 197.995 11.2182C199.75 11.2182 201.144 11.4592 202.176 11.941C203.209 12.3885 203.949 12.9908 204.396 13.748C204.878 14.4708 205.119 15.2453 205.119 16.0713C205.119 17.2072 204.775 18.2742 204.087 19.2723C203.398 20.2705 202.555 20.9072 201.557 21.1826C201.522 21.217 201.471 21.2342 201.402 21.2342C201.368 21.2686 201.299 21.2858 201.195 21.2858C201.264 21.2858 201.333 21.2686 201.402 21.2342C201.436 21.2342 201.454 21.2342 201.454 21.2342L201.557 21.1826C202.039 20.9761 202.503 20.4426 202.951 19.5821C203.433 18.7216 203.674 17.7923 203.674 16.7941C203.674 15.6927 203.261 14.6946 202.435 13.7997C201.609 12.9048 200.077 12.4573 197.84 12.4573C195.843 12.4573 193.899 12.9908 192.006 14.0578C190.147 15.1248 188.46 16.536 186.946 18.2914C185.466 20.0467 184.261 21.9398 183.332 23.9705C182.162 26.6208 181.577 29.2022 181.577 31.7148C181.577 33.9865 182.162 35.914 183.332 37.4972C184.502 39.0805 186.361 39.8722 188.908 39.8722C190.388 39.8722 191.92 39.4591 193.503 38.6331C195.121 37.807 196.738 36.74 198.356 35.4321C200.008 34.0897 201.609 32.6269 203.157 31.0436C204.741 29.4604 206.221 27.9287 207.597 26.4487C206.29 26.5864 205.033 26.7585 203.829 26.965C202.658 27.1371 201.522 27.3608 200.421 27.6362H200.215C199.802 27.6362 199.595 27.4296 199.595 27.0166C199.595 26.8445 199.664 26.6724 199.802 26.5003C199.939 26.2938 200.128 26.1733 200.369 26.1389C202.882 25.7259 205.618 25.3817 208.578 25.1063C214.223 18.429 218.732 13.1973 222.105 9.41123C225.478 5.62513 228.163 3.30184 230.159 2.44136C230.951 2.09717 231.708 1.92507 232.431 1.92507C233.188 1.92507 233.567 2.16601 233.567 2.64788C233.567 3.12974 233.102 3.83534 232.173 4.76465C230.934 6.03816 229.66 7.7419 228.352 9.87589C227.079 12.0099 225.874 14.3504 224.738 16.8974C223.637 19.41 222.725 21.957 222.002 24.5384C222.484 24.5384 222.88 24.5384 223.189 24.5384C223.499 24.504 223.774 24.504 224.015 24.5384C224.36 24.5729 224.618 24.6761 224.79 24.8482C224.962 25.0203 225.048 25.1924 225.048 25.3645C225.048 25.7775 224.79 25.984 224.273 25.984C223.929 25.984 223.533 25.984 223.086 25.984C222.673 25.9496 222.226 25.9324 221.744 25.9324C221.159 28.2729 220.866 30.4241 220.866 32.386C220.866 32.8679 220.883 33.3325 220.918 33.78C220.952 34.2274 221.004 34.6577 221.073 35.0707C221.245 35.8967 221.451 36.6195 221.692 37.2391C221.967 37.8586 222.329 38.1684 222.776 38.1684C223.293 38.1684 223.947 37.6693 224.738 36.6712C225.014 36.3614 225.272 36.2065 225.513 36.2065C225.685 36.2065 225.822 36.2754 225.926 36.413C226.029 36.5851 226.012 36.8088 225.874 37.0842C225.117 38.6331 224.101 39.4075 222.828 39.4075C222.14 39.4075 221.468 39.0977 220.814 38.4782C220.195 37.8586 219.747 36.8605 219.472 35.4837C219.266 34.4856 219.162 33.4014 219.162 32.2311C219.162 31.2674 219.214 30.2692 219.317 29.2366C219.455 28.1697 219.644 27.0682 219.885 25.9324C218.474 25.9324 216.873 25.9496 215.084 25.984C213.328 25.984 211.556 26.0701 209.766 26.2422C209.731 26.311 209.663 26.3971 209.559 26.5003C209.456 26.5692 209.37 26.638 209.301 26.7068C207.924 28.2557 206.393 29.8906 204.706 31.6116C203.02 33.2981 201.264 34.8814 199.44 36.3614C197.65 37.8414 195.843 39.0289 194.019 39.9238C192.229 40.8531 190.526 41.3178 188.908 41.3178ZM210.953 24.8482C212.64 24.7449 214.292 24.6761 215.91 24.6417C217.527 24.5729 218.973 24.5212 220.246 24.4868C220.866 21.9742 221.709 19.496 222.776 17.0523C223.843 14.5741 224.996 12.2852 226.235 10.1857C227.474 8.0861 228.645 6.36514 229.746 5.02279C229.849 4.88512 230.004 4.6786 230.211 4.40325C230.417 4.09348 230.607 3.81812 230.779 3.57719C230.985 3.30184 231.054 3.18137 230.985 3.21579C229.127 4.00743 226.597 6.27909 223.396 10.0308C220.229 13.748 216.082 18.6872 210.953 24.8482ZM230.033 36.7744C228.897 36.7744 228.105 36.3958 227.658 35.6386C227.21 34.8814 226.986 34.0725 226.986 33.2121C226.986 32.2139 227.193 31.0781 227.606 29.8046C228.053 28.5311 228.656 27.2403 229.413 25.9324C230.17 24.6245 231.048 23.4198 232.046 22.3184C233.044 21.217 234.128 20.3221 235.299 19.6337C236.503 18.9453 237.725 18.6011 238.964 18.6011C239.721 18.6011 240.324 18.7388 240.771 19.0142C241.253 19.2895 241.701 19.6681 242.114 20.15C242.836 18.9797 243.645 17.5686 244.54 15.9164C245.435 14.2299 246.347 12.5434 247.276 10.8568C248.206 9.13588 249.049 7.65586 249.806 6.41677C250.15 5.83164 250.512 5.43582 250.89 5.22931C251.269 5.02279 251.631 4.91954 251.975 4.91954C252.25 4.91954 252.474 4.98837 252.646 5.12605C252.818 5.26373 252.904 5.55629 252.904 6.00374C252.904 6.24467 252.68 6.76096 252.233 7.5526C251.82 8.30982 251.269 9.22193 250.581 10.2889C249.892 11.3559 249.152 12.4745 248.361 13.6448C247.569 14.815 246.812 15.9337 246.089 17.0006C245.401 18.0676 244.833 18.9625 244.385 19.6853C244.041 20.236 243.576 21.0793 242.991 22.2151C242.406 23.3166 241.804 24.5384 241.184 25.8808C240.565 27.2231 240.048 28.5311 239.635 29.8046C239.222 31.0781 239.016 32.1278 239.016 32.9539C239.016 33.4014 239.102 33.78 239.274 34.0897C239.446 34.3995 239.704 34.5544 240.048 34.5544C240.427 34.5544 240.823 34.3995 241.236 34.0897C241.649 33.78 242.028 33.4358 242.372 33.0572C242.716 32.6786 242.957 32.386 243.095 32.1795C243.232 32.0074 243.559 31.5599 244.076 30.8371C244.592 30.1143 245.143 29.3399 245.728 28.5138C246.347 27.6534 246.812 26.9822 247.122 26.5003C247.294 26.225 247.535 26.0873 247.844 26.0873C248.292 26.0873 248.516 26.3454 248.516 26.8617C248.516 26.9306 248.447 27.0854 248.309 27.3264C248.171 27.5329 247.999 27.8083 247.793 28.1524C246.141 30.6995 244.729 32.6441 243.559 33.9865C242.389 35.3288 241.15 36 239.842 36C239.739 36 239.618 36 239.481 36C239.377 36 239.274 35.9828 239.171 35.9484C238.482 35.8107 238.001 35.4321 237.725 34.8125C237.484 34.193 237.364 33.5562 237.364 32.9023C237.364 32.5925 237.381 32.2655 237.415 31.9213C237.484 31.5427 237.588 31.0436 237.725 30.4241C237.071 31.2157 236.348 32.0762 235.557 33.0055C234.765 33.9004 233.973 34.6921 233.182 35.3805C232.425 36.0688 231.753 36.4819 231.168 36.6195C230.824 36.7228 230.446 36.7744 230.033 36.7744ZM230.239 35.1739C230.755 35.1739 231.358 34.9158 232.046 34.3995C232.769 33.8488 233.492 33.1604 234.214 32.3344C234.972 31.5083 235.677 30.6306 236.331 29.7013C237.02 28.772 237.605 27.9287 238.087 27.1715C238.603 26.3799 238.964 25.7775 239.171 25.3645L241.133 21.4923C240.857 21.1137 240.548 20.7867 240.203 20.5114C239.894 20.236 239.463 20.0984 238.913 20.0984C237.846 20.0984 236.813 20.4253 235.815 21.0793C234.817 21.6989 233.887 22.5249 233.027 23.5575C232.201 24.5556 231.478 25.6571 230.859 26.8617C230.239 28.032 229.757 29.185 229.413 30.3208C229.069 31.4223 228.897 32.386 228.897 33.2121C228.897 33.5907 228.966 34.0209 229.103 34.5028C229.275 34.9502 229.654 35.1739 230.239 35.1739ZM248.806 36.5679C248.152 36.5679 247.722 36.2754 247.516 35.6902C247.309 35.1051 247.206 34.5888 247.206 34.1414C247.206 33.3497 247.309 32.3344 247.516 31.0953C247.722 29.8562 247.998 28.5655 248.342 27.2231C247.929 27.8771 247.481 28.5311 246.999 29.185C246.552 29.839 246.139 30.4413 245.76 30.992C245.623 31.233 245.416 31.3534 245.141 31.3534C244.9 31.3534 244.693 31.2502 244.521 31.0436C244.315 30.8371 244.297 30.6134 244.47 30.3725C244.917 29.7185 245.502 28.8408 246.225 27.7394C246.982 26.638 247.739 25.485 248.497 24.2803C249.254 23.0756 249.891 22.0258 250.407 21.1309C250.579 20.8212 250.734 20.5458 250.872 20.3049C251.044 20.0295 251.199 19.7886 251.336 19.5821C251.577 19.3411 251.904 19.2207 252.317 19.2207C252.558 19.2207 252.765 19.2895 252.937 19.4272C253.143 19.5649 253.246 19.7542 253.246 19.9951C253.246 20.0639 253.229 20.1328 253.195 20.2016C253.16 20.2705 253.126 20.3393 253.092 20.4081C252.747 20.9588 252.438 21.5268 252.162 22.1119C251.887 22.697 251.646 23.2821 251.439 23.8673C250.923 25.4505 250.424 27.1027 249.942 28.8236C249.495 30.5102 249.237 32.1795 249.168 33.8316L249.374 33.8832C250.166 32.6441 251.13 31.3018 252.266 29.8562C253.436 28.3762 254.709 26.9134 256.086 25.4678C257.463 23.9877 258.874 22.6454 260.32 21.4407C261.765 20.2016 263.159 19.2035 264.502 18.4463C264.708 18.343 264.897 18.2914 265.069 18.2914C265.31 18.2914 265.517 18.3774 265.689 18.5495C265.861 18.6872 265.947 18.8593 265.947 19.0658C265.947 19.2723 265.827 19.4616 265.586 19.6337C265.035 19.9779 264.484 20.3393 263.934 20.7179C263.417 21.0965 262.901 21.4751 262.385 21.8537C260.388 23.3682 258.564 25.0375 256.912 26.8617C255.26 28.6515 253.763 30.5446 252.42 32.5409C252.111 32.9883 251.818 33.453 251.543 33.9349C251.267 34.4167 250.992 34.8986 250.717 35.3805C250.51 35.6558 250.235 35.914 249.891 36.1549C249.581 36.4302 249.219 36.5679 248.806 36.5679ZM267.204 36.5163C265.414 36.5163 264.157 36 263.435 34.9674C262.746 33.9004 262.402 32.6613 262.402 31.2502C262.402 30.2176 262.66 28.9957 263.177 27.5845C263.693 26.1389 264.398 24.7277 265.293 23.351C266.223 21.9742 267.29 20.8384 268.494 19.9435C269.699 19.0142 270.99 18.5495 272.366 18.5495C273.261 18.5495 273.967 18.8077 274.483 19.3239C275.034 19.8058 275.309 20.4253 275.309 21.1826C275.309 22.6282 274.845 24.0221 273.915 25.3645C272.986 26.7068 271.781 27.8083 270.301 28.6687C268.821 29.5292 267.238 29.9594 265.551 29.9594C265.345 29.9594 265.138 29.9594 264.932 29.9594C264.725 29.925 264.519 29.8906 264.312 29.8562C264.209 30.3036 264.157 30.8199 264.157 31.405C264.157 32.2999 264.364 33.126 264.777 33.8832C265.224 34.6404 266.068 35.0191 267.307 35.0191C268.339 35.0191 269.338 34.7609 270.301 34.2446C271.265 33.7283 272.074 33.1432 272.728 32.4893C273.382 31.8353 273.932 31.2502 274.38 30.7339C274.827 30.2176 275.292 29.6325 275.774 28.9785C276.256 28.2901 276.858 27.3952 277.581 26.2938C277.719 26.0529 277.925 25.9324 278.2 25.9324C278.682 25.9324 278.923 26.1906 278.923 26.7068C278.923 26.8789 278.889 27.0166 278.82 27.1199C277.891 28.7031 276.858 30.2176 275.722 31.6632C274.586 33.0744 273.313 34.2446 271.902 35.1739C270.525 36.0688 268.959 36.5163 267.204 36.5163ZM265.913 28.359C267.221 28.359 268.443 28.0148 269.578 27.3264C270.749 26.6036 271.695 25.7087 272.418 24.6417C273.175 23.5747 273.554 22.4905 273.554 21.3891C273.554 21.0105 273.451 20.7007 273.244 20.4598C273.072 20.2188 272.762 20.0984 272.315 20.0984C271.42 20.0984 270.559 20.4081 269.733 21.0277C268.907 21.6128 268.15 22.37 267.462 23.2993C266.808 24.1942 266.24 25.0891 265.758 25.984C265.31 26.8789 264.984 27.6362 264.777 28.2557C264.949 28.2901 265.121 28.3245 265.293 28.359C265.5 28.359 265.706 28.359 265.913 28.359ZM280.294 36.1549C280.122 36.1549 279.933 36.1033 279.726 36C279.52 35.8967 279.417 35.7591 279.417 35.587C279.417 35.3116 279.468 35.0707 279.571 34.8642C279.95 34.0381 280.432 33.0227 281.017 31.8181C281.637 30.6134 282.239 29.3743 282.824 28.1008C283.444 26.7929 283.96 25.571 284.373 24.4352C284.82 23.2993 285.044 22.3872 285.044 21.6989C285.044 21.4923 284.992 21.303 284.889 21.1309C284.82 20.9244 284.648 20.8212 284.373 20.8212C283.96 20.8212 283.547 20.9933 283.134 21.3375C282.755 21.6816 282.411 22.0775 282.101 22.5249C281.791 22.9379 281.533 23.2821 281.327 23.5575C280.638 24.4868 280.053 25.3473 279.571 26.1389C279.09 26.8961 278.59 27.6534 278.074 28.4106C277.592 29.1334 276.99 29.9422 276.267 30.8371C276.164 30.9748 276.043 31.0953 275.906 31.1985C275.803 31.2674 275.648 31.3018 275.441 31.3018C275.235 31.3018 275.063 31.1985 274.925 30.992C274.753 30.7855 274.718 30.5962 274.822 30.4241C275.579 29.2194 276.319 28.0836 277.042 27.0166C277.764 25.9152 278.401 24.9687 278.952 24.177C279.503 23.3854 279.881 22.8519 280.088 22.5765C280.673 21.8193 281.275 21.0965 281.895 20.4081C282.549 19.7198 283.426 19.3756 284.528 19.3756C285.457 19.3756 286.094 19.6337 286.438 20.15C286.817 20.6663 287.006 21.2686 287.006 21.957C287.006 23.1961 286.49 24.7966 285.457 26.7585C286.731 25.4161 288.09 24.1942 289.536 23.0928C291.016 21.9914 292.393 21.0793 293.666 20.3565C294.94 19.5993 295.903 19.1346 296.557 18.9625C296.867 18.8593 297.177 18.7732 297.487 18.7044C297.831 18.6356 298.141 18.6011 298.416 18.6011C298.76 18.6011 299.035 18.6872 299.242 18.8593C299.483 19.0314 299.603 19.3584 299.603 19.8402C299.603 20.3221 299.294 21.0105 298.674 21.9054C298.054 22.7658 297.297 23.764 296.402 24.8998C295.542 26.0012 294.716 27.1199 293.924 28.2557C293.133 29.3915 292.565 30.4585 292.22 31.4567C292.117 31.6976 292.048 31.9385 292.014 32.1795C291.98 32.386 291.962 32.5753 291.962 32.7474C291.962 33.6767 292.393 34.1414 293.253 34.1414C293.804 34.1414 294.492 33.866 295.318 33.3153C295.8 33.0055 296.265 32.6613 296.712 32.2827C297.194 31.8697 297.555 31.5083 297.796 31.1985C298.313 30.6134 298.726 30.1143 299.035 29.7013C299.38 29.2883 299.707 28.8408 300.016 28.359C300.361 27.8427 300.791 27.2059 301.307 26.4487C301.41 26.2766 301.514 26.1561 301.617 26.0873C301.72 26.0185 301.892 25.984 302.133 25.984C302.512 25.984 302.701 26.225 302.701 26.7068C302.701 26.9134 302.546 27.2748 302.236 27.791C301.927 28.2729 301.548 28.8236 301.101 29.4432C300.688 30.0283 300.275 30.579 299.861 31.0953C299.483 31.5771 299.208 31.9213 299.035 32.1278C298.657 32.5753 298.175 33.04 297.59 33.5218C297.039 34.0037 296.471 34.4167 295.886 34.7609C295.335 35.0707 294.767 35.2944 294.182 35.4321C293.597 35.5698 293.029 35.6386 292.479 35.6386C291.584 35.6386 290.93 35.3805 290.517 34.8642C290.138 34.3479 289.949 33.7972 289.949 33.2121C289.949 32.3172 290.241 31.3018 290.826 30.166C291.446 28.9957 292.169 27.8427 292.995 26.7068C293.855 25.5366 294.647 24.4868 295.37 23.5575C296.127 22.6282 296.643 21.957 296.919 21.544C296.987 21.4407 297.039 21.3547 297.074 21.2858C297.108 21.1826 297.125 21.0965 297.125 21.0277C297.125 20.7523 296.919 20.6147 296.506 20.6147C296.299 20.6147 296.058 20.6663 295.783 20.7695C294.372 21.3547 292.892 22.2151 291.343 23.351C289.828 24.4868 288.417 25.7259 287.109 27.0682C285.836 28.3762 284.82 29.6153 284.063 30.7855L281.998 34.0381C281.826 34.3135 281.671 34.606 281.533 34.9158C281.396 35.1912 281.241 35.4665 281.069 35.7419C280.862 36.0172 280.604 36.1549 280.294 36.1549ZM303.008 37.8586C302.319 37.8586 301.803 37.6349 301.459 37.1875C301.115 36.7744 300.891 36.2754 300.788 35.6902C300.684 35.1051 300.633 34.5888 300.633 34.1414C300.633 32.7302 300.891 31.1469 301.407 29.3915C301.923 27.6362 302.526 25.8808 303.214 24.1254C303.937 22.37 304.591 20.804 305.176 19.4272C304.556 19.4616 303.868 19.5649 303.111 19.737C302.388 19.9091 301.734 19.9951 301.149 19.9951C300.667 19.9951 300.426 19.7886 300.426 19.3756C300.426 18.7904 300.736 18.4463 301.356 18.343C302.113 18.1709 302.887 18.0332 303.679 17.93C304.47 17.8267 305.245 17.7407 306.002 17.6718C306.209 17.2932 306.501 16.7081 306.88 15.9164C307.258 15.1248 307.689 14.2815 308.17 13.3866C308.652 12.4573 309.117 11.6313 309.564 10.9085C310.046 10.1512 310.442 9.61775 310.752 9.30797C310.958 9.10146 311.182 8.9982 311.423 8.9982C311.664 8.9982 311.871 9.06704 312.043 9.20472C312.215 9.34239 312.301 9.51449 312.301 9.721C312.301 9.82426 312.249 9.96194 312.146 10.134C311.285 11.201 310.563 12.3713 309.978 13.6448C309.392 14.9183 308.807 16.1574 308.222 17.362C308.842 17.2932 309.496 17.2244 310.184 17.1555C310.872 17.0867 311.544 17.0523 312.198 17.0523C312.404 17.0523 312.593 17.0867 312.765 17.1555C312.972 17.2244 313.075 17.3793 313.075 17.6202C313.075 17.8267 312.972 17.9988 312.765 18.1365C312.593 18.2742 312.387 18.3774 312.146 18.4463C311.389 18.5839 310.597 18.7044 309.771 18.8077C308.979 18.8765 308.188 18.9625 307.396 19.0658C306.949 20.0984 306.432 21.2514 305.847 22.5249C305.262 23.7984 304.694 25.1236 304.143 26.5003C303.627 27.8427 303.197 29.1506 302.853 30.4241C302.509 31.6976 302.336 32.8507 302.336 33.8832C302.336 34.0553 302.336 34.3479 302.336 34.7609C302.371 35.1395 302.457 35.4837 302.595 35.7935C302.732 36.1033 302.939 36.2581 303.214 36.2581C303.799 36.2581 304.212 36.1033 304.453 35.7935C304.694 35.4837 304.97 35.3288 305.279 35.3288C305.52 35.3288 305.727 35.3977 305.899 35.5353C306.105 35.673 306.209 35.8451 306.209 36.0516C306.209 36.3614 306.002 36.654 305.589 36.9293C305.21 37.2047 304.763 37.4284 304.247 37.6005C303.73 37.7726 303.317 37.8586 303.008 37.8586ZM320.726 37.1358C320.141 37.1358 319.608 36.9637 319.126 36.6195C318.644 36.2754 318.403 35.673 318.403 34.8125C318.403 33.7111 318.678 32.5409 319.229 31.3018C319.814 30.0627 320.537 28.7031 321.398 27.2231C320.296 28.4966 319.057 29.8734 317.68 31.3534C316.338 32.8334 314.996 34.0209 313.653 34.9158C312.483 35.673 311.519 36.0516 310.762 36.0516C310.142 36.0516 309.678 35.8451 309.368 35.4321C309.024 35.0191 308.852 34.4856 308.852 33.8316C308.852 33.0744 309.024 32.3344 309.368 31.6116C310.125 29.8218 310.986 27.8771 311.949 25.7775C312.913 23.6435 313.929 21.7677 314.996 20.15C315.099 20.0123 315.202 19.9091 315.305 19.8402C315.443 19.737 315.598 19.6853 315.77 19.6853C316.011 19.6853 316.217 19.7542 316.39 19.8919C316.596 20.0295 316.699 20.2016 316.699 20.4081C316.699 20.477 316.665 20.5802 316.596 20.7179C316.39 21.1998 316.011 21.9742 315.46 23.0412C314.944 24.0738 314.342 25.2612 313.653 26.6036C312.965 27.9459 312.259 29.3227 311.536 30.7339C310.986 31.8009 310.71 32.7302 310.71 33.5218C310.71 34.1414 310.934 34.4511 311.382 34.4511C311.588 34.4511 311.812 34.3823 312.053 34.2446C313.085 33.6595 313.997 32.9711 314.789 32.1795C315.581 31.3878 316.355 30.579 317.112 29.7529C317.594 29.2366 318.059 28.7204 318.506 28.2041C318.988 27.6878 319.453 27.1543 319.9 26.6036C320.072 26.4315 320.399 26.0185 320.881 25.3645C321.398 24.7105 321.965 23.9877 322.585 23.1961C323.205 22.37 323.755 21.6472 324.237 21.0277C324.753 20.3737 325.063 19.9779 325.166 19.8402C325.442 19.5649 325.855 19.4272 326.406 19.4272C326.681 19.4272 326.922 19.496 327.128 19.6337C327.369 19.737 327.49 19.9263 327.49 20.2016C327.49 20.4426 327.318 20.8556 326.973 21.4407C326.664 21.9914 326.285 22.611 325.838 23.2993C325.39 23.9533 324.96 24.5556 324.547 25.1063C324.134 25.6571 323.841 26.0701 323.669 26.3454C323.532 26.5864 323.273 27.051 322.895 27.7394C322.516 28.3934 322.103 29.1678 321.656 30.0627C321.243 30.9232 320.881 31.7664 320.571 32.5925C320.262 33.4186 320.107 34.1069 320.107 34.6577C320.107 35.2772 320.365 35.587 320.881 35.587C321.432 35.587 322.069 35.2428 322.791 34.5544C323.514 33.866 324.272 33.0227 325.063 32.0246C325.855 30.992 326.595 29.9767 327.283 28.9785C327.972 27.9459 328.557 27.0854 329.039 26.3971C329.176 26.225 329.314 26.1217 329.452 26.0873C329.589 26.0529 329.693 26.0357 329.761 26.0357C330.106 26.0357 330.312 26.2422 330.381 26.6552C330.381 26.7585 330.26 27.051 330.02 27.5329C329.779 28.0148 329.538 28.4106 329.297 28.7204C328.987 29.1678 328.505 29.8562 327.851 30.7855C327.232 31.6804 326.509 32.6441 325.683 33.6767C324.891 34.6749 324.013 35.5698 323.05 36.3614C322.43 36.8777 321.656 37.1358 320.726 37.1358ZM334.817 36.7228C334.163 36.7228 333.595 36.5163 333.113 36.1033C332.665 35.6902 332.442 35.0363 332.442 34.1414C332.442 33.4186 332.579 32.6786 332.855 31.9213C333.13 31.1297 333.388 30.5102 333.629 30.0627C334.18 28.9613 334.765 27.9459 335.384 27.0166C336.004 26.0529 336.469 25.3645 336.778 24.9515C336.159 24.9859 335.419 24.831 334.558 24.4868C333.732 24.1426 333.147 23.6952 332.803 23.1445C332.356 23.7984 331.719 24.8654 330.893 26.3454C330.067 27.791 329.017 29.3227 327.743 30.9404C327.537 31.2157 327.296 31.3534 327.021 31.3534C326.504 31.3534 326.246 31.1297 326.246 30.6822C326.246 30.5102 326.298 30.3553 326.401 30.2176C326.917 29.4948 327.554 28.5655 328.311 27.4296C329.103 26.2594 329.86 25.0547 330.583 23.8156C331.34 22.5421 331.943 21.4063 332.39 20.4081C332.528 20.0984 332.665 19.7714 332.803 19.4272C332.975 19.083 333.13 18.756 333.268 18.4463C333.405 18.2053 333.595 17.9988 333.836 17.8267C334.077 17.6202 334.352 17.5169 334.662 17.5169C334.937 17.5169 335.212 17.6374 335.488 17.8783C335.763 18.0848 335.901 18.3258 335.901 18.6011C335.901 18.9109 335.78 19.3067 335.539 19.7886C335.333 20.236 335.109 20.7007 334.868 21.1826C334.627 21.6644 334.507 22.0947 334.507 22.4733C334.507 22.7831 334.765 22.9896 335.281 23.0928C335.797 23.1961 336.176 23.2477 336.417 23.2477C337.346 23.2477 338.121 23.0584 338.74 22.6798C339.36 22.3012 339.79 22.1119 340.031 22.1119C340.238 22.1119 340.41 22.1979 340.547 22.37C340.719 22.5077 340.805 22.6626 340.805 22.8347C340.805 23.0756 340.702 23.2821 340.496 23.4542C340.014 23.9017 339.446 24.5384 338.792 25.3645C338.138 26.1906 337.484 27.0854 336.83 28.0492C336.176 29.0129 335.608 29.9594 335.126 30.8888C334.989 31.233 334.782 31.7148 334.507 32.3344C334.266 32.9539 334.145 33.539 334.145 34.0897C334.145 35.0191 334.472 35.4837 335.126 35.4837C335.402 35.4837 335.711 35.3805 336.056 35.1739C336.434 34.9674 336.796 34.7265 337.14 34.4511C337.966 33.6939 338.689 32.9539 339.308 32.2311C339.962 31.4739 340.616 30.6306 341.27 29.7013C341.924 28.772 342.681 27.6534 343.542 26.3454C343.679 26.1045 343.92 25.984 344.265 25.984C344.712 25.984 344.936 26.1906 344.936 26.6036C344.936 26.8101 344.833 27.1027 344.626 27.4813C344.144 28.3417 343.507 29.2883 342.716 30.3208C341.959 31.3534 341.167 32.3344 340.341 33.2637C339.549 34.1586 338.844 34.847 338.224 35.3288C337.123 36.2581 335.987 36.7228 334.817 36.7228ZM347.117 36.5163C345.327 36.5163 344.071 36 343.348 34.9674C342.66 33.9004 342.316 32.6613 342.316 31.2502C342.316 30.2176 342.574 28.9957 343.09 27.5845C343.606 26.1389 344.312 24.7277 345.207 23.351C346.136 21.9742 347.203 20.8384 348.408 19.9435C349.612 19.0142 350.903 18.5495 352.28 18.5495C353.175 18.5495 353.88 18.8077 354.397 19.3239C354.947 19.8058 355.223 20.4253 355.223 21.1826C355.223 22.6282 354.758 24.0221 353.829 25.3645C352.899 26.7068 351.695 27.8083 350.215 28.6687C348.735 29.5292 347.151 29.9594 345.465 29.9594C345.258 29.9594 345.052 29.9594 344.845 29.9594C344.639 29.925 344.432 29.8906 344.226 29.8562C344.123 30.3036 344.071 30.8199 344.071 31.405C344.071 32.2999 344.277 33.126 344.691 33.8832C345.138 34.6404 345.981 35.0191 347.22 35.0191C348.253 35.0191 349.251 34.7609 350.215 34.2446C351.179 33.7283 351.987 33.1432 352.641 32.4893C353.295 31.8353 353.846 31.2502 354.293 30.7339C354.741 30.2176 355.206 29.6325 355.687 28.9785C356.169 28.2901 356.772 27.3952 357.494 26.2938C357.632 26.0529 357.839 25.9324 358.114 25.9324C358.596 25.9324 358.837 26.1906 358.837 26.7068C358.837 26.8789 358.802 27.0166 358.734 27.1199C357.804 28.7031 356.772 30.2176 355.636 31.6632C354.5 33.0744 353.226 34.2446 351.815 35.1739C350.439 36.0688 348.872 36.5163 347.117 36.5163ZM345.826 28.359C347.134 28.359 348.356 28.0148 349.492 27.3264C350.662 26.6036 351.609 25.7087 352.332 24.6417C353.089 23.5747 353.467 22.4905 353.467 21.3891C353.467 21.0105 353.364 20.7007 353.158 20.4598C352.986 20.2188 352.676 20.0984 352.228 20.0984C351.333 20.0984 350.473 20.4081 349.647 21.0277C348.821 21.6128 348.064 22.37 347.375 23.2993C346.721 24.1942 346.153 25.0891 345.671 25.984C345.224 26.8789 344.897 27.6362 344.691 28.2557C344.863 28.2901 345.035 28.3245 345.207 28.359C345.413 28.359 345.62 28.359 345.826 28.359Z" fill="white"/>
</svg>
