<svg width="86" height="30" viewBox="0 0 86 30" fill="none" xmlns="http://www.w3.org/2000/svg">
<path d="M1.9735 29.64C1.5735 29.64 1.28016 29.44 1.0935 29.04C0.90683 28.64 0.78683 28.2 0.733496 27.72C0.680163 27.24 0.653496 26.88 0.653496 26.64C0.653496 25.8667 0.800163 24.9733 1.0935 23.96C1.38683 22.9467 1.76016 21.9067 2.2135 20.84C2.6935 19.7733 3.1735 18.76 3.6535 17.8C4.16016 16.8133 4.6135 15.96 5.0135 15.24C4.50683 15.0267 3.98683 14.8133 3.4535 14.6C2.94683 14.3867 2.42683 14.1867 1.8935 14C1.5735 13.8667 1.26683 13.68 0.973496 13.44C0.70683 13.2 0.573496 12.9067 0.573496 12.56C0.573496 12.2133 0.720163 11.96 1.0135 11.8C1.30683 11.6133 1.6535 11.4933 2.0535 11.44C2.48016 11.36 2.84016 11.32 3.1335 11.32C3.80016 11.32 4.4535 11.3867 5.0935 11.52C5.76016 11.6267 6.4135 11.76 7.0535 11.92C8.30683 9.94667 9.74683 7.96 11.3735 5.96C13.0002 3.96 14.7468 2.18667 16.6135 0.64C16.7468 0.506665 16.9068 0.439998 17.0935 0.439998C17.2535 0.439998 17.4002 0.506665 17.5335 0.64C17.6935 0.746665 17.7735 0.879998 17.7735 1.04C17.7735 1.14667 17.7068 1.26667 17.5735 1.4C17.3602 1.61333 17.1335 1.81333 16.8935 2C16.6535 2.18666 16.4268 2.38666 16.2135 2.6C15.8668 2.92 15.5335 3.24 15.2135 3.56C14.8935 3.88 14.5735 4.2 14.2535 4.52C13.1335 5.69333 12.0935 6.94667 11.1335 8.28C10.2002 9.58667 9.30683 10.9067 8.4535 12.24C10.9868 12.8267 13.4935 13.4667 15.9735 14.16C18.4802 14.8267 21.0002 15.4133 23.5335 15.92C24.7068 13.84 26.0135 11.7333 27.4535 9.6C28.9202 7.46667 30.5068 5.50667 32.2135 3.72C32.7468 3.16 33.2802 2.6 33.8135 2.04C34.3468 1.45333 34.9068 0.906665 35.4935 0.399998C35.5735 0.346666 35.6535 0.293332 35.7335 0.239998C35.8135 0.186665 35.9068 0.159999 36.0135 0.159999C36.2002 0.159999 36.3468 0.226665 36.4535 0.359999C36.5868 0.466666 36.6535 0.586666 36.6535 0.719999C36.6535 0.799999 36.6002 0.919999 36.4935 1.08C35.9868 1.64 35.4535 2.2 34.8935 2.76C34.3335 3.29333 33.7868 3.84 33.2535 4.4C31.6268 6.18667 30.1335 8.09333 28.7735 10.12C27.4135 12.12 26.1602 14.1467 25.0135 16.2C25.5468 16.28 26.0935 16.3867 26.6535 16.52C27.2402 16.6267 27.8002 16.68 28.3335 16.68C28.6268 16.68 29.0002 16.6133 29.4535 16.48C29.9068 16.3467 30.1335 16.1067 30.1335 15.76C30.1335 15.52 30.0402 15.3333 29.8535 15.2C29.6935 15.0667 29.5202 14.9467 29.3335 14.84C29.1468 14.7067 29.0535 14.56 29.0535 14.4C29.0535 14.24 29.1202 14.1067 29.2535 14C29.3868 13.8667 29.5335 13.8 29.6935 13.8C30.1202 13.8 30.4935 14.04 30.8135 14.52C31.1602 15 31.3335 15.4 31.3335 15.72C31.3335 16.44 30.9868 16.9733 30.2935 17.32C29.6268 17.6667 28.9468 17.84 28.2535 17.84C27.6135 17.84 26.9602 17.7867 26.2935 17.68C25.6535 17.5467 25.0268 17.4133 24.4135 17.28C23.7468 18.56 23.1202 19.8667 22.5335 21.2C21.9735 22.5067 21.5068 23.84 21.1335 25.2C21.4002 25.52 21.6402 25.8533 21.8535 26.2C22.0935 26.5733 22.2135 26.96 22.2135 27.36C22.2135 27.7333 22.0802 28.0667 21.8135 28.36C21.5468 28.68 21.1868 28.84 20.7335 28.84C20.3868 28.84 20.1202 28.7467 19.9335 28.56C19.7468 28.4 19.6135 28.1867 19.5335 27.92C19.4802 27.7067 19.4268 27.4667 19.3735 27.2C19.3202 26.96 19.2935 26.72 19.2935 26.48C19.2935 26.2933 19.3068 26.12 19.3335 25.96C19.3868 25.7733 19.4268 25.5867 19.4535 25.4C18.6002 23.96 17.4402 22.6533 15.9735 21.48C14.5335 20.28 12.9602 19.2133 11.2535 18.28C9.54683 17.32 7.88016 16.48 6.2535 15.76C5.90683 16.4 5.48016 17.2 4.9735 18.16C4.4935 19.12 4.0135 20.1467 3.5335 21.24C3.08016 22.3067 2.6935 23.3467 2.3735 24.36C2.08016 25.3467 1.9335 26.1867 1.9335 26.88C1.9335 27.36 2.00016 27.7067 2.1335 27.92C2.26683 28.16 2.40016 28.3333 2.5335 28.44C2.66683 28.5733 2.7335 28.7333 2.7335 28.92C2.7335 29.1067 2.6535 29.2667 2.4935 29.4C2.36016 29.56 2.18683 29.64 1.9735 29.64ZM5.6135 14.24C5.74683 14.0267 5.88016 13.8133 6.0135 13.6C6.14683 13.36 6.2935 13.1333 6.4535 12.92C5.92016 12.7867 5.36016 12.6667 4.7735 12.56C4.18683 12.4267 3.6135 12.36 3.0535 12.36C2.94683 12.36 2.74683 12.3867 2.4535 12.44C2.16016 12.4667 2.0135 12.5467 2.0135 12.68C2.0135 12.7867 2.08016 12.8667 2.2135 12.92C2.34683 12.9733 2.4535 13.0267 2.5335 13.08C3.04016 13.2933 3.54683 13.4933 4.0535 13.68C4.58683 13.84 5.10683 14.0267 5.6135 14.24ZM19.9735 23.76C20.4002 22.6133 20.8535 21.48 21.3335 20.36C21.8402 19.2133 22.3868 18.1067 22.9735 17.04C20.4135 16.48 17.8802 15.8533 15.3735 15.16C12.8668 14.4667 10.3468 13.8133 7.8135 13.2C7.44016 13.76 7.12016 14.2933 6.8535 14.8C9.30683 15.8667 11.6802 17.1467 13.9735 18.64C16.2935 20.1333 18.2935 21.84 19.9735 23.76ZM33.2029 26.92C32.4829 26.92 31.9095 26.7333 31.4829 26.36C31.0562 25.9867 30.7362 25.5333 30.5229 25C30.3362 24.44 30.2429 23.92 30.2429 23.44C30.2429 22.8 30.3629 22.0933 30.6029 21.32C30.8429 20.52 31.0562 19.9733 31.2429 19.68C31.2429 19.6 31.2295 19.52 31.2029 19.44C31.2029 19.3333 31.2029 19.24 31.2029 19.16C31.2029 18.44 31.3095 17.6933 31.5229 16.92C31.7629 16.0133 32.1895 15.1867 32.8029 14.44C33.4162 13.6667 34.1762 13.04 35.0829 12.56C36.0162 12.08 37.0295 11.84 38.1229 11.84C39.4029 11.84 40.3895 12.1867 41.0829 12.88C41.7762 13.5467 42.1229 14.4267 42.1229 15.52C42.1229 17.04 41.8429 18.3467 41.2829 19.44C40.7495 20.5333 40.1762 21.5867 39.5629 22.6C39.4562 22.8133 39.3629 22.9867 39.2829 23.12C39.2029 23.2533 39.2829 23.32 39.5229 23.32C40.2962 23.32 41.0562 23 41.8029 22.36C42.5495 21.72 43.4962 20.5067 44.6429 18.72C44.7229 18.5867 44.8029 18.48 44.8829 18.4C44.9629 18.32 45.0829 18.28 45.2429 18.28H45.3229C45.6162 18.28 45.7895 18.4533 45.8429 18.8C45.8429 18.88 45.8162 18.9733 45.7629 19.08C45.0962 20.2533 44.4162 21.2667 43.7229 22.12C43.0562 22.9733 42.2562 23.6267 41.3229 24.08C40.3895 24.5067 39.2162 24.7333 37.8029 24.76C37.2429 25.2933 36.5495 25.7867 35.7229 26.24C34.9229 26.6933 34.0829 26.92 33.2029 26.92ZM37.0429 23.24H37.4429C38.0029 22.5733 38.5362 21.8133 39.0429 20.96C39.5762 20.1067 40.0029 19.2267 40.3229 18.32C40.6429 17.3867 40.8029 16.5067 40.8029 15.68C40.8029 14.9067 40.6029 14.2533 40.2029 13.72C39.8029 13.16 39.1095 12.88 38.1229 12.88C37.4562 12.88 36.8029 13.0267 36.1629 13.32C35.5495 13.5867 35.0162 13.92 34.5629 14.32L34.6829 14.48C34.7362 14.4533 34.8162 14.44 34.9229 14.44C35.0829 14.44 35.2295 14.5067 35.3629 14.64C35.4962 14.7467 35.5629 14.8667 35.5629 15C35.5629 15.08 35.5495 15.1467 35.5229 15.2C35.4962 15.2533 35.4562 15.3067 35.4029 15.36C34.9495 16.0267 34.5095 16.6533 34.0829 17.24C33.6562 17.8267 33.2562 18.4933 32.8829 19.24C32.8029 19.4267 32.7095 19.6133 32.6029 19.8C32.8162 20.7867 33.3095 21.6133 34.0829 22.28C34.8829 22.92 35.8695 23.24 37.0429 23.24ZM33.4429 25.8C33.9762 25.8 34.5095 25.64 35.0429 25.32C35.5762 24.9733 36.0295 24.6533 36.4029 24.36C34.3762 24.1467 32.8829 23.2533 31.9229 21.68C31.8962 21.8667 31.8429 22.1467 31.7629 22.52C31.6829 22.8933 31.6429 23.2667 31.6429 23.64C31.6429 24.1733 31.7629 24.6667 32.0029 25.12C32.2429 25.5733 32.7229 25.8 33.4429 25.8ZM46.0347 27.44C45.5014 27.44 45.1014 27.2667 44.8347 26.92C44.5681 26.6 44.3947 26.2133 44.3147 25.76C44.2347 25.3067 44.1947 24.9067 44.1947 24.56C44.1947 23.4667 44.3947 22.24 44.7947 20.88C45.1947 19.52 45.6614 18.16 46.1947 16.8C46.7547 15.44 47.2614 14.2267 47.7147 13.16C47.2347 13.1867 46.7014 13.2667 46.1147 13.4C45.5547 13.5333 45.0481 13.6 44.5947 13.6C44.2214 13.6 44.0347 13.44 44.0347 13.12C44.0347 12.6667 44.2747 12.4 44.7547 12.32C45.3414 12.1867 45.9414 12.08 46.5547 12C47.1681 11.92 47.7681 11.8533 48.3547 11.8C48.5147 11.5067 48.7414 11.0533 49.0347 10.44C49.3281 9.82667 49.6614 9.17333 50.0347 8.48C50.4081 7.76 50.7681 7.12 51.1147 6.56C51.4881 5.97333 51.7947 5.56 52.0347 5.32C52.1947 5.16 52.3681 5.08 52.5547 5.08C52.7414 5.08 52.9014 5.13333 53.0347 5.24C53.1681 5.34666 53.2347 5.48 53.2347 5.64C53.2347 5.72 53.1947 5.82666 53.1147 5.96C52.4481 6.78667 51.8881 7.69333 51.4347 8.68C50.9814 9.66667 50.5281 10.6267 50.0747 11.56C50.5547 11.5067 51.0614 11.4533 51.5947 11.4C52.1281 11.3467 52.6481 11.32 53.1547 11.32C53.3147 11.32 53.4614 11.3467 53.5947 11.4C53.7547 11.4533 53.8347 11.5733 53.8347 11.76C53.8347 11.92 53.7547 12.0533 53.5947 12.16C53.4614 12.2667 53.3014 12.3467 53.1147 12.4C52.5281 12.5067 51.9147 12.6 51.2747 12.68C50.6614 12.7333 50.0481 12.8 49.4347 12.88C49.0881 13.68 48.6881 14.5733 48.2347 15.56C47.7814 16.5467 47.3414 17.5733 46.9147 18.64C46.5147 19.68 46.1814 20.6933 45.9147 21.68C45.6481 22.6667 45.5147 23.56 45.5147 24.36C45.5147 24.4933 45.5147 24.72 45.5147 25.04C45.5414 25.3333 45.6081 25.6 45.7147 25.84C45.8214 26.08 45.9814 26.2 46.1947 26.2C46.6481 26.2 46.9681 26.08 47.1547 25.84C47.3414 25.6 47.5547 25.48 47.7947 25.48C47.9814 25.48 48.1414 25.5333 48.2747 25.64C48.4347 25.7467 48.5147 25.88 48.5147 26.04C48.5147 26.28 48.3547 26.5067 48.0347 26.72C47.7414 26.9333 47.3947 27.1067 46.9947 27.24C46.5947 27.3733 46.2747 27.44 46.0347 27.44ZM55.4826 26.4C54.0959 26.4 53.1226 26 52.5626 25.2C52.0292 24.3733 51.7626 23.4133 51.7626 22.32C51.7626 21.52 51.9626 20.5733 52.3626 19.48C52.7626 18.36 53.3092 17.2667 54.0026 16.2C54.7226 15.1333 55.5492 14.2533 56.4826 13.56C57.4159 12.84 58.4159 12.48 59.4826 12.48C60.1759 12.48 60.7226 12.68 61.1226 13.08C61.5492 13.4533 61.7626 13.9333 61.7626 14.52C61.7626 15.64 61.4026 16.72 60.6826 17.76C59.9626 18.8 59.0292 19.6533 57.8826 20.32C56.7359 20.9867 55.5092 21.32 54.2026 21.32C54.0426 21.32 53.8826 21.32 53.7226 21.32C53.5626 21.2933 53.4026 21.2667 53.2426 21.24C53.1626 21.5867 53.1226 21.9867 53.1226 22.44C53.1226 23.1333 53.2826 23.7733 53.6026 24.36C53.9492 24.9467 54.6026 25.24 55.5626 25.24C56.3626 25.24 57.1359 25.04 57.8826 24.64C58.6292 24.24 59.2559 23.7867 59.7626 23.28C60.2692 22.7733 60.6959 22.32 61.0426 21.92C61.3892 21.52 61.7492 21.0667 62.1226 20.56C62.4959 20.0267 62.9626 19.3333 63.5226 18.48C63.6292 18.2933 63.7892 18.2 64.0026 18.2C64.3759 18.2 64.5626 18.4 64.5626 18.8C64.5626 18.9333 64.5359 19.04 64.4826 19.12C63.7626 20.3467 62.9626 21.52 62.0826 22.64C61.2026 23.7333 60.2159 24.64 59.1226 25.36C58.0559 26.0533 56.8426 26.4 55.4826 26.4ZM54.4826 20.08C55.4959 20.08 56.4426 19.8133 57.3226 19.28C58.2292 18.72 58.9626 18.0267 59.5226 17.2C60.1092 16.3733 60.4026 15.5333 60.4026 14.68C60.4026 14.3867 60.3226 14.1467 60.1626 13.96C60.0292 13.7733 59.7892 13.68 59.4426 13.68C58.7492 13.68 58.0826 13.92 57.4426 14.4C56.8026 14.8533 56.2159 15.44 55.6826 16.16C55.1759 16.8533 54.7359 17.5467 54.3626 18.24C54.0159 18.9333 53.7626 19.52 53.6026 20C53.7359 20.0267 53.8692 20.0533 54.0026 20.08C54.1626 20.08 54.3226 20.08 54.4826 20.08ZM65.7447 26.04C64.6781 26.04 63.9447 25.72 63.5447 25.08C63.1447 24.44 62.9447 23.6667 62.9447 22.76C62.9447 21.7467 63.1047 20.5867 63.4247 19.28C63.7714 17.9733 64.2114 16.6133 64.7447 15.2C65.3047 13.7867 65.9314 12.4 66.6247 11.04C67.3181 9.68 68.0247 8.44 68.7447 7.32C69.4647 6.2 70.1447 5.28 70.7847 4.56C71.3447 3.94667 71.8781 3.48 72.3847 3.16C72.9181 2.81333 73.4781 2.53333 74.0647 2.32C74.4647 2.16 74.8647 2.08 75.2647 2.08C75.7981 2.08 76.2514 2.21333 76.6247 2.48C77.0247 2.74667 77.2247 3.18667 77.2247 3.8C77.2247 4.38667 77.0114 5.06667 76.5847 5.84C76.1581 6.58667 75.6247 7.34667 74.9847 8.12C74.3447 8.89333 73.6914 9.61333 73.0247 10.28C72.3581 10.9467 71.7714 11.4933 71.2647 11.92C70.1447 12.8533 69.0647 13.7333 68.0247 14.56C66.9847 15.36 66.1181 16.1733 65.4247 17C65.0514 18.04 64.7581 19.0533 64.5447 20.04C64.3314 21 64.2247 21.8667 64.2247 22.64C64.2247 23.3333 64.3447 23.9067 64.5847 24.36C64.8514 24.8133 65.3047 25.04 65.9447 25.04C66.5847 25.04 67.1981 24.84 67.7847 24.44C68.3714 24.0133 68.9314 23.48 69.4647 22.84C70.0247 22.2 70.5314 21.56 70.9847 20.92C71.3047 20.4667 71.6114 20.0267 71.9047 19.6C72.2247 19.1467 72.4781 18.7867 72.6647 18.52C72.7714 18.3333 72.9447 18.24 73.1847 18.24C73.4781 18.24 73.6247 18.3867 73.6247 18.68C73.6247 18.8667 73.5447 19.1067 73.3847 19.4C73.0647 19.9333 72.6514 20.5733 72.1447 21.32C71.6381 22.0667 71.0647 22.8 70.4247 23.52C69.7847 24.24 69.0647 24.84 68.2647 25.32C67.4914 25.8 66.6514 26.04 65.7447 26.04ZM71.7447 5.36C71.1581 6 70.5314 6.82667 69.8647 7.84C69.2247 8.85333 68.5847 9.97333 67.9447 11.2C67.3047 12.4267 66.7181 13.6667 66.1847 14.92C67.0381 14.1467 67.8114 13.4933 68.5047 12.96C69.1981 12.4 69.8914 11.8133 70.5847 11.2C71.1981 10.6667 71.8514 10.0133 72.5447 9.24C73.2647 8.44 73.9314 7.61333 74.5447 6.76C75.1581 5.90667 75.5847 5.12 75.8247 4.4C75.9047 4.10667 75.9447 3.88 75.9447 3.72C75.9447 3.29333 75.7314 3.08 75.3047 3.08C75.1981 3.08 75.0781 3.09333 74.9447 3.12C74.8381 3.14667 74.7181 3.18667 74.5847 3.24C74.1047 3.42667 73.6247 3.69333 73.1447 4.04C72.6914 4.38667 72.2247 4.82667 71.7447 5.36ZM73.4463 26.4C72.1396 26.4 71.1396 26.1333 70.4463 25.6C69.753 25.0667 69.4063 24.5067 69.4063 23.92C69.4063 23.4933 69.593 23.12 69.9663 22.8C70.313 22.4533 70.913 22.28 71.7663 22.28C72.2996 22.28 72.9396 22.36 73.6863 22.52C74.2463 22.6533 74.833 22.8267 75.4463 23.04C76.0863 23.2533 76.7396 23.3467 77.4063 23.32C77.593 23.0267 77.6996 22.7867 77.7263 22.6C77.753 22.4133 77.7663 22.1867 77.7663 21.92C77.7663 21.04 77.6196 20.3067 77.3263 19.72C77.0596 19.1333 76.7396 18.56 76.3663 18C76.0196 17.44 75.7263 16.76 75.4863 15.96C75.1396 16.5467 74.6996 17.32 74.1663 18.28C73.633 19.2133 72.753 20.4933 71.5263 22.12C71.4463 22.2533 71.2863 22.32 71.0463 22.32C70.6463 22.32 70.4463 22.1467 70.4463 21.8C70.4463 21.72 70.513 21.6 70.6463 21.44C70.753 21.28 71.0196 20.8667 71.4463 20.2C71.9263 19.4267 72.4863 18.56 73.1263 17.6C73.7663 16.6133 74.3796 15.5333 74.9663 14.36C74.993 13.9067 75.0863 13.4667 75.2463 13.04C75.4063 12.6133 75.593 12.2267 75.8063 11.88C76.0996 11.4 76.4063 11.0533 76.7263 10.84C77.0463 10.6 77.3396 10.48 77.6063 10.48C78.113 10.48 78.3663 10.7733 78.3663 11.36C78.3663 11.76 78.2063 12.28 77.8863 12.92C77.6996 13.32 77.4596 13.6667 77.1663 13.96C76.873 14.2267 76.6196 14.4667 76.4063 14.68C76.4596 15.3467 76.6196 15.9467 76.8863 16.48C77.153 17.0133 77.4463 17.5333 77.7663 18.04C78.113 18.5467 78.4063 19.0933 78.6463 19.68C78.8863 20.2667 79.0063 20.9733 79.0063 21.8C79.0063 22.3333 78.913 22.8267 78.7263 23.28C79.313 23.3067 79.913 23.0933 80.5263 22.64C81.1663 22.16 81.7663 21.5467 82.3263 20.8C82.913 20.0533 83.433 19.2933 83.8863 18.52C84.0196 18.3333 84.193 18.24 84.4063 18.24C84.5396 18.24 84.673 18.28 84.8063 18.36C84.9396 18.44 85.0063 18.5733 85.0063 18.76C85.0063 18.8667 84.9663 19 84.8863 19.16C84.113 20.5467 83.3663 21.6267 82.6463 22.4C81.953 23.1467 81.2463 23.6667 80.5263 23.96C79.8063 24.2533 79.0063 24.4267 78.1263 24.48C77.4596 25.0933 76.7396 25.5733 75.9663 25.92C75.2196 26.24 74.3796 26.4 73.4463 26.4ZM73.2463 25.44C73.8596 25.44 74.393 25.3467 74.8463 25.16C75.2996 24.9733 75.793 24.7067 76.3263 24.36C75.7663 24.28 75.2996 24.1867 74.9263 24.08C74.553 23.9467 74.073 23.8133 73.4863 23.68C72.7396 23.52 72.153 23.44 71.7263 23.44C70.953 23.44 70.5663 23.6267 70.5663 24C70.5663 24.2933 70.8196 24.6133 71.3263 24.96C71.833 25.28 72.473 25.44 73.2463 25.44Z" fill="#53974A"/>
</svg>
