<svg width="20" height="20" viewBox="0 0 20 20" fill="none" xmlns="http://www.w3.org/2000/svg">
<path d="M14.6154 0H5.38462C3.957 0.00152714 2.58828 0.569324 1.5788 1.5788C0.569324 2.58828 0.00152714 3.957 0 5.38462V14.6154C0.00152714 16.043 0.569324 17.4117 1.5788 18.4212C2.58828 19.4307 3.957 19.9985 5.38462 20H14.6154C16.043 19.9985 17.4117 19.4307 18.4212 18.4212C19.4307 17.4117 19.9985 16.043 20 14.6154V5.38462C19.9985 3.957 19.4307 2.58828 18.4212 1.5788C17.4117 0.569324 16.043 0.00152714 14.6154 0ZM10 14.6154C9.08716 14.6154 8.19483 14.3447 7.43583 13.8376C6.67683 13.3304 6.08527 12.6096 5.73594 11.7662C5.38661 10.9229 5.29521 9.99488 5.4733 9.09958C5.65138 8.20429 6.09096 7.3819 6.73643 6.73643C7.3819 6.09096 8.20429 5.65138 9.09958 5.4733C9.99488 5.29521 10.9229 5.38661 11.7662 5.73594C12.6096 6.08527 13.3304 6.67683 13.8376 7.43583C14.3447 8.19483 14.6154 9.08716 14.6154 10C14.6141 11.2237 14.1274 12.3969 13.2622 13.2622C12.3969 14.1274 11.2237 14.6141 10 14.6154ZM15.7692 5.38462C15.541 5.38462 15.3179 5.31694 15.1282 5.19016C14.9384 5.06337 14.7905 4.88316 14.7032 4.67233C14.6159 4.46149 14.593 4.22949 14.6376 4.00566C14.6821 3.78184 14.792 3.57625 14.9533 3.41488C15.1147 3.25351 15.3203 3.14362 15.5441 3.09909C15.768 3.05457 16 3.07742 16.2108 3.16475C16.4216 3.25209 16.6018 3.39998 16.7286 3.58973C16.8554 3.77948 16.9231 4.00256 16.9231 4.23077C16.9231 4.53679 16.8015 4.83027 16.5851 5.04666C16.3687 5.26305 16.0753 5.38462 15.7692 5.38462ZM13.0769 10C13.0769 10.6086 12.8965 11.2034 12.5584 11.7094C12.2203 12.2154 11.7397 12.6098 11.1775 12.8427C10.6153 13.0756 9.99659 13.1365 9.39972 13.0178C8.80286 12.8991 8.2546 12.606 7.82429 12.1757C7.39397 11.7454 7.10092 11.1971 6.9822 10.6003C6.86348 10.0034 6.92441 9.38475 7.15729 8.82251C7.39018 8.26028 7.78456 7.77973 8.29055 7.44163C8.79655 7.10354 9.39144 6.92308 10 6.92308C10.8161 6.92308 11.5987 7.24725 12.1757 7.82429C12.7527 8.40132 13.0769 9.18395 13.0769 10Z" fill="white"/>
</svg>
