<svg width="143" height="42" viewBox="0 0 143 42" fill="none" xmlns="http://www.w3.org/2000/svg">
<path d="M8.56 9.64C8.08 9.64 7.41333 9.61333 6.56 9.56C5.73333 9.48 4.92 9.37333 4.12 9.24C3.32 9.10667 2.70667 8.92 2.28 8.68C1.72 8.33333 1.21333 7.92 0.76 7.44C0.28 6.96 0.04 6.4 0.04 5.76C0.04 4.98666 0.36 4.30666 1 3.72C1.64 3.10666 2.42667 2.6 3.36 2.2C4.32 1.8 5.29333 1.49333 6.28 1.28C7.26667 1.04 8.10667 0.906665 8.8 0.879999C9.12 0.853332 9.42667 0.839999 9.72 0.839999C10.04 0.839999 10.36 0.839999 10.68 0.839999C13.6133 0.839999 16.5333 1.14667 19.44 1.76C22.3467 2.37333 25.2133 3.01333 28.04 3.68C29.8 4.10667 31.6133 4.50667 33.48 4.88C35.3467 5.25333 37.2 5.44 39.04 5.44C39.3333 5.44 39.7067 5.42667 40.16 5.4C40.6133 5.34667 41.0133 5.24 41.36 5.08C41.7333 4.92 41.92 4.66667 41.92 4.32C41.92 4.05333 41.8267 3.86667 41.64 3.76C41.48 3.62667 41.3067 3.52 41.12 3.44C40.9333 3.33333 40.84 3.18667 40.84 3C40.84 2.84 40.9067 2.69333 41.04 2.56C41.2 2.42667 41.3733 2.36 41.56 2.36C41.8267 2.36 42.1067 2.48 42.4 2.72C42.72 2.96 42.9867 3.24 43.2 3.56C43.44 3.88 43.56 4.17333 43.56 4.44C43.56 5.05333 43.2933 5.52 42.76 5.84C42.2267 6.13333 41.6 6.33333 40.88 6.44C40.1867 6.52 39.5867 6.56 39.08 6.56C37.24 6.56 35.3867 6.37333 33.52 6C31.68 5.62667 29.8667 5.22667 28.08 4.8C25.28 4.13333 22.4267 3.50667 19.52 2.92C16.64 2.30667 13.7333 2 10.8 2C10.48 2 10.16 2 9.84 2C9.54667 2 9.24 2.01333 8.92 2.04C8.17333 2.09333 7.30667 2.24 6.32 2.48C5.33333 2.69333 4.4 3 3.52 3.4C2.66667 3.8 2.04 4.30667 1.64 4.92C1.45333 5.18667 1.36 5.44 1.36 5.68C1.36 6.10666 1.54667 6.49333 1.92 6.84C2.32 7.18667 2.70667 7.46667 3.08 7.68C3.42667 7.89333 3.94667 8.06667 4.64 8.2C5.36 8.30667 6.08 8.38667 6.8 8.44C7.54667 8.46667 8.12 8.48 8.52 8.48C9.61333 8.48 10.6933 8.41333 11.76 8.28C12.8267 8.14667 13.8667 7.94667 14.88 7.68C15.04 7.62667 15.3067 7.53333 15.68 7.4C16.0533 7.26666 16.4533 7.13333 16.88 7C17.3333 6.84 17.7067 6.70667 18 6.6C18.32 6.46667 18.4933 6.4 18.52 6.4C18.7333 6.4 18.9067 6.48 19.04 6.64C19.1733 6.77333 19.24 6.92 19.24 7.08C19.24 7.26667 19.1067 7.42667 18.84 7.56C18.3333 7.82666 17.76 8.06667 17.12 8.28C16.48 8.46667 15.8533 8.64 15.24 8.8C13.08 9.36 10.8533 9.64 8.56 9.64ZM14.24 29.6C13.8133 29.6 13.6 29.4 13.6 29C13.6 28.7067 13.6667 28.36 13.8 27.96C13.96 27.56 14.0933 27.2267 14.2 26.96C14.84 25.3867 15.5867 23.8267 16.44 22.28C17.32 20.7333 18.1733 19.2 19 17.68C19.24 17.2267 19.6 16.5867 20.08 15.76C20.56 14.9067 21.04 14 21.52 13.04C22.0267 12.0533 22.4533 11.1467 22.8 10.32C23.1733 9.49333 23.36 8.86667 23.36 8.44C23.36 8.30667 23.3333 8.2 23.28 8.12C23.2267 8.01333 23.2 7.90667 23.2 7.8C23.2 7.66667 23.2667 7.54667 23.4 7.44C23.5333 7.33333 23.6933 7.28 23.88 7.28C24.2267 7.28 24.44 7.41333 24.52 7.68C24.6 7.94667 24.64 8.2 24.64 8.44C24.64 8.97333 24.4667 9.68 24.12 10.56C23.7733 11.4133 23.3467 12.3333 22.84 13.32C22.36 14.28 21.88 15.2 21.4 16.08C20.92 16.9333 20.5333 17.6267 20.24 18.16C19.4133 19.6533 18.5733 21.16 17.72 22.68C16.8667 24.2 16.12 25.7467 15.48 27.32C15.3733 27.6133 15.2667 27.9067 15.16 28.2C15.08 28.4933 15 28.7867 14.92 29.08C14.84 29.4267 14.6133 29.6 14.24 29.6ZM27.7678 28.92C27.0478 28.92 26.4745 28.7333 26.0478 28.36C25.6211 27.9867 25.3011 27.5333 25.0878 27C24.9011 26.44 24.8078 25.92 24.8078 25.44C24.8078 24.8 24.9278 24.0933 25.1678 23.32C25.4078 22.52 25.6211 21.9733 25.8078 21.68C25.8078 21.6 25.7945 21.52 25.7678 21.44C25.7678 21.3333 25.7678 21.24 25.7678 21.16C25.7678 20.44 25.8745 19.6933 26.0878 18.92C26.3278 18.0133 26.7545 17.1867 27.3678 16.44C27.9811 15.6667 28.7411 15.04 29.6478 14.56C30.5811 14.08 31.5945 13.84 32.6878 13.84C33.9678 13.84 34.9545 14.1867 35.6478 14.88C36.3411 15.5467 36.6878 16.4267 36.6878 17.52C36.6878 19.04 36.4078 20.3467 35.8478 21.44C35.3145 22.5333 34.7411 23.5867 34.1278 24.6C34.0211 24.8133 33.9278 24.9867 33.8478 25.12C33.7678 25.2533 33.8478 25.32 34.0878 25.32C34.8611 25.32 35.6211 25 36.3678 24.36C37.1145 23.72 38.0611 22.5067 39.2078 20.72C39.2878 20.5867 39.3678 20.48 39.4478 20.4C39.5278 20.32 39.6478 20.28 39.8078 20.28H39.8878C40.1811 20.28 40.3545 20.4533 40.4078 20.8C40.4078 20.88 40.3811 20.9733 40.3278 21.08C39.6611 22.2533 38.9811 23.2667 38.2878 24.12C37.6211 24.9733 36.8211 25.6267 35.8878 26.08C34.9545 26.5067 33.7811 26.7333 32.3678 26.76C31.8078 27.2933 31.1145 27.7867 30.2878 28.24C29.4878 28.6933 28.6478 28.92 27.7678 28.92ZM31.6078 25.24H32.0078C32.5678 24.5733 33.1011 23.8133 33.6078 22.96C34.1411 22.1067 34.5678 21.2267 34.8878 20.32C35.2078 19.3867 35.3678 18.5067 35.3678 17.68C35.3678 16.9067 35.1678 16.2533 34.7678 15.72C34.3678 15.16 33.6745 14.88 32.6878 14.88C32.0211 14.88 31.3678 15.0267 30.7278 15.32C30.1145 15.5867 29.5811 15.92 29.1278 16.32L29.2478 16.48C29.3011 16.4533 29.3811 16.44 29.4878 16.44C29.6478 16.44 29.7945 16.5067 29.9278 16.64C30.0611 16.7467 30.1278 16.8667 30.1278 17C30.1278 17.08 30.1145 17.1467 30.0878 17.2C30.0611 17.2533 30.0211 17.3067 29.9678 17.36C29.5145 18.0267 29.0745 18.6533 28.6478 19.24C28.2211 19.8267 27.8211 20.4933 27.4478 21.24C27.3678 21.4267 27.2745 21.6133 27.1678 21.8C27.3811 22.7867 27.8745 23.6133 28.6478 24.28C29.4478 24.92 30.4345 25.24 31.6078 25.24ZM28.0078 27.8C28.5411 27.8 29.0745 27.64 29.6078 27.32C30.1411 26.9733 30.5945 26.6533 30.9678 26.36C28.9411 26.1467 27.4478 25.2533 26.4878 23.68C26.4611 23.8667 26.4078 24.1467 26.3278 24.52C26.2478 24.8933 26.2078 25.2667 26.2078 25.64C26.2078 26.1733 26.3278 26.6667 26.5678 27.12C26.8078 27.5733 27.2878 27.8 28.0078 27.8ZM31.5597 41.64C31.053 41.64 30.693 41.4933 30.4797 41.2C30.2397 40.9333 30.1197 40.5867 30.1197 40.16C30.1197 39.6267 30.2397 39.0267 30.4797 38.36C30.693 37.72 30.9597 37.0667 31.2797 36.4C31.573 35.7333 31.8664 35.1467 32.1597 34.64C32.453 34.1333 32.6664 33.76 32.7997 33.52C33.4664 32.3733 34.173 31.2533 34.9197 30.16C35.6664 29.0667 36.453 27.9867 37.2797 26.92C38.053 25.9333 38.8397 24.96 39.6397 24C40.4397 23.0133 41.2797 22.0667 42.1597 21.16C42.2397 20.68 42.293 20.1867 42.3197 19.68C42.3464 19.1733 42.3597 18.6667 42.3597 18.16C42.3597 17.8667 42.3597 17.5867 42.3597 17.32C42.3597 17.0533 42.3464 16.8 42.3197 16.56C42.293 16.3467 42.2397 16.1333 42.1597 15.92C42.0797 15.7067 41.9997 15.5067 41.9197 15.32C41.9197 15.2667 41.9064 15.2133 41.8797 15.16C41.8797 15.1067 41.8797 15.0667 41.8797 15.04C41.8797 14.88 42.0397 14.7467 42.3597 14.64C42.6797 14.5333 42.933 14.48 43.1197 14.48C43.5464 14.48 43.7997 14.72 43.8797 15.2C43.9597 15.6533 43.9997 16.0267 43.9997 16.32C43.9997 16.88 43.9597 17.44 43.8797 18C43.8264 18.5333 43.773 19.0667 43.7197 19.6C44.013 19.3067 44.413 18.9333 44.9197 18.48C45.453 18 46.013 17.52 46.5997 17.04C47.213 16.56 47.813 16.16 48.3997 15.84C49.013 15.52 49.5597 15.36 50.0397 15.36C50.813 15.36 51.3997 15.64 51.7997 16.2C52.2264 16.7333 52.5064 17.3467 52.6397 18.04C52.7997 18.7333 52.8664 19.3333 52.8397 19.84C53.0797 19.7867 53.533 19.7467 54.1997 19.72C54.893 19.6667 55.453 19.64 55.8797 19.64C56.2264 19.64 56.4397 19.6933 56.5197 19.8C56.6264 19.88 56.6797 19.9867 56.6797 20.12C56.6797 20.2 56.6397 20.2933 56.5597 20.4C56.4797 20.5067 56.333 20.5733 56.1197 20.6C55.7997 20.6267 55.3997 20.68 54.9197 20.76C54.4664 20.8133 54.0264 20.88 53.5997 20.96C53.173 21.0133 52.853 21.08 52.6397 21.16C52.4264 22.0667 51.9997 23 51.3597 23.96C50.7197 24.8933 49.933 25.7733 48.9997 26.6C48.0664 27.4 47.053 28.04 45.9597 28.52C44.8664 29.0267 43.7597 29.28 42.6397 29.28C42.3197 29.28 41.973 29.24 41.5997 29.16L41.3597 29.76C40.9597 30.6667 40.4264 31.7467 39.7597 33C39.1197 34.28 38.373 35.52 37.5197 36.72C37.2797 37.04 36.9464 37.4667 36.5197 38C36.093 38.56 35.613 39.1067 35.0797 39.64C34.5197 40.2 33.933 40.6667 33.3197 41.04C32.7064 41.44 32.1197 41.64 31.5597 41.64ZM43.1197 23.64C44.4264 22.76 45.7597 22.04 47.1197 21.48C48.4797 20.92 49.9464 20.4667 51.5197 20.12C51.5997 19.6667 51.6397 19.2267 51.6397 18.8C51.6397 18.5333 51.5997 18.2267 51.5197 17.88C51.4664 17.5067 51.333 17.1733 51.1197 16.88C50.933 16.5867 50.6397 16.44 50.2397 16.44C49.813 16.44 49.2664 16.6667 48.5997 17.12C47.9597 17.5467 47.2797 18.0667 46.5597 18.68C45.8664 19.2933 45.2264 19.88 44.6397 20.44C44.053 21 43.6397 21.4133 43.3997 21.68L43.1197 23.64ZM42.9597 28.16C44.0264 28.16 45.0664 27.8667 46.0797 27.28C47.1197 26.6667 48.0397 25.9333 48.8397 25.08C49.6664 24.2267 50.2797 23.4267 50.6797 22.68C50.7864 22.4667 50.8797 22.2533 50.9597 22.04C51.0397 21.8267 51.133 21.6267 51.2397 21.44C49.5597 21.8667 48.0264 22.4 46.6397 23.04C45.2797 23.6533 43.9464 24.4667 42.6397 25.48C42.533 25.9067 42.4264 26.3333 42.3197 26.76C42.2397 27.16 42.133 27.5733 41.9997 28C42.2397 28.1067 42.5597 28.16 42.9597 28.16ZM31.9197 40.32C32.293 40.32 32.733 40.1067 33.2397 39.68C33.7197 39.28 34.2264 38.7867 34.7597 38.2C35.2664 37.6133 35.7197 37.0533 36.1197 36.52C36.5197 35.9867 36.7997 35.6 36.9597 35.36C37.7864 34.1067 38.5064 32.8267 39.1197 31.52C39.733 30.24 40.1464 29.1867 40.3597 28.36C40.2797 28.2267 40.2264 28.08 40.1997 27.92C40.173 27.76 40.1597 27.6 40.1597 27.44C40.1597 26.96 40.2797 26.4933 40.5197 26.04C40.7597 25.5867 41.0664 25.1867 41.4397 24.84C41.493 24.6533 41.5464 24.4533 41.5997 24.24C41.653 24.0267 41.693 23.8133 41.7197 23.6C40.973 24.4533 40.333 25.1867 39.7997 25.8C39.293 26.4133 38.813 27.0133 38.3597 27.6C37.533 28.6667 36.7464 29.7467 35.9997 30.84C35.253 31.9333 34.5464 33.0667 33.8797 34.24C33.7464 34.48 33.5464 34.84 33.2797 35.32C33.013 35.8 32.7464 36.32 32.4797 36.88C32.1864 37.4667 31.9464 38.0133 31.7597 38.52C31.573 39.0533 31.4797 39.48 31.4797 39.8C31.4797 40.1467 31.6264 40.32 31.9197 40.32ZM77.9325 19.96C77.3458 19.96 76.6925 19.96 75.9725 19.96C75.2792 19.96 74.6258 19.9067 74.0125 19.8C73.6392 19.7467 73.4525 19.56 73.4525 19.24C73.4525 18.84 73.7058 18.64 74.2125 18.64C74.3992 18.64 74.5858 18.6533 74.7725 18.68C74.9592 18.7067 75.1458 18.72 75.3325 18.72C75.8125 18.7467 76.2925 18.7733 76.7725 18.8C77.2525 18.8 77.7192 18.8 78.1725 18.8C79.8258 18.8 81.5858 18.68 83.4525 18.44C85.3192 18.2 87.1325 17.8 88.8925 17.24C90.6525 16.68 92.2125 15.9067 93.5725 14.92C94.9325 13.9067 95.9325 12.64 96.5725 11.12C96.7325 10.72 96.8525 10.3067 96.9325 9.88C97.0392 9.45333 97.0925 9.02667 97.0925 8.6C97.0925 7.29333 96.7192 6.2 95.9725 5.32C95.2258 4.44 94.2525 3.74667 93.0525 3.24C91.8525 2.70666 90.5725 2.33333 89.2125 2.12C87.8525 1.88 86.5592 1.76 85.3325 1.76H84.6125C83.1458 1.81333 81.5592 1.93333 79.8525 2.12C78.1725 2.28 76.4925 2.56 74.8125 2.96C73.1325 3.36 71.5725 3.92 70.1325 4.64C68.6925 5.36 67.5058 6.28 66.5725 7.4C66.1458 7.88 65.7992 8.41333 65.5325 9C65.2658 9.58667 65.1325 10.1867 65.1325 10.8C65.1325 10.9867 65.1592 11.1733 65.2125 11.36C65.2925 11.5467 65.3325 11.7333 65.3325 11.92C65.3325 12.08 65.2658 12.2133 65.1325 12.32C64.9992 12.4267 64.8392 12.48 64.6525 12.48C64.2525 12.48 64.0125 12.2933 63.9325 11.92C63.8525 11.52 63.8125 11.2133 63.8125 11C63.8125 10.3067 63.9458 9.62667 64.2125 8.96C64.5058 8.29333 64.8658 7.68 65.2925 7.12C66.2792 5.81333 67.5192 4.74666 69.0125 3.92C70.5325 3.09333 72.1858 2.45333 73.9725 2C75.7592 1.54666 77.5725 1.22666 79.4125 1.04C81.2525 0.826665 82.9858 0.693332 84.6125 0.639999H85.2925C86.7058 0.639999 88.1725 0.773333 89.6925 1.04C91.2125 1.30667 92.6258 1.74667 93.9325 2.36C95.2658 2.97333 96.3458 3.78667 97.1725 4.8C97.9992 5.81333 98.4125 7.06666 98.4125 8.56C98.4125 9.57333 98.2125 10.5467 97.8125 11.48C97.1192 13.1333 96.0392 14.5067 94.5725 15.6C93.1058 16.6933 91.4258 17.56 89.5325 18.2C87.6392 18.84 85.6792 19.2933 83.6525 19.56C81.6258 19.8267 79.7192 19.96 77.9325 19.96ZM69.6125 30.08C69.1058 30.08 68.7058 29.8533 68.4125 29.4C68.1192 28.9467 67.8925 28.44 67.7325 27.88C67.5992 27.2933 67.5325 26.8533 67.5325 26.56C67.5325 26.3467 67.5458 26.1333 67.5725 25.92C67.6258 25.7067 67.6792 25.4933 67.7325 25.28C68.3992 23.0667 69.3058 20.8533 70.4525 18.64C71.5992 16.4267 72.9058 14.28 74.3725 12.2C75.8392 10.0933 77.3592 8.14667 78.9325 6.36C79.2258 6.04 79.5192 5.72 79.8125 5.4C80.1325 5.08 80.4525 4.77333 80.7725 4.48C81.0125 4.26667 81.2658 4.05333 81.5325 3.84C81.8258 3.62666 82.0525 3.4 82.2125 3.16C82.2925 3.02666 82.3725 2.93333 82.4525 2.88C82.5325 2.8 82.6658 2.76 82.8525 2.76C83.0125 2.76 83.1592 2.81333 83.2925 2.92C83.4258 3.02667 83.4925 3.16 83.4925 3.32C83.4925 3.4 83.4792 3.46667 83.4525 3.52C83.4258 3.62666 83.2658 3.81333 82.9725 4.08C82.6792 4.34667 82.3725 4.61333 82.0525 4.88C81.7592 5.14667 81.5592 5.34667 81.4525 5.48C81.1858 5.72 80.9192 5.97333 80.6525 6.24C80.4125 6.50667 80.1858 6.77333 79.9725 7.04C78.4258 8.8 76.9325 10.7067 75.4925 12.76C74.0792 14.7867 72.8125 16.8933 71.6925 19.08C70.5725 21.24 69.6792 23.4133 69.0125 25.6C68.8792 26.0533 68.8125 26.4667 68.8125 26.84C68.8125 27.5867 68.9325 28.0933 69.1725 28.36C69.4392 28.6533 69.6925 28.84 69.9325 28.92C70.1725 29.0267 70.2925 29.2 70.2925 29.44C70.2925 29.6 70.2258 29.7467 70.0925 29.88C69.9858 30.0133 69.8258 30.08 69.6125 30.08ZM102.158 11.68C102.024 11.68 101.878 11.6533 101.718 11.6C101.558 11.5467 101.478 11.4267 101.478 11.24C101.478 11.1067 101.518 10.9867 101.598 10.88C101.811 10.48 102.198 10.1333 102.758 9.84C103.344 9.54667 103.784 9.4 104.078 9.4C104.211 9.4 104.358 9.44 104.518 9.52C104.678 9.57333 104.758 9.69333 104.758 9.88C104.758 10.3333 104.478 10.7467 103.918 11.12C103.384 11.4933 102.798 11.68 102.158 11.68ZM97.6775 28.04C96.7708 28.04 96.0508 27.7867 95.5175 27.28C94.9842 26.7733 94.7175 26.0667 94.7175 25.16C94.7175 24.6267 94.7708 24.1067 94.8775 23.6C94.9842 23.0667 95.1308 22.5467 95.3175 22.04C95.4242 21.7467 95.6375 21.2667 95.9575 20.6C96.3042 19.9067 96.7042 19.1867 97.1575 18.44C97.6108 17.6667 98.0508 17.0133 98.4775 16.48C98.9042 15.9467 99.2775 15.68 99.5975 15.68C99.7308 15.68 99.9042 15.7333 100.118 15.84C100.358 15.92 100.478 16.0533 100.478 16.24C100.478 16.3467 100.424 16.48 100.317 16.64C99.7042 17.3333 99.0642 18.16 98.3975 19.12C97.7308 20.08 97.1708 21.08 96.7175 22.12C96.2642 23.16 96.0375 24.16 96.0375 25.12C96.0375 26.3467 96.6242 26.96 97.7975 26.96C98.5975 26.96 99.3975 26.5733 100.198 25.8C101.024 25.0267 101.931 23.9867 102.918 22.68C103.211 22.3067 103.464 21.9467 103.678 21.6C103.918 21.2267 104.131 20.9067 104.318 20.64C104.504 20.4533 104.704 20.36 104.918 20.36C105.238 20.36 105.398 20.48 105.398 20.72C105.398 21.0133 105.184 21.48 104.758 22.12C104.331 22.76 103.851 23.4267 103.318 24.12C102.278 25.4 101.371 26.3733 100.598 27.04C99.8242 27.7067 98.8508 28.04 97.6775 28.04ZM107.558 28.4C106.171 28.4 105.131 27.9467 104.438 27.04C103.744 26.1333 103.398 25.1333 103.398 24.04C103.398 23.3467 103.504 22.68 103.718 22.04C103.931 21.3733 104.211 20.7467 104.558 20.16C104.878 19.5733 105.304 18.92 105.838 18.2C106.371 17.48 106.984 16.7867 107.678 16.12C108.371 15.4533 109.118 14.9067 109.918 14.48C110.718 14.0533 111.558 13.84 112.438 13.84C113.184 13.84 113.731 14.0667 114.078 14.52C114.451 14.9733 114.638 15.4933 114.638 16.08C114.638 16.2667 114.584 16.56 114.478 16.96C114.371 17.36 114.224 17.7733 114.038 18.2C113.878 18.6267 113.678 19 113.438 19.32C113.198 19.6133 112.931 19.76 112.638 19.76C112.478 19.76 112.331 19.7067 112.198 19.6C112.064 19.4667 111.998 19.3333 111.998 19.2C111.998 19.12 112.104 18.9333 112.318 18.64C112.531 18.3467 112.744 17.9867 112.958 17.56C113.171 17.1333 113.278 16.68 113.278 16.2C113.278 15.9067 113.198 15.64 113.038 15.4C112.904 15.16 112.638 15.04 112.238 15.04C111.571 15.04 110.891 15.2533 110.198 15.68C109.531 16.08 108.904 16.6 108.318 17.24C107.731 17.8533 107.211 18.48 106.758 19.12C106.304 19.7333 105.958 20.2667 105.718 20.72C105.451 21.2 105.238 21.7067 105.078 22.24C104.944 22.7467 104.878 23.2667 104.878 23.8C104.878 24.3333 104.958 24.8667 105.118 25.4C105.278 25.9333 105.558 26.3733 105.958 26.72C106.358 27.0667 106.918 27.24 107.638 27.24C108.438 27.24 109.211 27.04 109.958 26.64C110.704 26.24 111.331 25.7867 111.838 25.28C112.371 24.7733 112.798 24.32 113.118 23.92C113.464 23.52 113.811 23.0667 114.158 22.56C114.531 22.0267 114.998 21.3333 115.558 20.48C115.664 20.2933 115.824 20.2 116.038 20.2C116.411 20.2 116.598 20.4 116.598 20.8C116.598 20.9333 116.571 21.04 116.518 21.12C115.798 22.2667 114.998 23.4 114.118 24.52C113.264 25.64 112.291 26.5733 111.198 27.32C110.131 28.04 108.918 28.4 107.558 28.4ZM115.21 28.04C114.783 28.04 114.57 27.8533 114.57 27.48C114.57 27.4267 114.676 27.1333 114.89 26.6C115.13 26.0667 115.41 25.4533 115.73 24.76C116.05 24.0667 116.343 23.4267 116.61 22.84C116.876 22.2267 117.05 21.84 117.13 21.68C117.103 21.5467 117.023 21.28 116.89 20.88C116.783 20.4533 116.73 20.0533 116.73 19.68C116.73 19.3867 116.783 19.1467 116.89 18.96C116.996 18.7467 117.183 18.64 117.45 18.64C117.583 18.64 117.73 18.72 117.89 18.88C118.076 19.04 118.21 19.1467 118.29 19.2C118.503 18.8 118.69 18.4 118.85 18C119.01 17.6 119.183 17.2 119.37 16.8C120.276 14.6933 121.143 12.6533 121.97 10.68C122.796 8.68 123.703 6.64 124.69 4.56C124.823 4.32 124.996 4.13333 125.21 4C125.45 3.86667 125.663 3.8 125.85 3.8C126.25 3.8 126.45 3.97333 126.45 4.32C126.45 4.53333 126.303 5.01333 126.01 5.76C125.743 6.48 125.37 7.34667 124.89 8.36C124.436 9.37333 123.943 10.44 123.41 11.56C122.876 12.6533 122.356 13.72 121.85 14.76C121.343 15.7733 120.903 16.6533 120.53 17.4C120.156 18.1467 119.903 18.6533 119.77 18.92L119.97 19C120.77 17.9067 121.65 16.8933 122.61 15.96C123.596 15 124.756 14.2133 126.09 13.6C126.916 13.2267 127.663 13.04 128.33 13.04C128.916 13.04 129.383 13.1733 129.73 13.44C130.103 13.7067 130.29 14.0667 130.29 14.52C130.29 15.0533 130.023 15.6667 129.49 16.36C129.063 16.8933 128.503 17.4 127.81 17.88C127.143 18.36 126.463 18.7733 125.77 19.12C125.076 19.4667 124.45 19.7333 123.89 19.92C123.303 20.1067 122.716 20.2533 122.13 20.36C121.57 20.4667 120.983 20.5733 120.37 20.68C120.076 20.7067 119.796 20.84 119.53 21.08C119.29 21.2933 119.143 21.5067 119.09 21.72C119.25 22.36 119.543 23.08 119.97 23.88C120.396 24.68 120.943 25.3733 121.61 25.96C122.276 26.52 123.05 26.8 123.93 26.8C124.81 26.8 125.596 26.4933 126.29 25.88C127.01 25.2667 127.69 24.4933 128.33 23.56C128.996 22.6 129.69 21.6267 130.41 20.64C130.543 20.48 130.716 20.4 130.93 20.4H131.01C131.276 20.4 131.41 20.6 131.41 21C131.41 21.1067 131.37 21.2267 131.29 21.36C130.996 21.8133 130.61 22.4 130.13 23.12C129.65 23.84 129.09 24.5733 128.45 25.32C127.836 26.04 127.143 26.6533 126.37 27.16C125.596 27.6667 124.783 27.92 123.93 27.92C122.916 27.92 122.01 27.6933 121.21 27.24C120.436 26.7867 119.783 26.2 119.25 25.48C118.743 24.7333 118.37 23.9733 118.13 23.2C117.73 23.9467 117.356 24.7067 117.01 25.48C116.69 26.2533 116.303 26.9867 115.85 27.68C115.796 27.76 115.703 27.84 115.57 27.92C115.463 28 115.343 28.04 115.21 28.04ZM121.41 19.32C121.996 19.24 122.676 19.0933 123.45 18.88C124.25 18.64 125.036 18.3333 125.81 17.96C126.583 17.5867 127.223 17.1467 127.73 16.64C127.996 16.3733 128.223 16.08 128.41 15.76C128.596 15.4133 128.69 15.1067 128.69 14.84C128.69 14.44 128.49 14.24 128.09 14.24C127.69 14.24 127.036 14.4933 126.13 15C125.17 15.56 124.29 16.2133 123.49 16.96C122.716 17.68 122.023 18.4667 121.41 19.32ZM131.293 28.4C129.986 28.4 128.986 28.1333 128.292 27.6C127.599 27.0667 127.252 26.5067 127.252 25.92C127.252 25.4933 127.439 25.12 127.812 24.8C128.159 24.4533 128.759 24.28 129.613 24.28C130.146 24.28 130.786 24.36 131.533 24.52C132.093 24.6533 132.679 24.8267 133.293 25.04C133.933 25.2533 134.586 25.3467 135.253 25.32C135.439 25.0267 135.546 24.7867 135.573 24.6C135.599 24.4133 135.613 24.1867 135.613 23.92C135.613 23.04 135.466 22.3067 135.173 21.72C134.906 21.1333 134.586 20.56 134.213 20C133.866 19.44 133.573 18.76 133.333 17.96C132.986 18.5467 132.546 19.32 132.013 20.28C131.479 21.2133 130.599 22.4933 129.373 24.12C129.293 24.2533 129.133 24.32 128.893 24.32C128.492 24.32 128.292 24.1467 128.292 23.8C128.292 23.72 128.359 23.6 128.492 23.44C128.599 23.28 128.866 22.8667 129.293 22.2C129.773 21.4267 130.333 20.56 130.973 19.6C131.613 18.6133 132.226 17.5333 132.813 16.36C132.839 15.9067 132.933 15.4667 133.093 15.04C133.253 14.6133 133.439 14.2267 133.653 13.88C133.946 13.4 134.253 13.0533 134.573 12.84C134.893 12.6 135.186 12.48 135.453 12.48C135.959 12.48 136.213 12.7733 136.213 13.36C136.213 13.76 136.053 14.28 135.733 14.92C135.546 15.32 135.306 15.6667 135.013 15.96C134.719 16.2267 134.466 16.4667 134.253 16.68C134.306 17.3467 134.466 17.9467 134.733 18.48C134.999 19.0133 135.293 19.5333 135.613 20.04C135.959 20.5467 136.253 21.0933 136.493 21.68C136.733 22.2667 136.853 22.9733 136.853 23.8C136.853 24.3333 136.759 24.8267 136.573 25.28C137.159 25.3067 137.759 25.0933 138.373 24.64C139.013 24.16 139.613 23.5467 140.173 22.8C140.759 22.0533 141.279 21.2933 141.733 20.52C141.866 20.3333 142.039 20.24 142.253 20.24C142.386 20.24 142.519 20.28 142.653 20.36C142.786 20.44 142.853 20.5733 142.853 20.76C142.853 20.8667 142.813 21 142.733 21.16C141.959 22.5467 141.213 23.6267 140.493 24.4C139.799 25.1467 139.093 25.6667 138.373 25.96C137.653 26.2533 136.853 26.4267 135.973 26.48C135.306 27.0933 134.586 27.5733 133.812 27.92C133.066 28.24 132.226 28.4 131.293 28.4ZM131.093 27.44C131.706 27.44 132.239 27.3467 132.693 27.16C133.146 26.9733 133.639 26.7067 134.173 26.36C133.613 26.28 133.146 26.1867 132.773 26.08C132.399 25.9467 131.919 25.8133 131.333 25.68C130.586 25.52 129.999 25.44 129.573 25.44C128.799 25.44 128.412 25.6267 128.412 26C128.412 26.2933 128.666 26.6133 129.173 26.96C129.679 27.28 130.319 27.44 131.093 27.44Z" fill="#53974A"/>
</svg>
