<svg width="12" height="13" viewBox="0 0 12 13" fill="none" xmlns="http://www.w3.org/2000/svg">
<path d="M6 12.5C5.17 12.5 4.39 12.3424 3.66 12.0272C2.93 11.712 2.295 11.2846 1.755 10.745C1.215 10.205 0.7876 9.57 0.4728 8.84C0.158 8.11 0.0004 7.33 0 6.5C0 5.67 0.1576 4.89 0.4728 4.16C0.788 3.43 1.2154 2.795 1.755 2.255C2.295 1.715 2.93 1.2876 3.66 0.9728C4.39 0.658 5.17 0.5004 6 0.5C6.83 0.5 7.61 0.6576 8.34 0.9728C9.07 1.288 9.705 1.7154 10.245 2.255C10.785 2.795 11.2126 3.43 11.5278 4.16C11.843 4.89 12.0004 5.67 12 6.5C12 7.33 11.8424 8.11 11.5272 8.84C11.212 9.57 10.7846 10.205 10.245 10.745C9.705 11.285 9.07 11.7126 8.34 12.0278C7.61 12.343 6.83 12.5004 6 12.5ZM6.12 7.1L5.58 7.64C5.47 7.75 5.415 7.89 5.415 8.06C5.415 8.23 5.47 8.37 5.58 8.48C5.69 8.59 5.83 8.645 6 8.645C6.17 8.645 6.31 8.59 6.42 8.48L7.98 6.92C8.1 6.8 8.16 6.66 8.16 6.5C8.16 6.34 8.1 6.2 7.98 6.08L6.42 4.52C6.31 4.41 6.17 4.355 6 4.355C5.83 4.355 5.69 4.41 5.58 4.52C5.47 4.63 5.415 4.77 5.415 4.94C5.415 5.11 5.47 5.25 5.58 5.36L6.12 5.9H4.2C4.03 5.9 3.8874 5.9576 3.7722 6.0728C3.657 6.188 3.5996 6.3304 3.6 6.5C3.6 6.67 3.6576 6.8126 3.7728 6.9278C3.888 7.043 4.0304 7.1004 4.2 7.1H6.12Z" fill="#484F9B"/>
</svg>
