<svg width="11" height="13" viewBox="0 0 11 13" fill="none" xmlns="http://www.w3.org/2000/svg">
<path opacity="0.3" d="M5.5 0C2.6125 0 0 2.1273 0 5.41736C0 7.51823 1.68438 9.98907 5.04625 12.8365C5.3075 13.0545 5.69938 13.0545 5.96063 12.8365C9.31563 9.98907 11 7.51823 11 5.41736C11 2.1273 8.3875 0 5.5 0ZM5.5 6.60653C4.74375 6.60653 4.125 6.01194 4.125 5.28522C4.125 4.55851 4.74375 3.96392 5.5 3.96392C6.25625 3.96392 6.875 4.55851 6.875 5.28522C6.875 6.01194 6.25625 6.60653 5.5 6.60653Z" fill="#53974A"/>
</svg>
