<svg width="14" height="13" viewBox="0 0 14 13" fill="none" xmlns="http://www.w3.org/2000/svg">
<path opacity="0.3" d="M8.93813 2.40785C8.93813 1.90186 8.73278 1.41659 8.36726 1.0588C8.00174 0.701006 7.50599 0.5 6.98906 0.5C6.47214 0.5 5.97639 0.701006 5.61087 1.0588C5.24535 1.41659 5.04 1.90186 5.04 2.40785C5.04 2.91385 5.24535 3.39912 5.61087 3.75691C5.97639 4.1147 6.47214 4.31571 6.98906 4.31571C7.50599 4.31571 8.00174 4.1147 8.36726 3.75691C8.73278 3.39912 8.93812 2.91385 8.93813 2.40785ZM0.450625 8.2175H3.06687V5.65999L3.07387 5.50582C3.09663 5.25144 3.17712 5.01333 3.30137 4.80349H0.889L0.786625 4.80948C0.57378 4.83403 0.37754 4.93418 0.235126 5.09095C0.0927115 5.24772 0.0140283 5.4502 0.014 5.65999V7.78925C0.014 7.90283 0.0600935 8.01175 0.142141 8.09207C0.224188 8.17238 0.334593 8.2175 0.450625 8.2175ZM13.9913 7.78925C13.9913 7.90283 13.9452 8.01175 13.8631 8.09207C13.7811 8.17238 13.6698 8.2175 13.5538 8.2175H10.9148V5.65999L10.9095 5.53237C10.8904 5.27556 10.812 5.02634 10.6803 4.80349H13.1163C13.3307 4.80354 13.5377 4.88068 13.6978 5.02026C13.858 5.15984 13.9602 5.35213 13.9851 5.56063L13.9913 5.65999V7.78925ZM10.0336 5.56063C10.0087 5.35199 9.90637 5.15957 9.74601 5.01997C9.58565 4.88037 9.37848 4.80333 9.16387 4.80349H4.81687L4.7145 4.80948C4.50166 4.83403 4.30542 4.93418 4.163 5.09095C4.02059 5.24772 3.9419 5.4502 3.94187 5.65999V8.2175H10.0389V5.65999L10.0336 5.56063ZM11.3531 1.03831C11.7971 1.03831 12.2228 1.21094 12.5367 1.51821C12.8506 1.82549 13.027 2.24224 13.027 2.6768C13.027 3.11135 12.8506 3.5281 12.5367 3.83538C12.2228 4.14266 11.7971 4.31528 11.3531 4.31528C10.9091 4.31528 10.4832 4.14261 10.1692 3.83525C9.85521 3.5279 9.67881 3.11103 9.67881 2.67637C9.67881 2.2417 9.85521 1.82484 10.1692 1.51748C10.4832 1.21012 10.9091 1.03831 11.3531 1.03831ZM4.31287 2.67594C4.31287 2.24139 4.13652 1.82463 3.82261 1.51736C3.5087 1.21008 3.08294 1.03745 2.639 1.03745C2.19506 1.03745 1.7693 1.21008 1.45539 1.51736C1.14148 1.82463 0.965125 2.24139 0.965125 2.67594C0.965125 3.11049 1.14148 3.52725 1.45539 3.83452C1.7693 4.1418 2.19506 4.31442 2.639 4.31442C3.08294 4.31442 3.5087 4.1418 3.82261 3.83452C4.13652 3.52725 4.31287 3.11049 4.31287 2.67594ZM0.4375 9.074C0.321468 9.074 0.210188 9.11912 0.128141 9.19943C0.0460937 9.27974 0 9.38867 0 9.50225V10.3587C0 10.9266 0.230468 11.4713 0.640704 11.8728C1.05094 12.2744 1.60734 12.5 2.1875 12.5H11.8125C12.3927 12.5 12.9491 12.2744 13.3593 11.8728C13.7695 11.4713 14 10.9266 14 10.3587V9.50225C14 9.38867 13.9539 9.27974 13.8719 9.19943C13.7898 9.11912 13.6785 9.074 13.5625 9.074H0.4375Z" fill="#53974A"/>
</svg>
