<svg width="14" height="14" viewBox="0 0 14 14" fill="none" xmlns="http://www.w3.org/2000/svg">
<g opacity="0.5">
<mask id="mask0_26_1553" style="mask-type:luminance" maskUnits="userSpaceOnUse" x="0" y="0" width="14" height="14">
<path fill-rule="evenodd" clip-rule="evenodd" d="M1.75 1.4C1.65717 1.4 1.56815 1.43687 1.50251 1.50251C1.43687 1.56815 1.4 1.65717 1.4 1.75V3.85C1.4 4.2366 1.0866 4.55 0.7 4.55C0.313401 4.55 0 4.2366 0 3.85V1.75C0 1.28587 0.184375 0.840752 0.512563 0.512563C0.840752 0.184375 1.28587 0 1.75 0H3.85C4.2366 0 4.55 0.313401 4.55 0.7C4.55 1.0866 4.2366 1.4 3.85 1.4H1.75ZM9.45 0.7C9.45 0.313401 9.7634 0 10.15 0H12.25C12.7141 0 13.1592 0.184375 13.4874 0.512563C13.8156 0.840751 14 1.28587 14 1.75V3.85C14 4.2366 13.6866 4.55 13.3 4.55C12.9134 4.55 12.6 4.2366 12.6 3.85V1.75C12.6 1.65718 12.5631 1.56815 12.4975 1.50251C12.4318 1.43687 12.3428 1.4 12.25 1.4H10.15C9.7634 1.4 9.45 1.0866 9.45 0.7ZM0.7 9.45C1.0866 9.45 1.4 9.7634 1.4 10.15V12.25C1.4 12.3428 1.43687 12.4318 1.50251 12.4975C1.56815 12.5631 1.65718 12.6 1.75 12.6H3.85C4.2366 12.6 4.55 12.9134 4.55 13.3C4.55 13.6866 4.2366 14 3.85 14H1.75C1.28587 14 0.840751 13.8156 0.512563 13.4874C0.184375 13.1592 0 12.7141 0 12.25V10.15C0 9.7634 0.313401 9.45 0.7 9.45ZM13.3 9.45C13.6866 9.45 14 9.7634 14 10.15V12.25C14 12.7141 13.8156 13.1592 13.4874 13.4874C13.1592 13.8156 12.7141 14 12.25 14H10.15C9.7634 14 9.45 13.6866 9.45 13.3C9.45 12.9134 9.7634 12.6 10.15 12.6H12.25C12.3428 12.6 12.4318 12.5631 12.4975 12.4975C12.5631 12.4318 12.6 12.3428 12.6 12.25V10.15C12.6 9.7634 12.9134 9.45 13.3 9.45Z" fill="white"/>
<path d="M10.5003 6.99997L7.00029 10.5L3.50029 6.99997C3.15029 6.64997 2.97529 5.94997 3.50029 5.24997C4.02529 4.54997 5.07529 4.54997 5.60029 4.89997C6.12529 5.24997 6.30029 5.59997 7.00029 5.59997C7.70029 5.59997 7.87529 5.24997 8.40029 4.89997C8.92529 4.54997 9.97529 4.54997 10.5003 5.24997C11.0253 5.94997 10.8503 6.64997 10.5003 6.99997Z" fill="white"/>
<path fill-rule="evenodd" clip-rule="evenodd" d="M4.6274 5.37694C4.37979 5.40446 4.18158 5.50801 4.0601 5.66998C3.74438 6.09094 3.89109 6.40101 3.99508 6.505L7.0001 9.51003L10.0051 6.505C10.1091 6.40101 10.2558 6.09094 9.9401 5.66998C9.81863 5.50801 9.62041 5.40446 9.3728 5.37694C9.11228 5.348 8.89035 5.41444 8.78839 5.48241C8.68632 5.55046 8.59853 5.62017 8.49917 5.70074C8.49118 5.70721 8.48296 5.71389 8.47454 5.72074C8.38611 5.7926 8.2743 5.88347 8.15402 5.96366C7.84841 6.1674 7.49563 6.29998 7.0001 6.29998C6.50457 6.29998 6.15179 6.1674 5.84619 5.96366C5.7259 5.88347 5.6141 5.79261 5.52567 5.72074C5.51724 5.71389 5.50903 5.70721 5.50104 5.70074C5.40168 5.62017 5.31388 5.55046 5.21181 5.48241C5.10985 5.41444 4.88792 5.348 4.6274 5.37694ZM4.4728 3.98551C4.99978 3.92695 5.56535 4.03551 5.98839 4.31754C6.14882 4.42449 6.27978 4.52978 6.38276 4.61328L6.39272 4.62135C6.49719 4.70607 6.55962 4.75669 6.62277 4.79879C6.71091 4.85755 6.79563 4.89998 7.0001 4.89998C7.20457 4.89998 7.28929 4.85755 7.37744 4.79879C7.44058 4.75669 7.50301 4.70607 7.60748 4.62135L7.61744 4.61328C7.72043 4.52978 7.85138 4.42449 8.01181 4.31754C8.43485 4.03551 9.00042 3.92695 9.5274 3.98551C10.0673 4.04549 10.6566 4.29194 11.0601 4.82998C11.7944 5.80901 11.5911 6.89894 10.9951 7.49495L7.49508 10.9949C7.3638 11.1262 7.18575 11.2 7.0001 11.2C6.81445 11.2 6.6364 11.1262 6.50513 10.9949L3.00513 7.49495C2.40912 6.89894 2.20582 5.80901 2.9401 4.82998C3.34363 4.29194 3.93291 4.04549 4.4728 3.98551Z" fill="white"/>
</mask>
<g mask="url(#mask0_26_1553)">
<path d="M-1.3999 -1.39984H15.4001V15.4002H-1.3999V-1.39984Z" fill="#5B5B6D"/>
</g>
</g>
</svg>
