<svg width="12" height="16" viewBox="0 0 12 16" fill="none" xmlns="http://www.w3.org/2000/svg">
<path opacity="0.5" fill-rule="evenodd" clip-rule="evenodd" d="M6.468 0.596048L11.1347 2.57741C11.3889 2.6853 11.6079 2.87847 11.7626 3.1311C11.9172 3.38373 12 3.68379 12 3.99116V8.03917C12 9.30077 11.6898 10.5375 11.104 11.6106C10.5182 12.6838 9.67997 13.5511 8.68333 14.1154L6.44733 15.3804C6.30845 15.4591 6.15529 15.5 6 15.5C5.84471 15.5 5.69155 15.4591 5.55267 15.3804L3.31667 14.1146C2.32003 13.5504 1.48185 12.6831 0.896046 11.6099C0.310247 10.5367 -2.37714e-05 9.30002 2.60108e-07 8.03842V3.99191C-0.00016934 3.68442 0.0826037 3.38419 0.237246 3.13141C0.391887 2.87863 0.611022 2.68534 0.865333 2.57741L5.532 0.596048C5.83375 0.467984 6.16625 0.467984 6.468 0.596048ZM6 9.50651C5.82319 9.50651 5.65362 9.58604 5.5286 9.72759C5.40357 9.86915 5.33333 10.0611 5.33333 10.2613C5.33333 10.4615 5.40357 10.6535 5.5286 10.795C5.65362 10.9366 5.82319 11.0161 6 11.0161C6.17681 11.0161 6.34638 10.9366 6.4714 10.795C6.59643 10.6535 6.66667 10.4615 6.66667 10.2613C6.66667 10.0611 6.59643 9.86915 6.4714 9.72759C6.34638 9.58604 6.17681 9.50651 6 9.50651ZM6 4.22288C5.83671 4.22291 5.67911 4.29078 5.55709 4.41363C5.43506 4.53649 5.3571 4.70577 5.338 4.88938L5.33333 4.97769V7.99691C5.33352 8.18929 5.39859 8.37433 5.51523 8.51423C5.63188 8.65412 5.7913 8.7383 5.96093 8.74958C6.13056 8.76085 6.29759 8.69837 6.42789 8.57489C6.55819 8.45141 6.64193 8.27626 6.662 8.08522L6.66667 7.99691V4.97769C6.66667 4.7775 6.59643 4.58551 6.4714 4.44396C6.34638 4.30241 6.17681 4.22288 6 4.22288Z" fill="#5B5B6D"/>
</svg>
